<?xml version="1.0" encoding="UTF-8"?>
<svg xmlns="http://www.w3.org/2000/svg" viewBox="0 0 300 100">
  <defs>
    <style>
      .cls-1 {
        fill: #fc5185;
      }

      .cls-2 {
        fill: #fff;
      }

      .cls-3 {
        fill: #3fc1c9;
      }

      .cls-4 {
        fill: #364f6b;
      }

      .cls-5 {
        mix-blend-mode: soft-light;
      }

      .cls-6 {
        isolation: isolate;
      }
    </style>
  </defs>
  <g class="cls-6">
    <g id="Layer_1" data-name="Layer 1">
      <g>
        <path class="cls-1" d="m110.31,22.67h12.11l19.87,53.73h-12.37l-4.18-12.37h-19.1l-4.18,12.37h-12.2l20.04-53.73Zm-1.02,32.75h13.65l-2.47-7.16c-.8-2.22-1.54-4.45-2.22-6.69-.68-2.25-1.34-4.51-1.96-6.78h-.17c-.63,2.16-1.31,4.36-2.05,6.61-.74,2.25-1.51,4.53-2.3,6.87l-2.47,7.16Z"/>
        <path class="cls-1" d="m172.91,45.44c-3.36-1.59-6.6-2.39-9.72-2.39-1.82,0-3.23.31-4.22.94-1,.63-1.49,1.48-1.49,2.56s.44,1.96,1.32,2.64c.88.68,2.66,1.42,5.33,2.22l2.56.77c3.52,1.02,6.2,2.5,8.02,4.43,1.82,1.93,2.73,4.43,2.73,7.51,0,4.04-1.55,7.25-4.65,9.64-3.1,2.39-7.29,3.58-12.58,3.58s-10.04-.97-13.9-2.9l2.56-8.36c1.65.85,3.38,1.55,5.2,2.09,1.82.54,3.67.81,5.54.81,2.27,0,3.94-.35,4.99-1.07,1.05-.71,1.58-1.63,1.58-2.77,0-1.19-.51-2.12-1.54-2.77-1.02-.65-2.96-1.38-5.8-2.17l-2.64-.77c-3.41-1.14-5.91-2.64-7.5-4.52-1.59-1.88-2.39-4.38-2.39-7.5,0-3.7,1.39-6.71,4.18-9.04,2.79-2.33,6.68-3.5,11.68-3.5s9.32.88,13.13,2.64l-2.39,7.93Z"/>
        <path class="cls-1" d="m209.75,43.9h-10.83v18.76c0,1.93.44,3.26,1.32,3.97.88.71,2.06,1.07,3.54,1.07,1.14,0,2.3-.11,3.5-.34,1.19-.23,2.16-.54,2.9-.94l1.71,7.93c-.97.46-2.42.91-4.35,1.36-1.93.46-3.98.68-6.14.68-4.95,0-8.47-.98-10.58-2.94-2.1-1.96-3.16-4.9-3.16-8.83v-20.72h-6.31v-8.19h6.31v-12.54h11.26v12.54h10.83v8.19Z"/>
        <path class="cls-1" d="m218.7,39.3c2.44-1.42,5.03-2.52,7.76-3.28,2.73-.77,5.63-1.15,8.7-1.15,2.44,0,4.68.28,6.69.85,2.02.57,3.75,1.46,5.2,2.69,1.45,1.22,2.56,2.79,3.33,4.69.77,1.91,1.15,4.19,1.15,6.87v26.44h-8.78l-1.02-4.18h-.34c-1.31,1.59-2.97,2.84-4.99,3.75-2.02.91-4.36,1.37-7.04,1.37-2.22,0-4.18-.33-5.88-.98-1.71-.65-3.16-1.54-4.35-2.64-1.19-1.11-2.09-2.43-2.69-3.97-.6-1.54-.9-3.18-.9-4.95,0-2.33.5-4.33,1.49-6.01.99-1.68,2.37-3.06,4.14-4.14,1.76-1.08,3.82-1.88,6.18-2.39,2.36-.51,4.9-.77,7.63-.77h5.12v-2.47c0-1.88-.58-3.25-1.75-4.14-1.17-.88-2.8-1.32-4.9-1.32-1.65,0-3.34.26-5.07.77-1.74.51-3.65,1.34-5.76,2.47l-3.92-7.5Zm21.49,19.27l-3.67.09c-3.47.11-5.88.7-7.25,1.75-1.37,1.05-2.05,2.32-2.05,3.8,0,1.93.58,3.26,1.75,3.97,1.16.71,2.49,1.07,3.97,1.07s2.89-.43,4.22-1.28c1.34-.85,2.35-1.85,3.03-2.99v-6.4Z"/>
        <g>
          <g class="cls-5">
            <circle class="cls-1" cx="44.16" cy="57.64" r="18.76"/>
          </g>
          <g class="cls-5">
            <circle class="cls-4" cx="62.92" cy="57.64" r="18.76"/>
          </g>
          <g class="cls-5">
            <circle class="cls-3" cx="53.54" cy="41.42" r="18.76"/>
          </g>
          <path class="cls-2" d="m53.54,41.39c-5.6,3.24-9.37,9.31-9.37,16.26,0,0,0,.02,0,.03,2.76,1.6,5.96,2.51,9.37,2.51s6.62-.92,9.38-2.52c0,0,0-.02,0-.03,0-6.94-3.78-13.01-9.38-16.26Z"/>
        </g>
        <path class="cls-4" d="m259.94,68.84c0-1.04.2-2.03.6-2.95.4-.92.94-1.72,1.61-2.4.68-.67,1.46-1.2,2.35-1.57.89-.37,1.83-.55,2.81-.55,1.97,0,3.67.71,5.11,2.12,1.44,1.41,2.17,3.2,2.17,5.35,0,2.33-.72,4.18-2.17,5.53-1.44,1.35-3.15,2.03-5.11,2.03s-3.69-.68-5.16-2.03c-1.47-1.35-2.21-3.19-2.21-5.53Z"/>
      </g>
    </g>
  </g>
</svg>