<?xml version="1.0" encoding="utf-8"?>
<!-- Generator: Adobe Illustrator 27.3.1, SVG Export Plug-In . SVG Version: 6.00 Build 0)  -->
<svg version="1.1" id="Layer_1" xmlns="http://www.w3.org/2000/svg" xmlns:xlink="http://www.w3.org/1999/xlink" x="0px" y="0px"
	 viewBox="0 0 301.23 214.69" style="enable-background:new 0 0 301.23 214.69;" xml:space="preserve">
<style type="text/css">
	.st0{clip-path:url(#SVGID_00000122703657114358801350000013853273428972410030_);}
	.st1{fill:#F2F2F2;}
	.st2{fill:#CCCCCC;}
	.st3{fill:#FFB6B6;}
	.st4{fill:#FC5185;}
	.st5{fill:#3F3D56;}
	.st6{fill:#E6E6E6;}
	.st7{fill:#2F2E41;}
</style>
<g>
	<defs>
		<rect id="SVGID_1_" x="20.33" y="26.43" width="266.66" height="188.25"/>
	</defs>
	<clipPath id="SVGID_00000031180830405532757230000007511618917405163452_">
		<use xlink:href="#SVGID_1_"  style="overflow:visible;"/>
	</clipPath>
	<g style="clip-path:url(#SVGID_00000031180830405532757230000007511618917405163452_);">
		<path class="st1" d="M222.38,120.12c0,4.72-0.55,9.42-1.64,14.01c-6.32,26.54-30.17,46.28-58.64,46.28
			c-33.29,0-60.28-26.99-60.28-60.29c0-10.98,2.99-21.75,8.67-31.16c5.67-9.4,13.8-17.08,23.52-22.19c0,0,0.01,0,0.01,0
			c1.63-0.87,3.31-1.65,5.04-2.37c9.54-3.93,19.92-5.36,30.16-4.15c0.88,0.1,1.75,0.23,2.62,0.37c1.41,0.23,2.8,0.51,4.17,0.83
			c0.35,0.08,0.69,0.16,1.03,0.25c0.07,0.02,0.13,0.04,0.2,0.05c0.07,0.02,0.13,0.03,0.2,0.05h0c0.13,0.03,0.26,0.06,0.39,0.1
			c0.32,0.09,0.64,0.18,0.95,0.27c0.98,0.28,1.95,0.58,2.91,0.92c0.15,0.05,0.3,0.1,0.45,0.16c0.08,0.03,0.15,0.06,0.23,0.08
			c0.08,0.03,0.16,0.06,0.24,0.08c2.16,0.78,4.27,1.68,6.32,2.71l-3.16-1.02c10.11,5.18,18.86,14.33,26.16,27.33
			c0.05-0.32,0.21-0.62,0.43-0.86c0.23-0.24,0.52-0.4,0.85-0.46c0.32-0.06,0.66-0.03,0.96,0.1c0.3,0.13,0.56,0.35,0.73,0.63
			c0.04,0.07,0.08,0.14,0.11,0.22c0.08,0.2,0.13,0.41,0.13,0.62c0,0.21-0.03,0.42-0.11,0.62c-0.08,0.2-0.19,0.38-0.34,0.53
			c-0.15,0.15-0.32,0.28-0.52,0.36c-0.01,0.01-0.02,0.01-0.04,0.01l5.19,13.5c0.37-0.01,0.74,0.06,1.08,0.2
			c0.09-0.45,0.23-0.89,0.44-1.29c0.1,0.45,0.2,0.9,0.29,1.35c0.03,0.17,0.07,0.33,0.1,0.5v0c0.18,0.89,0.33,1.79,0.47,2.7
			c0.01,0.07,0.02,0.15,0.04,0.22v0c0.05,0.36,0.1,0.72,0.15,1.08c0.24,1.9,0.39,3.83,0.45,5.79
			C222.37,118.88,222.38,119.5,222.38,120.12z"/>
		<path class="st2" d="M219.37,110.61c0.53,13.46,1.05,26.94,0.45,40.4c-0.6,13.37-2.51,26.65-4.17,39.91l-2.83,22.55h0.97
			c0-2.23-2.12-4.19-4.37-3.85c-2.14,0.33-3.59,2.62-3.12,4.7l0.89-0.37c-1.48-2.98-3.75-6.83-7.67-6.37
			c-1.84,0.22-3.03,1.61-4.37,2.73c-1.45,1.17-3.18,1.92-5.03,2.18c-1.84,0.26-3.72,0.02-5.43-0.71c-0.57-0.25-1.06,0.59-0.49,0.84
			c1.52,0.65,3.16,0.97,4.81,0.92c1.65-0.05,3.27-0.45,4.75-1.18c0.74-0.37,1.44-0.83,2.07-1.36c0.67-0.56,1.28-1.21,2-1.72
			c1.56-1.1,3.4-0.89,4.94,0.16c1.73,1.17,2.68,3.18,3.58,5c0.25,0.51,1.01,0.14,0.89-0.38c-0.15-0.77,0.01-1.56,0.44-2.21
			c0.43-0.65,1.1-1.11,1.86-1.27c1.67-0.28,3.27,1.25,3.27,2.89c0,0.64,0.9,0.6,0.97,0c1.68-13.38,3.42-26.75,5.03-40.14
			c0.79-6.6,1.48-13.21,1.85-19.85c0.38-6.72,0.45-13.46,0.36-20.19c-0.09-7.56-0.39-15.12-0.69-22.68
			C220.32,109.99,219.34,109.99,219.37,110.61z"/>
		<path class="st3" d="M264.8,123.43c-5.72,4.15-11.67,7.96-17.84,11.41c-1.69,0.93-3.34,1.78-4.89,2.5
			c-2.41,1.12-4.59,1.94-6.3,2.24l0,0c-0.25,0.05-0.49,0.08-0.72,0.1c-2.12,0.2-3.85-1.07-5.26-3.15c-1.97-2.9-3.32-7.39-4.23-11.69
			c-0.18-0.85-0.34-1.69-0.49-2.51c-0.68-3.79-1.02-7.14-1.16-8.72c-0.64-0.19-1.24-0.5-1.76-0.92v0c-0.08-0.07-0.17-0.14-0.24-0.21
			c-0.18-0.16-0.34-0.34-0.49-0.53c-0.71-0.87-1.09-1.97-1.09-3.09c0-0.78,0.18-1.54,0.53-2.24v0c0.31-0.61,0.73-1.14,1.25-1.57
			c0.52-0.43,1.13-0.76,1.78-0.95c0.65-0.19,1.33-0.25,2.01-0.16c0.67,0.08,1.32,0.31,1.91,0.65c0.58,0.34,1.09,0.81,1.49,1.35
			c0.4,0.55,0.68,1.17,0.83,1.83c0.15,0.66,0.16,1.35,0.03,2.01c-0.13,0.67-0.39,1.3-0.77,1.86l1.75,4.27l0,0l5.18,12.63v0
			l0.06,0.13l19.13-11.44l2.67-1.6l0.52-0.31c1.03-0.79,2.31-1.16,3.6-1.03c1.29,0.13,2.48,0.74,3.33,1.72h0
			c0.46,0.53,0.8,1.15,1.01,1.82c0.21,0.67,0.28,1.37,0.2,2.07c-0.08,0.7-0.29,1.37-0.64,1.97
			C265.83,122.49,265.36,123.02,264.8,123.43z"/>
		<path class="st2" d="M220.39,110.94l-0.61,0.23c-0.42-1.12-0.84-2.22-1.28-3.31c-8.99-22.52-21.02-37.13-35.82-43.49
			c-0.22-0.1-0.45-0.19-0.67-0.28c-0.3-0.13-0.61-0.25-0.91-0.36c-0.49-0.19-0.99-0.38-1.49-0.55c-0.67-0.23-1.34-0.44-2.01-0.64
			c-0.16-0.05-0.33-0.1-0.49-0.14c-0.58-0.17-1.16-0.32-1.74-0.45c-13.85-3.32-28.03,0.14-41.37,4.82c0,0-0.01,0-0.01,0
			c-4.07,1.43-8.07,2.98-11.95,4.48c-14.36,5.55-26.98,10.43-35.78,6.21c-0.34-0.16-0.67-0.33-0.99-0.52
			c-0.35-0.2-0.7-0.42-1.03-0.66c-0.04-0.03-0.08-0.06-0.12-0.09c-0.36-0.26-0.72-0.54-1.07-0.84c-0.52-0.44-1-0.92-1.45-1.43
			c-0.09-0.1-0.17-0.19-0.26-0.29c-0.02-0.02-0.04-0.05-0.05-0.06c-0.66-0.8-1.25-1.67-1.74-2.59c-3.04-5.64-2.9-13.09-2.76-20.35
			c0.15-7.86,0.29-15.33-3.68-19.67c-0.57-0.63-1.22-1.18-1.93-1.64c-0.71-0.46-1.47-0.84-2.27-1.13c-8.55-3.1-23.24,3-43.76,18.17
			c-0.68,0.5-1.36,1.01-2.06,1.54l-0.39-0.52c0.69-0.52,1.38-1.04,2.06-1.54c9.71-7.17,18.19-12.37,25.24-15.48
			c8.07-3.56,14.51-4.48,19.19-2.75c0.82,0.3,1.6,0.69,2.33,1.17c0.73,0.48,1.4,1.04,2,1.68c4.2,4.51,4.05,12.15,3.9,20.19
			c-0.13,6.83-0.27,13.83,2.28,19.24c0.56,1.21,1.29,2.35,2.15,3.37c0.05,0.06,0.11,0.12,0.16,0.18c0.45,0.51,0.93,0.99,1.44,1.43
			c0.3,0.26,0.61,0.51,0.93,0.74c0.37,0.27,0.75,0.52,1.15,0.75c0.44,0.26,0.9,0.49,1.37,0.7c8.55,3.77,20.88-1,34.88-6.4
			c5.55-2.15,11.32-4.38,17.23-6.24c9.82-3.1,20.02-5.18,30.16-4.15c0.81,0.08,1.62,0.18,2.43,0.31c1.46,0.22,2.92,0.51,4.37,0.88
			c0.34,0.08,0.68,0.17,1.01,0.27c0.13,0.03,0.26,0.07,0.4,0.11c0.13,0.04,0.26,0.07,0.39,0.11c0.67,0.2,1.34,0.41,2.01,0.64
			c0.57,0.2,1.13,0.41,1.69,0.62c0.2,0.08,0.41,0.16,0.62,0.25c0.18,0.07,0.37,0.15,0.56,0.23c1.04,0.44,2.06,0.92,3.08,1.44
			c10.11,5.18,18.86,14.33,26.16,27.33c0.32,0.58,0.65,1.16,0.97,1.76c0.75,1.39,1.48,2.82,2.19,4.3c1.42,2.91,2.77,5.98,4.05,9.22
			c0.29,0.73,0.58,1.47,0.87,2.23C220.14,110.27,220.27,110.61,220.39,110.94z"/>
		<path class="st4" d="M22.92,50.21c1.43,0,2.59-1.16,2.59-2.59c0-1.43-1.16-2.59-2.59-2.59c-1.43,0-2.59,1.16-2.59,2.59
			C20.33,49.05,21.49,50.21,22.92,50.21z"/>
		<path class="st4" d="M71.38,31.62c1.43,0,2.59-1.16,2.59-2.59c0-1.43-1.16-2.59-2.59-2.59c-1.43,0-2.59,1.16-2.59,2.59
			C68.79,30.46,69.95,31.62,71.38,31.62z"/>
		<path class="st5" d="M70.46,63.57l-0.44,0.48l27.1,24.97l0.44-0.48L70.46,63.57z"/>
		<path class="st4" d="M70.24,65.42c0.89,0,1.62-0.73,1.62-1.62c0-0.9-0.73-1.62-1.62-1.62s-1.62,0.73-1.62,1.62
			C68.62,64.7,69.34,65.42,70.24,65.42z"/>
		<path class="st6" d="M96.95,45.45l-4.37,3.33l-5.98,4.55c-3.1,2.35-5.17,5.81-5.77,9.66l-1.09,6.88l-0.18,1.1l-0.14,0.86
			l-0.12,0.77l-0.36,2.26c-0.03,0.16,0,0.32,0.07,0.46s0.19,0.26,0.33,0.33c0.14,0.07,0.3,0.09,0.46,0.07
			c0.16-0.03,0.3-0.11,0.41-0.22c-0.03-0.67,0.2-1.33,0.64-1.83c0.44-0.5,1.07-0.82,1.74-0.87c0.17-5.07,2.92-7.34,7.09-8.06
			l0.04-0.05l-0.03,0.06c0.67,5.58-1.01,8.46-4.51,9.26l-0.09,0.18c0.03,0.05,0.06,0.11,0.08,0.16c0.15,0.35,0.23,0.73,0.21,1.11
			c-0.01,0.38-0.11,0.76-0.28,1.1c-0.17,0.34-0.42,0.64-0.72,0.87c-0.3,0.23-0.65,0.4-1.03,0.48c0,0.07,0.01,0.14,0.02,0.2
			c0.03,0.11,0.09,0.22,0.17,0.3c0.08,0.09,0.17,0.15,0.28,0.2c0.11,0.04,0.22,0.06,0.34,0.05c0.12-0.01,0.23-0.05,0.33-0.11
			l0.75-0.46l0.57-0.35l0.44-0.28l0.66-0.41l7.93-4.9c3.25-2,5.59-5.19,6.52-8.89l1.88-7.39l1.35-5.32L96.95,45.45z"/>
		<path class="st4" d="M96.92,90.23c0.89,0,1.62-0.73,1.62-1.62c0-0.89-0.73-1.62-1.62-1.62c-0.9,0-1.62,0.73-1.62,1.62
			C95.3,89.5,96.02,90.23,96.92,90.23z"/>
		<path class="st2" d="M236.67,133.53l-0.37-4.99v0l-0.19-2.51c-0.28-3.88-2.06-7.5-4.95-10.1l-0.04-0.03l0,0l-8.89-8.02
			c-0.12-0.11-0.27-0.18-0.43-0.19c-0.16-0.02-0.32,0.02-0.46,0.11c-0.07,0.04-0.13,0.09-0.18,0.16c-0.06,0.07-0.11,0.16-0.13,0.25
			c0.55,0.36,0.95,0.92,1.1,1.56c0.16,0.64,0.06,1.32-0.27,1.89l0.29,1.02v0c2.97,2.22,3.69,5.55,2.73,9.73l0.02,0.07l-0.03-0.06
			c-3.81-2.27-6.09-5.25-5.7-9.49c-0.34-0.06-0.67-0.19-0.96-0.38c-0.29-0.19-0.54-0.44-0.74-0.72c-0.19-0.29-0.33-0.61-0.39-0.95
			c-0.07-0.34-0.06-0.69,0.01-1.03c-0.07-0.02-0.14-0.03-0.21-0.03c-0.07,0-0.13,0.01-0.19,0.03c-0.16,0.04-0.3,0.13-0.4,0.26
			c-0.1,0.13-0.16,0.28-0.16,0.45l-0.27,12.18c-0.09,3.82,1.31,7.52,3.9,10.32l1,1.09l4.17,4.52l3.72,4.04l7.13-3.1l0,0l1.32-0.57
			L236.67,133.53z"/>
		<path class="st4" d="M82.78,77.07c1.03,0,1.87-0.84,1.87-1.87c0-1.03-0.84-1.87-1.87-1.87s-1.87,0.84-1.87,1.87
			C80.91,76.24,81.75,77.07,82.78,77.07z"/>
		<path class="st5" d="M90.28,64.87c0.72,0,1.3-0.58,1.3-1.3c0-0.72-0.58-1.3-1.3-1.3c-0.72,0-1.3,0.58-1.3,1.3
			C88.98,64.29,89.56,64.87,90.28,64.87z"/>
		<path class="st5" d="M220.17,109.88l-0.16,0.06l-0.45,0.18l-0.89-2.31l-3.58-9.3l-0.01-0.01l-1.6-4.17h0l-0.51-1.34l0.61-0.23
			l0.56,1.45l5.19,13.5L220.17,109.88z"/>
		<path class="st4" d="M214.18,94.19c-0.01,0.01-0.02,0.01-0.04,0.01c-0.21,0.08-0.43,0.13-0.65,0.12h0
			c-0.2-0.01-0.4-0.05-0.59-0.13c-0.38-0.16-0.69-0.47-0.85-0.85c-0.13-0.29-0.17-0.61-0.11-0.91c0.05-0.32,0.21-0.62,0.43-0.86
			c0.23-0.24,0.52-0.4,0.85-0.46c0.32-0.06,0.66-0.03,0.96,0.1c0.3,0.13,0.56,0.35,0.73,0.63c0.04,0.07,0.08,0.14,0.11,0.22
			c0.08,0.2,0.13,0.41,0.13,0.62c0,0.21-0.03,0.42-0.11,0.62c-0.08,0.2-0.19,0.38-0.34,0.53C214.55,93.98,214.37,94.1,214.18,94.19z
			"/>
		<path class="st4" d="M221.55,111.11c0,0.01-0.01,0.02-0.01,0.03v0c-0.07,0.15-0.16,0.29-0.26,0.42c-0.2,0.25-0.46,0.44-0.75,0.56
			c-0.32,0.14-0.68,0.19-1.02,0.16v0c-0.35-0.04-0.68-0.17-0.96-0.38c-0.28-0.21-0.5-0.49-0.64-0.81c-0.16-0.37-0.21-0.77-0.13-1.16
			c0.06-0.32,0.2-0.62,0.4-0.88c0.2-0.26,0.47-0.46,0.77-0.59c0.04-0.02,0.07-0.03,0.11-0.04c0.04-0.02,0.08-0.03,0.13-0.04
			c0.12-0.03,0.24-0.06,0.36-0.07c0.05,0,0.1-0.01,0.14-0.01c0.29-0.01,0.57,0.04,0.83,0.16c0.16,0.07,0.32,0.16,0.45,0.26v0
			c0.07,0.05,0.13,0.11,0.19,0.16v0c0.17,0.18,0.31,0.38,0.41,0.61c0.11,0.25,0.17,0.53,0.17,0.81
			C221.73,110.58,221.67,110.86,221.55,111.11z"/>
		<path class="st5" d="M225.52,124.84c0.72,0,1.3-0.58,1.3-1.3c0-0.72-0.58-1.3-1.3-1.3c-0.72,0-1.3,0.58-1.3,1.3
			C224.22,124.26,224.8,124.84,225.52,124.84z"/>
		<path class="st5" d="M199.51,68.85l-0.2,0.62l-1.65-0.53l-8.73-2.81l-3.16-1.02l-3.08-0.99l-0.63-0.2l-0.89-0.29l-3.55-1.14
			l-0.48-0.15l-1.6-0.52l-3.72-1.2l-0.18-0.06l-28.51-9.18l-1.74-0.56l0.2-0.62l1.65,0.53l32.91,10.6l1.32,0.42l0.37,0.12l0.94,0.3
			l2.89,0.93l0.48,0.16l0.46,0.15l15.16,4.88L199.51,68.85z"/>
		<path class="st2" d="M182.7,63.66c-0.01-0.09-0.04-0.17-0.08-0.25l-0.01-0.01c-0.09-0.16-0.24-0.27-0.41-0.33
			c-0.02-0.01-0.04-0.01-0.06-0.01h0c0.03,0.35-0.01,0.7-0.12,1.04c-0.11,0.33-0.29,0.64-0.52,0.91c-0.23,0.26-0.52,0.48-0.84,0.63
			c-0.32,0.15-0.66,0.23-1.02,0.25l0,0c0.17,4.79-1.39,8.3-6.31,9.33l-0.04,0.06l0.02-0.06c-2.69-4.59,0.11-7.95,3.77-11.12
			c-0.16-0.5-0.16-1.03-0.01-1.54s0.45-0.95,0.86-1.27l0,0c-0.04-0.18-0.15-0.34-0.3-0.45c-0.13-0.1-0.29-0.14-0.45-0.14
			c-0.16,0.01-0.32,0.06-0.44,0.17l-0.58,0.47l-0.13,0.1L176,61.45l-0.45,0.37l-0.16,0.13l-8.12,6.58c-2.97,2.4-4.89,5.85-5.35,9.64
			l-0.93,7.57l-0.67,5.45l8.26,4.07l3.91-3.85l5.35-5.27c2.78-2.72,4.39-6.42,4.5-10.31l0.35-11.46l0.01-0.25l0.01-0.3
			C182.71,63.76,182.71,63.71,182.7,63.66z"/>
		<path class="st4" d="M141.62,52.42c0.89,0,1.62-0.73,1.62-1.62c0-0.9-0.73-1.62-1.62-1.62c-0.9,0-1.62,0.73-1.62,1.62
			C140,51.7,140.72,52.42,141.62,52.42z"/>
		<path class="st4" d="M199.28,70.48c0.89,0,1.62-0.73,1.62-1.62s-0.73-1.62-1.62-1.62c-0.89,0-1.62,0.73-1.62,1.62
			S198.39,70.48,199.28,70.48z"/>
		<path class="st5" d="M172.9,77.73c0.72,0,1.3-0.58,1.3-1.3c0-0.72-0.58-1.3-1.3-1.3c-0.72,0-1.3,0.58-1.3,1.3
			C171.6,77.15,172.18,77.73,172.9,77.73z"/>
		<path class="st7" d="M282.3,83.01c-0.15-0.16-0.29-0.32-0.44-0.47c-3.66-3.85-8.45-6.14-12.93-6.14c-0.83,0-1.62,0.04-2.38,0.11
			c-3.14,0.31-5.65,1.25-7.53,2.84c-2.78,2.34-4.17,6.06-4.18,11.15c0,0.28-0.02,0.81-0.04,1.5c-0.17,4.06-0.77,13.96-1.31,15.42
			c-0.88,2.39-1.64,4.45-0.51,6.01c0.66,0.91,1.96,1.57,3.99,2c0.37,0.08,0.77,0.15,1.19,0.21c2.18,0.29,4.37,0.42,6.57,0.39
			c0.29,0,0.58,0,0.88-0.01h0c1.04-0.01,2.15-0.04,3.33-0.08c2.76-0.11,6.22-0.32,9.32-1.04h0c0.41-0.09,0.8-0.19,1.19-0.3
			l0.07-0.02l0.03-0.07c0.56-1.13,0.87-2.36,0.93-3.62c0.59,0.8,1.03,1.71,1.29,2.67l0.05,0.18l0.18-0.08
			c1.37-0.59,2.56-1.53,3.44-2.74c0.84-1.25,1.35-2.7,1.47-4.21C287.36,102.63,285.68,86.78,282.3,83.01z"/>
		<path class="st7" d="M283.39,214.64h-19.42l-3.26-16.11l-1.06,16.11h-18.04c-0.01-11.94-3.66-25.23,1.81-36.2
			c0.28-0.57,4.04-1.34,0.17-1.67l0.22-0.76l0.35-1.22l0.22-0.76c0,0,0.87-0.73,0.28-0.98c-0.59-0.25,0.3-1.03,0.3-1.03l3.15-10.81
			l0.29-1.02h22.48c1.29,1.22,2.49,2.53,3.57,3.94c0.37,0.47,0.75,0.97,1.14,1.52c0.27,0.39,0.55,0.79,0.84,1.22
			c2.51,3.73,4.38,7.85,5.54,12.19v0c0.2,0.74,0.37,1.5,0.53,2.28v0c0.14,0.69,0.26,1.39,0.35,2.11c0.07,0.52,0.13,1.05,0.18,1.59
			c0.27,2.96,0.18,5.95-0.28,8.89L283.39,214.64z"/>
		<path class="st4" d="M261.45,107.29l10.7-0.55l4.97,7.85c0,0,9.35,1.56,8.7,12.58c-0.65,11.02-11.38,20.69-11.38,20.69l8.24,23.89
			l-0.8,2.28l0.1,1.28l1.09,1.35l0.11,1.4l-0.96,2.21l1.31,2.12c-9.43,2.35-15.79-0.04-19.16-7.06
			c-3.87-9.66-10.38-10.58-18.34-6.76l1.19-10.67l1.47-1.97l-0.82-2.57l1.23-2.47l0.64-7.85c0,0-7.03-10.57,1.04-18.53l3.24-5.51
			l3.63-4.42L261.45,107.29z"/>
		<path class="st3" d="M266.77,105.07c6.26,0,11.34-5.08,11.34-11.34c0-6.26-5.08-11.34-11.34-11.34c-6.26,0-11.34,5.08-11.34,11.34
			C255.43,100,260.5,105.07,266.77,105.07z"/>
		<path class="st7" d="M274.22,79.64h-11.1c-1.34-0.31-2.73-0.41-4.1-0.29c-1.69,0.13-3.3,0.75-4.63,1.79
			c-1.99,1.59-3.08,4.14-3.08,7.16c0.01,0.97,0.11,1.93,0.3,2.88l0.02,0.1l0.1,0.03c1.02,0.26,2.05,0.5,3.08,0.7
			c0.25,0.05,0.5,0.1,0.75,0.14c1.35,0.25,2.7,0.45,4.03,0.59l0.07,0.01l0.05-0.05c0.96-0.88,1.72-1.95,2.23-3.15
			c0.3,1.05,0.38,2.15,0.24,3.23l-0.02,0.17l0.17,0.01c0.98,0.06,1.95,0.08,2.93,0.08c4.26,0,8.5-0.52,12.64-1.54
			c0.27-0.07,0.54-0.13,0.81-0.2l0.12-0.03v-7.03c0-1.22-0.49-2.39-1.35-3.25C276.6,80.13,275.43,79.64,274.22,79.64z"/>
		<path class="st7" d="M283.26,78.68c-0.21,2.11-1.22,4.07-2.82,5.47c-1.59,1.4-3.66,2.15-5.78,2.1c-2.12-0.06-4.15-0.91-5.67-2.4
			c-1.52-1.49-2.42-3.49-2.52-5.61c-0.1-2.12,0.6-4.21,1.97-5.83c1.37-1.63,3.3-2.68,5.41-2.94c2.11-0.26,4.24,0.28,5.96,1.52
			c1.72,1.24,2.92,3.09,3.34,5.17c-1.29,0.18-2.51,0.67-3.56,1.43c0.64-0.08,1.29-0.03,1.92,0.15s1.2,0.48,1.71,0.89
			C283.22,78.64,283.24,78.66,283.26,78.68z"/>
		<path class="st5" d="M105.88,57.07c-0.7,0-1.38-0.21-1.96-0.59c-6.22-0.5-10.29-3.16-12.16-8.05c-0.41-0.27-0.75-0.62-1.02-1.03
			c-0.27-0.41-0.45-0.87-0.53-1.35c-0.08-0.48-0.07-0.98,0.05-1.45c0.12-0.47,0.33-0.92,0.63-1.31c0.57-0.72,1.39-1.2,2.3-1.34
			s1.84,0.07,2.6,0.59l0.66,0.43c0-0.69,0.21-1.37,0.59-1.94l0.05-0.07c0.22-0.34,0.55-0.59,0.93-0.73
			c0.38-0.14,0.79-0.15,1.18-0.03c0.41,0.11,0.78,0.36,1.05,0.69c0.27,0.34,0.42,0.75,0.44,1.18c0.01,0.17,0.03,0.33,0.06,0.49
			c0.11,0.58,0.36,1.13,0.73,1.59c0.37,0.46,0.84,0.84,1.37,1.08c0.54,0.25,1.13,0.36,1.72,0.34c0.59-0.03,1.17-0.19,1.68-0.48
			c0.31-0.18,0.66-0.27,1.01-0.27c0.36,0,0.71,0.08,1.02,0.26c0.28,0.15,0.52,0.38,0.69,0.65c0.17,0.27,0.26,0.59,0.27,0.91
			c0.03,0.72-0.16,1.42-0.55,2.03c-0.38,0.61-0.94,1.08-1.6,1.37l0.66,0.44c0.8,0.51,1.36,1.32,1.57,2.24
			c0.21,0.92,0.06,1.89-0.44,2.7c-0.25,0.4-0.58,0.75-0.97,1.02c-0.39,0.27-0.83,0.46-1.29,0.56
			C106.39,57.04,106.14,57.07,105.88,57.07z"/>
		<path class="st5" d="M167.09,101.09c-0.19,0-0.38-0.03-0.56-0.09c-0.36-0.11-0.69-0.32-0.93-0.61c-0.25-0.29-0.4-0.65-0.45-1.02
			l-0.01-0.04c-0.1-0.64-0.35-1.24-0.75-1.74c-0.4-0.51-0.92-0.9-1.51-1.15c-0.59-0.25-1.24-0.33-1.88-0.26
			c-0.64,0.08-1.24,0.32-1.76,0.7c-0.26,0.19-0.57,0.31-0.89,0.35c-0.32,0.04-0.65-0.01-0.95-0.13c-0.3-0.12-0.57-0.32-0.77-0.57
			c-0.2-0.25-0.34-0.55-0.4-0.87c-0.12-0.71-0.02-1.44,0.28-2.09c0.3-0.65,0.8-1.2,1.41-1.56l-0.81-0.4
			c-0.44-0.22-0.83-0.52-1.14-0.89c-0.32-0.37-0.55-0.8-0.69-1.27c-0.14-0.47-0.19-0.96-0.13-1.45c0.06-0.49,0.21-0.95,0.46-1.38
			c0.47-0.79,1.23-1.37,2.11-1.62c0.88-0.25,1.83-0.16,2.65,0.26c5.63-0.78,9.94,1.4,12.98,6.4c0.44,0.22,0.83,0.52,1.14,0.89
			c0.32,0.37,0.55,0.8,0.69,1.27c0.14,0.47,0.19,0.96,0.13,1.45c-0.06,0.49-0.21,0.95-0.46,1.38c-0.47,0.79-1.23,1.37-2.11,1.62
			c-0.88,0.25-1.83,0.16-2.65-0.26l-0.71-0.35c0.09,0.69-0.03,1.38-0.34,2c-0.14,0.29-0.32,0.55-0.53,0.79
			c-0.18,0.2-0.4,0.37-0.64,0.48C167.62,101.03,167.36,101.09,167.09,101.09z"/>
		<path class="st5" d="M230.17,148.51c-0.46,0.01-0.92-0.13-1.31-0.38c-0.39-0.25-0.7-0.61-0.89-1.04l-0.02-0.05
			c-0.28-0.63-0.36-1.33-0.24-2.01l-0.83,0.36c-0.43,0.19-0.9,0.29-1.38,0.29c-0.47,0.01-0.94-0.08-1.38-0.26
			c-0.44-0.18-0.84-0.44-1.17-0.78c-0.34-0.33-0.6-0.73-0.78-1.17c-0.34-0.88-0.33-1.87,0.04-2.74c0.37-0.87,1.06-1.57,1.94-1.94
			c2.32-5.36,6.58-7.49,13.16-5.72c0.84-0.38,1.79-0.43,2.66-0.13c0.87,0.29,1.6,0.91,2.03,1.72c0.23,0.43,0.36,0.91,0.39,1.4
			c0.03,0.49-0.04,0.98-0.2,1.44c-0.16,0.46-0.42,0.88-0.75,1.24c-0.33,0.36-0.74,0.64-1.18,0.84l-0.83,0.36
			c0.58,0.38,1.03,0.92,1.31,1.55c0.04,0.09,0.08,0.18,0.11,0.28c0.15,0.44,0.17,0.92,0.05,1.37s-0.37,0.86-0.72,1.17
			c-0.35,0.33-0.8,0.55-1.27,0.63c-0.48,0.08-0.97,0.02-1.41-0.18c-0.47-0.21-0.97-0.31-1.48-0.32h-0.02
			c-0.69,0.02-1.35,0.22-1.93,0.58c-0.58,0.36-1.05,0.88-1.36,1.49c-0.07,0.14-0.14,0.28-0.2,0.42c-0.18,0.46-0.49,0.85-0.89,1.13
			c-0.4,0.28-0.88,0.43-1.37,0.44C230.21,148.51,230.19,148.51,230.17,148.51z"/>
		<path class="st3" d="M278.87,122.33c-0.78-0.22-1.59-0.26-2.39-0.11c-0.79,0.15-1.54,0.5-2.17,1c-0.63,0.5-1.14,1.14-1.47,1.88
			c-0.34,0.73-0.49,1.54-0.45,2.35l-12.52,25.34l-17.97-4.03c-0.37-0.98-1.04-1.82-1.92-2.39c-0.88-0.57-1.91-0.85-2.96-0.8
			c-1.05,0.05-2.05,0.43-2.87,1.09c-0.82,0.66-1.4,1.56-1.68,2.57c-0.27,1.01-0.22,2.08,0.15,3.06c0.37,0.98,1.05,1.81,1.92,2.39
			c0.88,0.57,1.91,0.85,2.96,0.8c1.05-0.05,2.05-0.43,2.86-1.09c4.27,2.46,23.64,13.08,27.76,5.8c3.46-6.12,14.6-26.39,14.4-33.11
			c-0.03-1.07-0.4-2.11-1.06-2.96C280.82,123.25,279.9,122.63,278.87,122.33z"/>
		<path class="st4" d="M179.41,64.87c1,0,1.81-0.81,1.81-1.81c0-1-0.81-1.81-1.81-1.81s-1.81,0.81-1.81,1.81
			C177.59,64.05,178.41,64.87,179.41,64.87z"/>
	</g>
</g>
</svg>
