<?xml version="1.0" encoding="utf-8"?>
<!-- Generator: Adobe Illustrator 27.3.1, SVG Export Plug-In . SVG Version: 6.00 Build 0)  -->
<svg version="1.1" id="Layer_1" xmlns="http://www.w3.org/2000/svg" xmlns:xlink="http://www.w3.org/1999/xlink" x="0px" y="0px"
	 viewBox="0 0 1200 439.44" style="enable-background:new 0 0 1200 439.44;" xml:space="preserve">
<style type="text/css">
	.st0{fill:#FFFFFF;}
	.st1{clip-path:url(#SVGID_00000031929080908518117180000018434294540533114035_);}
	.st2{fill:#F2F2F2;}
	.st3{fill:#CCCCCC;}
	.st4{fill:#FFB6B6;}
	.st5{fill:#FC5185;}
	.st6{fill:#3F3D56;}
	.st7{fill:#E6E6E6;}
	.st8{fill:#2F2E41;}
</style>
<rect x="-8.14" y="-4.52" class="st0" width="1216.37" height="449.5"/>
<g>
	<defs>
		<rect id="SVGID_1_" x="602.63" y="97.13" width="484.87" height="342.31"/>
	</defs>
	<clipPath id="SVGID_00000076574702382009637010000006302881194768919957_">
		<use xlink:href="#SVGID_1_"  style="overflow:visible;"/>
	</clipPath>
	<g style="clip-path:url(#SVGID_00000076574702382009637010000006302881194768919957_);">
		<path class="st2" d="M970.02,267.48c0,8.58-0.99,17.13-2.98,25.47c-11.49,48.26-54.87,84.15-106.63,84.15
			c-60.53,0-109.6-49.08-109.6-109.62c-0.01-19.97,5.44-39.56,15.76-56.65s25.1-31.05,42.76-40.36c0.01,0,0.01-0.01,0.02-0.01
			c2.97-1.57,6.02-3.01,9.16-4.3c17.34-7.14,36.21-9.74,54.84-7.55c1.6,0.19,3.19,0.41,4.76,0.67c2.56,0.42,5.09,0.92,7.59,1.51
			c0.63,0.14,1.26,0.29,1.87,0.46c0.12,0.03,0.24,0.07,0.37,0.09c0.12,0.03,0.24,0.06,0.36,0.09h0.01c0.24,0.06,0.47,0.12,0.71,0.18
			c0.58,0.16,1.15,0.32,1.73,0.49c1.79,0.51,3.55,1.06,5.3,1.67c0.28,0.09,0.55,0.19,0.82,0.28c0.14,0.05,0.28,0.1,0.42,0.15
			c0.15,0.05,0.29,0.1,0.44,0.15c3.92,1.42,7.76,3.06,11.49,4.92l-5.75-1.85c18.38,9.42,34.29,26.06,47.57,49.7
			c0.1-0.59,0.37-1.13,0.79-1.56c0.42-0.43,0.95-0.72,1.54-0.84s1.19-0.05,1.74,0.18c0.55,0.24,1.01,0.63,1.33,1.14
			c0.08,0.13,0.15,0.26,0.21,0.39c0.15,0.36,0.24,0.74,0.24,1.12c0.01,0.39-0.06,0.77-0.21,1.13c-0.14,0.36-0.35,0.69-0.62,0.97
			c-0.27,0.28-0.59,0.5-0.95,0.65c-0.02,0.01-0.04,0.02-0.07,0.02l9.44,24.55c0.68-0.02,1.35,0.1,1.97,0.37
			c0.16-0.82,0.43-1.61,0.81-2.35c0.19,0.81,0.37,1.63,0.54,2.46c0.06,0.31,0.12,0.61,0.18,0.91v0.01c0.32,1.62,0.61,3.26,0.85,4.91
			c0.02,0.14,0.04,0.27,0.07,0.4v0.01c0.09,0.65,0.18,1.3,0.26,1.96c0.44,3.46,0.71,6.97,0.82,10.53
			C970,265.22,970.02,266.35,970.02,267.48z"/>
		<path class="st3" d="M964.55,250.19c0.96,24.47,1.91,48.98,0.81,73.46c-1.1,24.31-4.56,48.45-7.58,72.58l-5.15,41h1.77
			c0.01-4.05-3.86-7.62-7.94-7c-3.9,0.6-6.54,4.77-5.68,8.55l1.62-0.68c-2.69-5.42-6.82-12.43-13.95-11.58
			c-3.35,0.4-5.51,2.93-7.95,4.96c-2.63,2.12-5.79,3.49-9.14,3.96c-3.35,0.47-6.76,0.03-9.88-1.28c-1.03-0.45-1.93,1.07-0.89,1.53
			c2.76,1.19,5.74,1.76,8.74,1.68c3-0.08,5.95-0.82,8.64-2.15c1.35-0.68,2.62-1.51,3.77-2.48c1.22-1.02,2.33-2.2,3.63-3.12
			c2.85-2,6.19-1.61,8.98,0.29c3.14,2.13,4.88,5.79,6.51,9.09c0.46,0.93,1.83,0.26,1.62-0.68c-0.27-1.39,0.02-2.84,0.81-4.02
			c0.78-1.18,2-2.01,3.39-2.31c3.04-0.52,5.95,2.26,5.95,5.25c0,1.17,1.63,1.1,1.77,0c3.06-24.33,6.22-48.64,9.14-72.98
			c1.44-12,2.7-24.03,3.37-36.1c0.68-12.23,0.82-24.48,0.66-36.72c-0.17-13.75-0.71-27.5-1.25-41.24
			C966.27,249.06,964.5,249.06,964.55,250.19z"/>
		<path class="st4" d="M1047.15,273.51c-10.39,7.55-21.22,14.48-32.44,20.75c-3.06,1.69-6.07,3.24-8.9,4.55
			c-4.38,2.04-8.35,3.52-11.45,4.07l-0.01,0.01c-0.45,0.08-0.9,0.14-1.31,0.18c-3.85,0.37-7-1.94-9.57-5.73
			c-3.58-5.28-6.04-13.44-7.7-21.26c-0.33-1.54-0.62-3.07-0.89-4.56c-1.24-6.89-1.86-12.98-2.11-15.86
			c-1.17-0.34-2.25-0.91-3.19-1.68v-0.01c-0.15-0.12-0.3-0.25-0.44-0.38c-0.32-0.3-0.62-0.62-0.89-0.97
			c-1.28-1.59-1.98-3.57-1.97-5.62c0-1.41,0.33-2.81,0.97-4.07v-0.01c0.56-1.1,1.33-2.08,2.28-2.86c0.95-0.79,2.05-1.37,3.23-1.72
			c1.18-0.35,2.43-0.45,3.65-0.29c1.22,0.15,2.4,0.55,3.46,1.18c1.06,0.63,1.98,1.47,2.71,2.46c0.73,1,1.24,2.13,1.51,3.34
			c0.27,1.2,0.29,2.45,0.05,3.66c-0.23,1.21-0.71,2.36-1.41,3.38l3.18,7.76l0.01,0.01l9.42,22.97v0.01l0.1,0.24l34.78-20.8
			l4.85-2.91l0.94-0.56c1.87-1.44,4.21-2.11,6.55-1.87c2.34,0.23,4.51,1.35,6.05,3.13h0.01c0.83,0.96,1.45,2.09,1.83,3.3
			c0.38,1.21,0.5,2.49,0.36,3.76c-0.14,1.26-0.54,2.49-1.17,3.59C1049.02,271.79,1048.17,272.75,1047.15,273.51z"/>
		<path class="st3" d="M966.41,250.8l-1.1,0.41c-0.76-2.04-1.53-4.05-2.32-6.02c-16.35-40.96-38.22-67.51-65.13-79.09
			c-0.41-0.18-0.81-0.35-1.23-0.51c-0.55-0.23-1.1-0.45-1.66-0.66c-0.9-0.35-1.8-0.68-2.71-1c-1.21-0.42-2.43-0.81-3.65-1.16
			c-0.29-0.09-0.6-0.18-0.89-0.25c-1.06-0.3-2.1-0.58-3.16-0.82c-25.18-6.03-50.97,0.25-75.22,8.76c-0.01,0-0.01,0.01-0.02,0.01
			c-7.41,2.6-14.68,5.41-21.74,8.14c-26.1,10.09-49.06,18.96-65.05,11.29c-0.61-0.29-1.21-0.61-1.8-0.95
			c-0.64-0.37-1.27-0.77-1.88-1.2c-0.08-0.05-0.15-0.11-0.22-0.16c-0.66-0.47-1.31-0.98-1.94-1.52c-0.94-0.81-1.82-1.68-2.63-2.6
			c-0.16-0.18-0.32-0.35-0.47-0.54c-0.03-0.04-0.06-0.08-0.09-0.12c-1.21-1.46-2.27-3.03-3.16-4.7
			c-5.53-10.25-5.27-23.81-5.01-37.01c0.27-14.29,0.54-27.87-6.69-35.77c-1.03-1.14-2.21-2.14-3.5-2.98
			c-1.29-0.84-2.67-1.53-4.12-2.05c-15.54-5.63-42.26,5.45-79.57,33.03c-1.24,0.91-2.48,1.84-3.74,2.79l-0.71-0.94
			c1.26-0.95,2.51-1.89,3.75-2.8c17.65-13.04,33.07-22.49,45.9-28.14c14.67-6.47,26.38-8.14,34.9-5c1.49,0.54,2.91,1.25,4.24,2.12
			c1.33,0.87,2.55,1.89,3.63,3.05c7.64,8.2,7.37,22.1,7.09,36.71c-0.24,12.42-0.48,25.15,4.15,34.99c1.03,2.21,2.34,4.27,3.9,6.14
			c0.09,0.11,0.19,0.22,0.29,0.34c0.81,0.93,1.69,1.8,2.62,2.61c0.55,0.48,1.11,0.92,1.69,1.34c0.67,0.49,1.37,0.94,2.09,1.36
			c0.81,0.47,1.64,0.9,2.5,1.27c15.55,6.86,37.97-1.81,63.42-11.65c10.09-3.9,20.59-7.96,31.34-11.35
			c17.86-5.63,36.4-9.42,54.84-7.55c1.47,0.14,2.95,0.33,4.43,0.56c2.66,0.4,5.31,0.93,7.96,1.59c0.62,0.15,1.23,0.32,1.84,0.49
			c0.24,0.06,0.48,0.13,0.72,0.2c0.24,0.06,0.48,0.13,0.71,0.2c1.21,0.36,2.43,0.75,3.65,1.17c1.03,0.36,2.06,0.74,3.08,1.13
			c0.37,0.15,0.75,0.29,1.12,0.45c0.34,0.14,0.68,0.28,1.01,0.42c1.89,0.8,3.75,1.67,5.59,2.62c18.38,9.42,34.29,26.06,47.57,49.7
			c0.59,1.05,1.18,2.12,1.76,3.2c1.36,2.53,2.69,5.13,3.99,7.81c2.58,5.29,5.03,10.88,7.37,16.76c0.54,1.33,1.06,2.68,1.58,4.05
			C965.95,249.58,966.18,250.18,966.41,250.8z"/>
		<path class="st5" d="M607.34,140.36c2.6,0,4.71-2.11,4.71-4.71c0-2.6-2.11-4.71-4.71-4.71c-2.6,0-4.71,2.11-4.71,4.71
			C602.63,138.25,604.74,140.36,607.34,140.36z"/>
		<path class="st5" d="M695.46,106.56c2.6,0,4.71-2.11,4.71-4.71s-2.11-4.71-4.71-4.71c-2.6,0-4.71,2.11-4.71,4.71
			S692.85,106.56,695.46,106.56z"/>
		<path class="st6" d="M693.78,164.65l-0.8,0.87l49.28,45.41l0.8-0.87L693.78,164.65z"/>
		<path class="st5" d="M693.38,168.03c1.63,0,2.95-1.32,2.95-2.95c0-1.63-1.32-2.95-2.95-2.95c-1.63,0-2.95,1.32-2.95,2.95
			C690.43,166.71,691.75,168.03,693.38,168.03z"/>
		<path class="st7" d="M741.94,131.7l-7.94,6.05l-10.87,8.28c-5.64,4.27-9.4,10.57-10.49,17.56l-1.99,12.52l-0.32,2l-0.25,1.57
			l-0.22,1.4l-0.65,4.11c-0.05,0.29,0,0.58,0.13,0.84c0.13,0.26,0.34,0.47,0.6,0.59c0.26,0.13,0.55,0.17,0.84,0.12
			c0.28-0.05,0.55-0.19,0.74-0.4c-0.06-1.22,0.36-2.42,1.17-3.33c0.81-0.92,1.94-1.48,3.16-1.58c0.31-9.22,5.31-13.34,12.89-14.66
			l0.08-0.09l-0.05,0.11c1.21,10.14-1.84,15.38-8.2,16.83l-0.16,0.33c0.05,0.1,0.1,0.2,0.15,0.3c0.28,0.64,0.41,1.33,0.39,2.02
			c-0.02,0.7-0.2,1.38-0.51,2c-0.32,0.62-0.76,1.16-1.32,1.59c-0.55,0.43-1.19,0.72-1.87,0.87c0,0.12,0.01,0.25,0.04,0.37
			c0.06,0.2,0.16,0.39,0.3,0.55c0.14,0.16,0.32,0.28,0.51,0.36c0.2,0.08,0.41,0.11,0.62,0.09c0.21-0.02,0.41-0.08,0.59-0.19
			l1.36-0.84l1.04-0.64l0.81-0.5l1.21-0.75l14.42-8.92c5.91-3.64,10.16-9.44,11.86-16.17l3.42-13.44l2.46-9.68L741.94,131.7z"/>
		<path class="st5" d="M741.89,213.13c1.63,0,2.95-1.32,2.95-2.95c0-1.63-1.32-2.95-2.95-2.95c-1.63,0-2.95,1.32-2.95,2.95
			C738.94,211.81,740.26,213.13,741.89,213.13z"/>
		<path class="st3" d="M996.02,291.87l-0.68-9.07v-0.01l-0.34-4.56c-0.51-7.05-3.74-13.64-9-18.36l-0.07-0.06l-0.01-0.01
			l-16.17-14.57c-0.22-0.2-0.49-0.33-0.79-0.35c-0.29-0.03-0.59,0.04-0.84,0.2c-0.13,0.07-0.24,0.17-0.33,0.28
			c-0.11,0.13-0.19,0.29-0.25,0.45c1.01,0.65,1.73,1.67,2.01,2.84s0.11,2.4-0.49,3.44l0.52,1.85v0.01c5.39,4.03,6.71,10.1,4.96,17.7
			l0.04,0.12l-0.06-0.1c-6.93-4.12-11.07-9.55-10.37-17.26c-0.62-0.11-1.22-0.34-1.75-0.69c-0.53-0.34-0.98-0.79-1.34-1.32
			c-0.35-0.52-0.6-1.11-0.72-1.73c-0.12-0.62-0.11-1.26,0.02-1.88c-0.12-0.04-0.25-0.06-0.38-0.06c-0.12,0-0.24,0.01-0.35,0.05
			c-0.29,0.07-0.54,0.24-0.72,0.47c-0.18,0.23-0.28,0.52-0.29,0.81l-0.49,22.15c-0.17,6.94,2.37,13.67,7.09,18.76l1.83,1.97
			l7.58,8.22l6.77,7.34l12.96-5.63l0.01-0.01l2.39-1.04L996.02,291.87z"/>
		<path class="st5" d="M716.19,189.21c1.88,0,3.4-1.52,3.4-3.4c0-1.88-1.52-3.4-3.4-3.4c-1.88,0-3.4,1.52-3.4,3.4
			C712.79,187.69,714.31,189.21,716.19,189.21z"/>
		<path class="st6" d="M729.82,167.02c1.3,0,2.36-1.06,2.36-2.36s-1.06-2.36-2.36-2.36c-1.3,0-2.36,1.06-2.36,2.36
			S728.52,167.02,729.82,167.02z"/>
		<path class="st6" d="M966.01,248.86l-0.28,0.11l-0.82,0.32l-1.61-4.2l-6.5-16.91l-0.01-0.02l-2.91-7.58h-0.01l-0.93-2.43l1.1-0.42
			l1.01,2.63l9.44,24.55L966.01,248.86z"/>
		<path class="st5" d="M955.1,220.33c-0.02,0.01-0.04,0.02-0.07,0.02c-0.37,0.15-0.77,0.23-1.18,0.22h-0.01
			c-0.37-0.01-0.73-0.09-1.07-0.24c-0.69-0.3-1.25-0.85-1.55-1.54c-0.23-0.52-0.3-1.1-0.21-1.66c0.1-0.59,0.37-1.13,0.79-1.56
			c0.42-0.43,0.95-0.72,1.54-0.84s1.19-0.05,1.74,0.18c0.55,0.24,1.01,0.63,1.33,1.14c0.08,0.13,0.15,0.26,0.21,0.39
			c0.15,0.36,0.24,0.74,0.24,1.12c0.01,0.39-0.06,0.77-0.21,1.13c-0.14,0.36-0.35,0.69-0.62,0.97
			C955.78,219.96,955.46,220.18,955.1,220.33z"/>
		<path class="st5" d="M968.52,251.1c0,0.02-0.01,0.04-0.02,0.05v0c-0.13,0.27-0.29,0.53-0.48,0.76c-0.36,0.45-0.83,0.8-1.36,1.03
			c-0.59,0.26-1.23,0.35-1.86,0.28v0c-0.63-0.07-1.24-0.31-1.75-0.69c-0.51-0.38-0.91-0.89-1.17-1.47c-0.29-0.67-0.38-1.4-0.24-2.12
			c0.11-0.58,0.36-1.13,0.73-1.6c0.37-0.46,0.85-0.83,1.39-1.07c0.06-0.03,0.13-0.05,0.2-0.08c0.08-0.03,0.15-0.05,0.23-0.08
			c0.22-0.06,0.44-0.11,0.66-0.13c0.09-0.01,0.17-0.01,0.26-0.01c0.52-0.02,1.04,0.08,1.52,0.29c0.29,0.12,0.57,0.29,0.83,0.48v0
			c0.12,0.09,0.24,0.19,0.34,0.3v0c0.32,0.32,0.57,0.7,0.75,1.11c0.2,0.46,0.3,0.96,0.3,1.47
			C968.84,250.14,968.73,250.64,968.52,251.1z"/>
		<path class="st6" d="M975.72,276.06c1.3,0,2.36-1.06,2.36-2.36s-1.06-2.36-2.36-2.36c-1.3,0-2.36,1.06-2.36,2.36
			S974.42,276.06,975.72,276.06z"/>
		<path class="st6" d="M928.44,174.25l-0.36,1.12l-3-0.97l-15.88-5.11l-5.75-1.85l-5.59-1.8l-1.15-0.37l-1.62-0.52l-6.45-2.07
			l-0.88-0.28l-2.91-0.94l-6.76-2.18l-0.34-0.11l-51.84-16.69l-3.17-1.02l0.36-1.12l3,0.97l59.85,19.27l2.4,0.77l0.67,0.21
			l1.71,0.55l5.25,1.69l0.87,0.28l0.84,0.27l27.57,8.88L928.44,174.25z"/>
		<path class="st3" d="M897.87,164.83c-0.02-0.16-0.07-0.31-0.15-0.45l-0.02-0.02c-0.17-0.29-0.43-0.5-0.75-0.6
			c-0.03-0.01-0.07-0.02-0.11-0.02h0c0.06,0.64-0.01,1.28-0.21,1.89c-0.2,0.61-0.52,1.17-0.94,1.65c-0.42,0.48-0.94,0.87-1.52,1.14
			c-0.58,0.27-1.21,0.42-1.85,0.45l0,0c0.31,8.71-2.53,15.09-11.47,16.97l-0.07,0.1l0.04-0.11c-4.9-8.34,0.2-14.46,6.85-20.23
			c-0.29-0.91-0.3-1.88-0.03-2.79s0.82-1.72,1.56-2.32l0,0c-0.08-0.33-0.27-0.62-0.55-0.81c-0.24-0.17-0.53-0.26-0.82-0.25
			c-0.29,0.01-0.58,0.12-0.8,0.31l-1.05,0.85l-0.24,0.19l-0.03,0.03l-0.82,0.67l-0.3,0.24l-14.77,11.96
			c-5.4,4.36-8.89,10.65-9.72,17.53l-1.69,13.77l-1.22,9.91l15.02,7.4l7.12-7.01l9.73-9.59c5.05-4.95,7.99-11.67,8.19-18.74
			l0.63-20.85l0.01-0.46l0.02-0.55C897.89,165,897.88,164.91,897.87,164.83z"/>
		<path class="st5" d="M823.17,144.39c1.63,0,2.95-1.32,2.95-2.95c0-1.63-1.32-2.95-2.95-2.95c-1.63,0-2.95,1.32-2.95,2.95
			C820.22,143.07,821.54,144.39,823.17,144.39z"/>
		<path class="st5" d="M928.02,177.21c1.63,0,2.95-1.32,2.95-2.95c0-1.63-1.32-2.95-2.95-2.95c-1.63,0-2.95,1.32-2.95,2.95
			C925.08,175.9,926.4,177.21,928.02,177.21z"/>
		<path class="st6" d="M880.04,190.41c1.3,0,2.36-1.06,2.36-2.36c0-1.3-1.06-2.36-2.36-2.36c-1.3,0-2.36,1.06-2.36,2.36
			C877.69,189.35,878.74,190.41,880.04,190.41z"/>
		<path class="st8" d="M1078.98,200.01c-0.27-0.29-0.53-0.58-0.8-0.86c-6.66-7.01-15.37-11.16-23.5-11.16
			c-1.51,0-2.95,0.07-4.33,0.21c-5.71,0.56-10.28,2.28-13.7,5.16c-5.06,4.26-7.59,11.01-7.6,20.27c0,0.51-0.03,1.47-0.08,2.73
			c-0.3,7.39-1.4,25.38-2.38,28.04c-1.6,4.34-2.98,8.09-0.92,10.92c1.2,1.66,3.57,2.86,7.25,3.64c0.68,0.15,1.4,0.28,2.16,0.38
			c3.96,0.52,7.95,0.76,11.94,0.71c0.52,0,1.05,0,1.6-0.01h0.01c1.89-0.01,3.91-0.06,6.06-0.15c5.01-0.19,11.3-0.59,16.95-1.89h0.01
			c0.74-0.16,1.46-0.35,2.17-0.55l0.13-0.04l0.06-0.12c1.01-2.05,1.58-4.3,1.69-6.58c1.08,1.46,1.88,3.1,2.35,4.86l0.09,0.34
			l0.32-0.15c2.49-1.07,4.65-2.79,6.26-4.97c1.54-2.28,2.46-4.92,2.67-7.66C1088.18,235.68,1085.12,206.86,1078.98,200.01z"/>
		<path class="st8" d="M1080.96,439.35h-35.31l-5.92-29.29l-1.92,29.29H1005c-0.02-21.7-6.65-45.88,3.28-65.82
			c0.52-1.04,7.35-2.44,0.31-3.04l0.41-1.39l0.64-2.22l0.41-1.39c0,0,1.59-1.33,0.52-1.78c-1.07-0.45,0.55-1.87,0.55-1.87
			l5.72-19.66l0.54-1.85h40.88c2.35,2.21,4.52,4.61,6.49,7.17c0.67,0.85,1.36,1.77,2.07,2.76c0.49,0.7,1.01,1.44,1.52,2.21
			c4.56,6.78,7.96,14.27,10.08,22.16v0.01c0.36,1.35,0.68,2.73,0.96,4.14v0.01c0.25,1.26,0.46,2.53,0.64,3.83
			c0.13,0.95,0.24,1.91,0.32,2.88c0.49,5.39,0.32,10.81-0.51,16.16L1080.96,439.35z"/>
		<path class="st5" d="M1041.06,244.16l19.46-1l9.04,14.28c0,0,17,2.84,15.82,22.88c-1.18,20.04-20.69,37.62-20.69,37.62
			l14.98,43.44l-1.45,4.14l0.19,2.32l1.98,2.46l0.2,2.55l-1.75,4.03l2.38,3.86c-17.14,4.28-28.7-0.07-34.84-12.84
			c-7.03-17.56-18.88-19.23-33.34-12.29l2.16-19.4l2.67-3.58l-1.49-4.67l2.24-4.49l1.17-14.27c0,0-12.79-19.22,1.89-33.69
			l5.89-10.02l6.59-8.05L1041.06,244.16z"/>
		<path class="st4" d="M1050.73,240.13c11.39,0,20.62-9.23,20.62-20.62c0-11.39-9.23-20.62-20.62-20.62s-20.61,9.23-20.61,20.62
			C1030.12,230.89,1039.35,240.13,1050.73,240.13z"/>
		<path class="st8" d="M1064.28,193.88h-20.18c-2.44-0.57-4.96-0.75-7.45-0.52c-3.07,0.23-6,1.37-8.43,3.26
			c-3.61,2.9-5.6,7.52-5.6,13.01c0.01,1.76,0.19,3.51,0.54,5.23l0.04,0.18l0.18,0.05c1.86,0.48,3.73,0.9,5.6,1.27
			c0.45,0.09,0.9,0.18,1.36,0.26c2.45,0.45,4.9,0.81,7.34,1.07l0.14,0.02l0.1-0.09c1.74-1.6,3.12-3.55,4.05-5.72
			c0.55,1.91,0.69,3.91,0.43,5.88l-0.04,0.32l0.32,0.02c1.77,0.1,3.55,0.15,5.33,0.15c7.74-0.01,15.46-0.94,22.98-2.8
			c0.49-0.12,0.98-0.24,1.47-0.37l0.22-0.06v-12.78c0-2.22-0.88-4.35-2.45-5.92C1068.62,194.77,1066.5,193.88,1064.28,193.88z"/>
		<path class="st8" d="M1080.72,192.13c-0.39,3.84-2.22,7.4-5.12,9.95c-2.9,2.55-6.66,3.91-10.52,3.81
			c-3.86-0.1-7.54-1.66-10.3-4.36s-4.4-6.35-4.59-10.2c-0.19-3.86,1.09-7.65,3.57-10.6c2.49-2.96,6-4.87,9.83-5.34
			c3.83-0.48,7.71,0.51,10.84,2.77c3.14,2.26,5.3,5.62,6.07,9.4c-2.34,0.33-4.56,1.22-6.48,2.61c1.17-0.14,2.35-0.05,3.49,0.27
			c1.13,0.32,2.19,0.87,3.11,1.61C1080.65,192.07,1080.68,192.1,1080.72,192.13z"/>
		<path class="st6" d="M758.19,152.84c-1.27,0-2.51-0.38-3.56-1.08c-11.31-0.9-18.72-5.74-22.11-14.64
			c-0.74-0.49-1.37-1.13-1.85-1.87c-0.48-0.74-0.81-1.58-0.96-2.45c-0.15-0.88-0.12-1.77,0.09-2.64c0.21-0.86,0.6-1.67,1.14-2.38
			c1.04-1.31,2.53-2.18,4.19-2.44c1.65-0.25,3.34,0.13,4.72,1.08l1.19,0.79c0-1.26,0.38-2.48,1.07-3.53l0.08-0.12
			c0.41-0.61,1-1.08,1.69-1.33c0.69-0.25,1.45-0.27,2.15-0.06c0.75,0.21,1.42,0.65,1.91,1.26c0.49,0.61,0.77,1.36,0.81,2.14
			c0.02,0.3,0.05,0.6,0.11,0.9c0.21,1.06,0.66,2.05,1.32,2.89c0.67,0.85,1.52,1.52,2.5,1.97c0.98,0.45,2.05,0.66,3.12,0.61
			c1.07-0.05,2.12-0.35,3.06-0.88c0.56-0.32,1.2-0.49,1.84-0.5c0.65-0.01,1.29,0.15,1.85,0.47c0.52,0.28,0.95,0.69,1.26,1.18
			c0.31,0.5,0.48,1.07,0.49,1.65c0.05,1.3-0.3,2.59-1,3.69c-0.7,1.1-1.71,1.97-2.9,2.48l1.2,0.79c1.45,0.94,2.47,2.4,2.86,4.08
			c0.39,1.68,0.1,3.44-0.79,4.92c-0.46,0.73-1.06,1.36-1.77,1.85c-0.71,0.49-1.51,0.84-2.35,1.01
			C759.11,152.79,758.65,152.84,758.19,152.84z"/>
		<path class="st6" d="M869.48,232.87c-0.35,0-0.69-0.05-1.03-0.16c-0.66-0.2-1.25-0.59-1.7-1.12c-0.45-0.53-0.73-1.18-0.81-1.86
			l-0.01-0.08c-0.17-1.16-0.64-2.25-1.36-3.17c-0.72-0.92-1.67-1.64-2.75-2.09c-1.08-0.45-2.26-0.61-3.42-0.46
			c-1.16,0.14-2.26,0.58-3.2,1.28c-0.48,0.35-1.04,0.56-1.63,0.64c-0.59,0.07-1.18-0.01-1.73-0.23c-0.55-0.22-1.03-0.58-1.4-1.04
			c-0.37-0.46-0.62-1.01-0.72-1.59c-0.22-1.29-0.04-2.61,0.51-3.8c0.55-1.18,1.45-2.18,2.57-2.84l-1.47-0.73
			c-0.79-0.39-1.5-0.94-2.07-1.62c-0.57-0.68-1-1.46-1.26-2.31c-0.26-0.85-0.34-1.75-0.24-2.63c0.1-0.88,0.38-1.74,0.83-2.5
			c0.86-1.43,2.24-2.49,3.85-2.95c1.61-0.46,3.33-0.29,4.82,0.47c10.24-1.42,18.07,2.54,23.6,11.63c0.79,0.39,1.5,0.94,2.07,1.62
			c0.57,0.68,1,1.46,1.26,2.31c0.26,0.85,0.34,1.74,0.24,2.63c-0.1,0.88-0.38,1.74-0.83,2.5c-0.86,1.43-2.24,2.49-3.84,2.95
			c-1.61,0.46-3.33,0.29-4.82-0.47l-1.28-0.63c0.16,1.25-0.06,2.51-0.62,3.64c-0.26,0.52-0.58,1-0.96,1.44
			c-0.32,0.37-0.72,0.67-1.17,0.87C870.45,232.77,869.97,232.87,869.48,232.87z"/>
		<path class="st6" d="M984.18,319.1c-0.84,0.01-1.67-0.23-2.38-0.68c-0.71-0.46-1.27-1.11-1.62-1.88l-0.04-0.09
			c-0.5-1.15-0.66-2.43-0.44-3.66l-1.51,0.65c-0.79,0.34-1.64,0.53-2.5,0.54c-0.86,0.01-1.72-0.15-2.51-0.47
			c-0.8-0.32-1.52-0.8-2.14-1.41c-0.61-0.61-1.09-1.33-1.42-2.13c-0.62-1.61-0.6-3.39,0.07-4.98c0.67-1.59,1.94-2.85,3.52-3.52
			c4.22-9.75,11.96-13.62,23.94-10.4c1.52-0.69,3.25-0.77,4.84-0.24c1.58,0.54,2.91,1.65,3.7,3.12c0.41,0.79,0.65,1.65,0.71,2.54
			c0.06,0.89-0.07,1.78-0.37,2.61c-0.3,0.83-0.77,1.6-1.37,2.25c-0.61,0.65-1.34,1.17-2.15,1.52l-1.51,0.65
			c1.05,0.69,1.88,1.67,2.38,2.82c0.07,0.17,0.14,0.33,0.19,0.5c0.28,0.8,0.31,1.67,0.09,2.49c-0.22,0.82-0.67,1.56-1.3,2.12
			c-0.64,0.6-1.45,1-2.32,1.15c-0.87,0.15-1.76,0.03-2.56-0.33c-0.85-0.37-1.76-0.57-2.69-0.57h-0.03
			c-1.25,0.03-2.46,0.39-3.52,1.06c-1.06,0.66-1.91,1.6-2.48,2.71c-0.13,0.25-0.25,0.5-0.36,0.76c-0.32,0.83-0.88,1.55-1.62,2.06
			c-0.73,0.51-1.6,0.79-2.5,0.8C984.26,319.1,984.22,319.1,984.18,319.1z"/>
		<path class="st4" d="M1072.74,271.51c-1.41-0.41-2.9-0.47-4.34-0.19c-1.44,0.28-2.79,0.9-3.95,1.81
			c-1.15,0.91-2.07,2.08-2.68,3.42c-0.61,1.34-0.89,2.8-0.82,4.26l-22.77,46.08l-32.67-7.34c-0.68-1.78-1.9-3.3-3.49-4.35
			c-1.59-1.04-3.48-1.55-5.38-1.46c-1.9,0.09-3.73,0.79-5.21,1.98c-1.48,1.19-2.55,2.83-3.05,4.67c-0.5,1.84-0.4,3.79,0.28,5.57
			c0.68,1.78,1.9,3.3,3.5,4.34c1.6,1.04,3.48,1.55,5.38,1.45c1.9-0.1,3.72-0.79,5.21-1.99c7.77,4.48,42.99,23.78,50.47,10.55
			c6.28-11.13,26.54-47.98,26.18-60.2c-0.06-1.95-0.73-3.84-1.93-5.39C1076.28,273.18,1074.62,272.05,1072.74,271.51z"/>
		<path class="st5" d="M891.89,167.01c1.82,0,3.3-1.48,3.3-3.3c0-1.82-1.48-3.3-3.3-3.3c-1.82,0-3.3,1.48-3.3,3.3
			C888.59,165.54,890.06,167.01,891.89,167.01z"/>
	</g>
</g>
</svg>
