<svg width="315" height="280" viewBox="0 0 315 280" fill="none" xmlns="http://www.w3.org/2000/svg">
<path d="M126.6 156.388C107.719 156.388 86.0208 135.436 66.8231 145.391C8.69768 175.531 16.699 125.096 0 106.339L0.54823 105.239C18.9736 121.76 41.9783 135.202 67.0755 144.112C89.7555 152.163 112.606 155.894 133.147 154.91L133.183 156.231C131.013 156.336 128.819 156.388 126.6 156.388Z" fill="#F2F2F2"/>
<path d="M309.42 34.6127C294.369 46.012 264.422 42.4108 255.129 61.9372C226.991 121.058 202.918 76.0222 178.282 71.1519L178.055 69.9443C202.718 71.9899 229.172 68.816 254.558 60.7652C277.499 53.4904 297.966 42.6684 313.747 29.4813L314.573 30.5134C312.907 31.9066 311.189 33.2731 309.42 34.6127Z" fill="#F2F2F2"/>
<path d="M57.8342 68.4579C60.0138 68.4579 61.7807 66.0886 61.7807 63.1659C61.7807 60.2431 60.0138 57.8738 57.8342 57.8738C55.6546 57.8738 53.8877 60.2431 53.8877 63.1659C53.8877 66.0886 55.6546 68.4579 57.8342 68.4579Z" fill="#E6E6E6"/>
<path d="M223.687 117.98C225.867 117.98 227.634 115.611 227.634 112.688C227.634 109.765 225.867 107.396 223.687 107.396C221.508 107.396 219.741 109.765 219.741 112.688C219.741 115.611 221.508 117.98 223.687 117.98Z" fill="#E6E6E6"/>
<path d="M115.299 10.5842C117.478 10.5842 119.245 8.21481 119.245 5.29208C119.245 2.36934 117.478 0 115.299 0C113.119 0 111.352 2.36934 111.352 5.29208C111.352 8.21481 113.119 10.5842 115.299 10.5842Z" fill="#E6E6E6"/>
<path d="M186.052 187.347L181.463 159.747C181.37 159.188 181.504 158.616 181.833 158.155C182.162 157.695 182.661 157.383 183.219 157.29L204.063 153.824C204.622 153.732 205.194 153.865 205.655 154.194C206.116 154.523 206.427 155.022 206.52 155.58L211.11 183.18C211.202 183.739 211.069 184.311 210.74 184.772C210.41 185.232 209.912 185.544 209.353 185.637L188.509 189.103C187.951 189.196 187.378 189.062 186.918 188.733C186.457 188.404 186.146 187.905 186.052 187.347Z" fill="#3F3D56"/>
<path d="M186.264 178.745L183.314 161.001C183.227 160.478 183.352 159.942 183.661 159.51C183.969 159.079 184.436 158.787 184.959 158.7L202.872 155.721C203.396 155.635 203.932 155.759 204.363 156.068C204.795 156.376 205.086 156.843 205.174 157.366L209.258 181.926C209.344 182.449 209.22 182.985 208.911 183.417C208.603 183.848 208.136 184.14 207.613 184.227L196.516 186.073C194.185 186.457 191.797 185.902 189.875 184.528C187.953 183.155 186.655 181.074 186.264 178.745Z" fill="white"/>
<path d="M187.037 165.47C186.953 164.958 187.075 164.434 187.376 164.013C187.678 163.591 188.134 163.306 188.645 163.221L201.072 161.154C201.325 161.112 201.584 161.12 201.834 161.178C202.084 161.236 202.32 161.343 202.529 161.492C202.738 161.642 202.915 161.831 203.051 162.048C203.187 162.266 203.278 162.509 203.32 162.762C203.363 163.015 203.354 163.274 203.296 163.524C203.238 163.774 203.132 164.01 202.982 164.219C202.833 164.428 202.644 164.605 202.426 164.741C202.208 164.877 201.966 164.969 201.713 165.011L189.286 167.077C188.775 167.162 188.251 167.04 187.829 166.738C187.408 166.437 187.123 165.981 187.037 165.47Z" fill="#FC5185"/>
<path d="M188.035 171.469C187.951 170.957 188.073 170.433 188.374 170.012C188.676 169.59 189.132 169.305 189.643 169.22L202.07 167.153C202.323 167.111 202.582 167.119 202.832 167.177C203.082 167.235 203.318 167.342 203.527 167.491C203.736 167.641 203.913 167.83 204.049 168.047C204.185 168.265 204.276 168.508 204.318 168.761C204.361 169.014 204.352 169.273 204.294 169.523C204.236 169.773 204.13 170.009 203.98 170.218C203.831 170.427 203.642 170.604 203.424 170.74C203.207 170.876 202.964 170.968 202.711 171.01L190.284 173.076C189.773 173.161 189.249 173.039 188.827 172.737C188.406 172.436 188.121 171.98 188.035 171.469Z" fill="#FC5185"/>
<path d="M189.033 177.468C188.948 176.956 189.07 176.432 189.371 176.011C189.673 175.589 190.129 175.304 190.64 175.219L203.067 173.152C203.578 173.067 204.102 173.189 204.524 173.49C204.946 173.792 205.231 174.249 205.316 174.76C205.401 175.271 205.279 175.796 204.978 176.217C204.676 176.639 204.219 176.924 203.708 177.009L191.281 179.075C190.77 179.16 190.246 179.038 189.825 178.736C189.403 178.435 189.118 177.979 189.033 177.468Z" fill="#FC5185"/>
<path d="M176.641 161.333C176.098 160.722 175.696 160 175.462 159.216C175.229 158.433 175.17 157.608 175.29 156.8C175.41 155.991 175.706 155.219 176.156 154.537C176.607 153.855 177.202 153.28 177.898 152.853L170.628 118.234L180.264 121.939L185.843 155.013C186.483 156.231 186.654 157.641 186.323 158.977C185.993 160.313 185.184 161.481 184.049 162.26C182.915 163.039 181.535 163.375 180.169 163.204C178.804 163.034 177.548 162.368 176.641 161.333Z" fill="#FFB8B8"/>
<path d="M173.433 270.826H181.364L185.138 240.232H173.431L173.433 270.826Z" fill="#FFB6B6"/>
<path d="M171.409 268.236H173.642L182.358 264.692L187.03 268.236C189.671 268.236 192.202 269.285 194.069 271.152C195.936 273.018 196.985 275.55 196.985 278.19V278.514L171.41 278.515L171.409 268.236Z" fill="#2F2E41"/>
<path d="M101.763 260.514L108.862 264.052L125.887 238.354L115.41 233.132L101.763 260.514Z" fill="#FFB6B6"/>
<path d="M101.108 257.293L103.106 258.289L112.489 259.005L115.089 264.261C117.452 265.439 119.25 267.507 120.088 270.011C120.926 272.515 120.735 275.248 119.558 277.611L119.414 277.901L96.5234 266.493L101.108 257.293Z" fill="#2F2E41"/>
<path d="M176.947 131.878L126.514 133.194L127.391 157.752C127.391 157.752 126.514 164.33 128.269 166.085C130.023 167.839 130.9 167.839 130.023 170.909C129.146 173.978 126.878 203.31 126.878 203.31C126.878 203.31 106.179 239.909 107.056 240.786C107.933 241.663 108.81 240.786 107.933 242.979C107.056 245.172 106.179 244.294 107.056 245.172C107.833 246.009 108.565 246.888 109.249 247.803H123.544C123.544 247.803 124.343 243.417 124.343 242.979C124.343 242.54 125.22 239.909 125.22 239.47C125.22 239.032 150.196 212.57 150.196 212.57L155.458 168.716L168.176 211.693C168.176 211.693 168.176 249.408 169.053 250.285C169.93 251.162 169.93 250.724 169.492 252.478C169.053 254.232 167.299 253.794 168.615 255.109C169.93 256.425 170.369 254.232 169.93 256.425L169.492 258.618L186.34 258.806C186.34 258.806 188.095 255.109 187.217 253.794C186.34 252.478 186.393 252.837 187.463 250.684C188.533 248.531 188.972 248.093 188.533 247.654C188.095 247.216 188.095 244.883 188.095 244.883C188.095 244.883 181.771 158.629 181.771 157.314C181.738 156.637 181.863 155.961 182.135 155.341V153.555L180.455 147.227L176.947 131.878Z" fill="#2F2E41"/>
<path d="M222.41 254.344L222.845 244.56C227.381 242.135 232.441 240.854 237.584 240.829C230.505 246.616 231.39 257.773 226.59 265.556C225.075 267.972 223.035 270.017 220.622 271.537C218.209 273.058 215.485 274.016 212.652 274.34L206.727 277.967C205.915 273.436 206.094 268.782 207.253 264.326C208.412 259.87 210.523 255.718 213.441 252.157C215.098 250.175 216.997 248.41 219.095 246.903C220.514 250.645 222.41 254.344 222.41 254.344Z" fill="#F2F2F2"/>
<path d="M150.832 45.7511L176.094 96.839L171.152 158.841L138.871 155.892L133.083 53.2122L150.832 45.7511Z" fill="#2F2E41"/>
<path d="M186.304 151.996L171.543 150.647L171.52 150.459L161.614 68.4398L163.831 62.2936C164.362 60.8344 165.26 59.5372 166.44 58.5281C167.62 57.519 169.041 56.8323 170.565 56.5347C171.726 56.3111 172.92 56.3192 174.077 56.559C175.235 56.7987 176.334 57.2652 177.31 57.9315C178.287 58.5977 179.122 59.4507 179.768 60.4411C180.413 61.4316 180.856 62.54 181.072 63.7025L183.723 78.0213L187.483 126.423L186.304 151.996Z" fill="#2F2E41"/>
<path d="M147.873 53.3274L150.85 46.2048L160.063 46.3666L169.671 59.9569L179.755 102.365C179.755 102.365 183.377 133.344 179.755 134.98C176.133 136.615 163.857 134.595 163.857 134.595L147.873 53.3274Z" fill="#FC5185"/>
<path d="M160.063 46.3666C160.063 46.3666 179.911 57.8397 180.687 63.8287C181.463 69.8177 184.062 143.12 184.062 143.12L177.044 138.584L175.125 111.868L166.559 57.1703L160.063 46.3666Z" fill="#2F2E41"/>
<path d="M155.378 43.0295C162.849 43.0295 168.905 36.9733 168.905 29.5026C168.905 22.0319 162.849 15.9758 155.378 15.9758C147.907 15.9758 141.851 22.0319 141.851 29.5026C141.851 36.9733 147.907 43.0295 155.378 43.0295Z" fill="#FFB8B8"/>
<path d="M140.035 20.6146C141.554 18.2647 144.404 16.6986 147.167 17.1387C147.425 15.3753 148.161 13.7162 149.295 12.3421C150.43 10.968 151.92 9.9316 153.603 9.3458C155.286 8.7599 157.098 8.647 158.841 9.0193C160.583 9.3917 162.191 10.2351 163.487 11.4576C163.914 11.1574 164.41 10.9724 164.929 10.9204C165.448 10.8685 165.972 10.9514 166.449 11.1612C167.4 11.5936 168.227 12.2577 168.855 13.0927C170.441 15.07 171.461 17.4403 171.806 19.9511C172.151 22.462 171.809 25.0195 170.817 27.3515C171.154 26.1238 169.924 24.9689 168.681 24.6934C167.438 24.4179 166.134 24.6785 164.873 24.4991C163.258 24.2692 161.805 23.332 160.187 23.121C158.827 22.9438 157.46 23.2924 156.133 23.642C154.807 23.9914 153.443 24.3478 152.081 24.1861C150.719 24.0244 148.965 29.1858 148.988 32.8212C148.993 33.5101 148.851 34.3946 148.178 34.5408C147.349 34.7208 146.868 33.5765 146.079 33.2647C145.715 33.1604 145.325 33.2015 144.991 33.3791C144.657 33.5567 144.405 33.8571 144.288 34.2169C144.189 34.5828 144.178 34.967 144.257 35.3378C144.336 35.7086 144.503 36.0551 144.743 36.3485C145.228 36.9302 145.804 37.4298 146.448 37.8279L146.123 38.0982C145.582 38.8124 144.461 38.8433 143.682 38.4015C142.936 37.8968 142.333 37.2097 141.929 36.4056C140.487 34.0077 139.222 31.4528 138.714 28.7015C138.205 25.9502 138.516 22.9644 140.035 20.6146Z" fill="#2F2E41"/>
<path d="M110.571 120.794L137.596 91.7998C138.144 91.2135 138.901 90.8685 139.703 90.8403C140.505 90.8121 141.285 91.1031 141.873 91.6494L163.769 112.059C164.356 112.607 164.701 113.365 164.729 114.166C164.757 114.968 164.466 115.748 163.92 116.336L136.895 145.329C136.347 145.916 135.589 146.261 134.788 146.289C133.986 146.317 133.206 146.026 132.618 145.48L110.722 125.07C110.135 124.522 109.79 123.765 109.762 122.963C109.734 122.161 110.025 121.381 110.571 120.794Z" fill="#E6E6E6"/>
<path d="M120.413 113.602L137.787 94.962C138.3 94.413 139.01 94.09 139.761 94.063C140.512 94.037 141.242 94.31 141.793 94.821L160.611 112.362C161.16 112.874 161.483 113.584 161.51 114.335C161.536 115.086 161.263 115.817 160.752 116.367L136.703 142.167C136.191 142.716 135.481 143.039 134.73 143.066C133.979 143.092 133.248 142.82 132.698 142.308L121.041 131.442C118.595 129.157 117.156 125.996 117.038 122.652C116.921 119.307 118.134 116.052 120.413 113.602Z" fill="white"/>
<path d="M135.987 103.003C136.488 102.466 137.182 102.15 137.915 102.125C138.649 102.099 139.363 102.365 139.901 102.865L152.955 115.033C153.492 115.534 153.808 116.227 153.834 116.961C153.86 117.695 153.593 118.409 153.092 118.947C152.592 119.484 151.898 119.8 151.164 119.826C150.43 119.852 149.716 119.585 149.179 119.084L136.124 106.917C135.588 106.415 135.272 105.722 135.246 104.988C135.221 104.254 135.487 103.54 135.987 103.003Z" fill="#E6E6E6"/>
<path d="M130.112 109.305C130.614 108.768 131.307 108.453 132.041 108.427C132.775 108.401 133.489 108.667 134.026 109.167L147.08 121.335C147.346 121.583 147.561 121.881 147.712 122.212C147.863 122.543 147.947 122.9 147.96 123.263C147.973 123.627 147.914 123.989 147.786 124.33C147.659 124.671 147.466 124.983 147.218 125.249C146.97 125.515 146.672 125.729 146.341 125.88C146.01 126.031 145.653 126.115 145.29 126.128C144.926 126.141 144.564 126.082 144.223 125.955C143.882 125.827 143.57 125.634 143.304 125.386L130.25 113.219C129.713 112.717 129.398 112.024 129.372 111.29C129.346 110.556 129.612 109.842 130.112 109.305Z" fill="#E6E6E6"/>
<path d="M124.239 115.607C124.74 115.07 125.434 114.755 126.167 114.729C126.901 114.703 127.615 114.969 128.153 115.469L141.207 127.637C141.744 128.138 142.06 128.832 142.086 129.565C142.112 130.299 141.845 131.014 141.344 131.551C140.844 132.088 140.15 132.404 139.416 132.43C138.682 132.456 137.968 132.189 137.431 131.688L124.376 119.521C123.84 119.019 123.524 118.326 123.498 117.592C123.473 116.858 123.739 116.144 124.239 115.607Z" fill="#E6E6E6"/>
<path d="M156.001 150.165L146.658 163.543L146.223 164.068C145.466 164.978 144.421 165.602 143.26 165.836C143.096 165.869 142.931 165.894 142.765 165.911C142.561 165.931 142.355 165.94 142.149 165.936C142.032 165.934 141.914 165.927 141.797 165.917C141.115 165.858 140.452 165.665 139.845 165.348L135.859 162.564C135.542 162.343 135.315 162.014 135.222 161.639C135.175 161.453 135.162 161.261 135.183 161.071C135.212 160.804 135.308 160.549 135.462 160.329L146.967 143.856C147.211 143.507 147.584 143.269 148.003 143.195C148.422 143.12 148.853 143.215 149.203 143.459L155.604 147.929C155.62 147.94 155.634 147.951 155.649 147.962C155.659 147.969 155.668 147.976 155.677 147.984C155.69 147.993 155.703 148.003 155.714 148.014C155.73 148.026 155.745 148.039 155.76 148.053C155.773 148.065 155.787 148.077 155.8 148.09L155.808 148.097C155.825 148.114 155.841 148.13 155.857 148.147C155.873 148.164 155.888 148.181 155.903 148.199C155.914 148.211 155.925 148.224 155.936 148.237L155.937 148.239C155.967 148.277 155.997 148.317 156.024 148.359C156.033 148.371 156.041 148.384 156.049 148.397L156.052 148.403C156.059 148.414 156.065 148.424 156.071 148.435C156.09 148.466 156.107 148.499 156.124 148.532C156.151 148.587 156.174 148.643 156.195 148.7C156.202 148.718 156.208 148.737 156.214 148.756C156.219 148.771 156.223 148.786 156.227 148.802L156.229 148.805L156.23 148.811C156.234 148.825 156.238 148.838 156.241 148.852C156.248 148.877 156.254 148.903 156.259 148.93C156.26 148.937 156.262 148.944 156.263 148.951C156.265 148.958 156.266 148.966 156.267 148.973C156.269 148.98 156.27 148.987 156.271 148.994L156.273 149.006C156.276 149.027 156.279 149.048 156.281 149.069C156.284 149.096 156.286 149.123 156.288 149.149C156.289 149.171 156.29 149.193 156.29 149.215C156.291 149.235 156.291 149.254 156.291 149.274C156.291 149.279 156.29 149.284 156.29 149.289C156.29 149.309 156.289 149.33 156.288 149.35C156.284 149.401 156.278 149.452 156.271 149.502C156.267 149.521 156.264 149.539 156.26 149.557C156.256 149.58 156.251 149.602 156.246 149.624C156.244 149.632 156.242 149.641 156.24 149.649C156.237 149.661 156.233 149.673 156.23 149.685C156.226 149.699 156.222 149.712 156.218 149.725L156.207 149.757C156.201 149.777 156.194 149.795 156.187 149.813C156.183 149.825 156.179 149.836 156.174 149.847C156.142 149.927 156.103 150.004 156.059 150.077C156.053 150.086 156.048 150.095 156.042 150.104C156.029 150.125 156.015 150.145 156.001 150.165Z" fill="white"/>
<path d="M149.674 150.673C150.432 150.673 151.046 150.059 151.046 149.302C151.046 148.544 150.432 147.93 149.674 147.93C148.917 147.93 148.303 148.544 148.303 149.302C148.303 150.059 148.917 150.673 149.674 150.673Z" fill="#FC5185"/>
<path d="M134.181 163.795C133.638 163.184 133.235 162.461 133.002 161.678C132.769 160.895 132.71 160.07 132.83 159.261C132.949 158.453 133.245 157.68 133.696 156.999C134.146 156.317 134.741 155.742 135.438 155.315L128.167 120.696L137.804 124.401L143.383 157.474C144.023 158.692 144.193 160.103 143.863 161.439C143.532 162.774 142.723 163.943 141.589 164.722C140.455 165.501 139.074 165.837 137.709 165.666C136.343 165.495 135.088 164.829 134.181 163.795Z" fill="#FFB8B8"/>
<path d="M128.842 149.747L124.92 124.478L123.446 75.9482L124.541 61.4026C124.63 60.2237 124.952 59.0741 125.487 58.0199C126.022 56.9658 126.76 56.0279 127.659 55.2604C128.559 54.4929 129.601 53.9109 130.726 53.548C131.851 53.1851 133.037 53.0484 134.215 53.1458C135.762 53.2776 137.249 53.8074 138.531 54.6836C139.812 55.5599 140.846 56.7528 141.53 58.1464L144.395 64.0184L143.372 146.816L128.842 149.747Z" fill="#2F2E41"/>
<path d="M252.197 278.433C252.197 278.528 252.178 278.623 252.142 278.711C252.106 278.799 252.052 278.879 251.985 278.947C251.917 279.014 251.837 279.068 251.749 279.104C251.661 279.14 251.566 279.159 251.471 279.159H56.1622C55.9697 279.159 55.7852 279.082 55.6491 278.946C55.513 278.81 55.4365 278.625 55.4365 278.433C55.4365 278.24 55.513 278.056 55.6491 277.92C55.7852 277.784 55.9697 277.707 56.1622 277.707H251.471C251.566 277.707 251.661 277.726 251.749 277.762C251.837 277.798 251.917 277.852 251.985 277.919C252.052 277.987 252.106 278.067 252.142 278.155C252.178 278.243 252.197 278.338 252.197 278.433Z" fill="#CCCCCC"/>
<path d="M144.785 34.9855C144.794 34.8323 144.84 34.6836 144.919 34.5524C144.999 34.4213 145.11 34.3118 145.241 34.2335C145.373 34.1553 145.523 34.1107 145.676 34.1038C145.829 34.0969 145.982 34.1278 146.12 34.1939C146.259 34.2599 146.379 34.359 146.47 34.4824C146.561 34.6059 146.62 34.7498 146.642 34.9016C146.665 35.0534 146.649 35.2084 146.598 35.3528C146.546 35.4972 146.459 35.6266 146.345 35.7296L147.916 38.3103C147.98 38.4162 148 38.5433 147.971 38.6637C147.941 38.7841 147.866 38.8879 147.76 38.9523C147.654 39.0167 147.527 39.0364 147.406 39.0071C147.286 38.9778 147.182 38.9019 147.118 38.7961L145.352 35.8943C145.175 35.8196 145.026 35.6922 144.925 35.5295C144.823 35.3669 144.775 35.1769 144.785 34.9855Z" fill="white"/>
<path d="M145.888 36.7399C145.946 36.8551 146.086 36.9014 146.202 36.8433C146.317 36.7852 146.363 36.6447 146.305 36.5295L145.884 35.6953C145.826 35.5801 145.686 35.5338 145.57 35.5919C145.455 35.65 145.409 35.7904 145.467 35.9056L145.888 36.7399Z" fill="#2F2E41"/>
</svg>
