<svg width="270" height="288" viewBox="0 0 270 288" fill="none" xmlns="http://www.w3.org/2000/svg">
<path d="M126.6 164.388C107.719 164.388 86.0208 143.436 66.8231 153.391C8.69768 183.531 16.699 133.096 0 114.339L0.54823 113.239C18.9736 129.76 41.9783 143.202 67.0755 152.112C89.7555 160.163 112.606 163.894 133.147 162.91L133.183 164.231C131.013 164.336 128.819 164.388 126.6 164.388Z" fill="#F2F2F2"/>
<path d="M264.42 42.6127C249.369 54.012 219.422 50.4108 210.129 69.9372C181.991 129.058 157.918 84.0222 133.282 79.1519L133.055 77.9443C157.718 79.9899 184.172 76.816 209.558 68.7652C232.499 61.4904 252.966 50.6684 268.747 37.4813L269.573 38.5134C267.907 39.9066 266.189 41.2731 264.42 42.6127Z" fill="#F2F2F2"/>
<path d="M41.8342 76.4579C44.0138 76.4579 45.7807 74.0886 45.7807 71.1659C45.7807 68.2431 44.0138 65.8738 41.8342 65.8738C39.6546 65.8738 37.8877 68.2431 37.8877 71.1659C37.8877 74.0886 39.6546 76.4579 41.8342 76.4579Z" fill="#E6E6E6"/>
<path d="M207.687 125.98C209.867 125.98 211.634 123.611 211.634 120.688C211.634 117.765 209.867 115.396 207.687 115.396C205.508 115.396 203.741 117.765 203.741 120.688C203.741 123.611 205.508 125.98 207.687 125.98Z" fill="#E6E6E6"/>
<path d="M99.2986 10.5842C101.478 10.5842 103.245 8.21481 103.245 5.29208C103.245 2.36934 101.478 0 99.2986 0C97.119 0 95.3521 2.36934 95.3521 5.29208C95.3521 8.21481 97.119 10.5842 99.2986 10.5842Z" fill="#E6E6E6"/>
<path d="M170.052 195.347L165.463 167.747C165.37 167.188 165.504 166.616 165.833 166.155C166.162 165.695 166.661 165.383 167.219 165.29L188.063 161.824C188.622 161.732 189.194 161.865 189.655 162.194C190.116 162.523 190.427 163.022 190.52 163.58L195.11 191.18C195.202 191.739 195.069 192.311 194.74 192.772C194.41 193.232 193.912 193.544 193.353 193.637L172.509 197.103C171.951 197.196 171.378 197.062 170.918 196.733C170.457 196.404 170.146 195.905 170.052 195.347Z" fill="#3F3D56"/>
<path d="M170.264 186.745L167.314 169.001C167.227 168.478 167.352 167.942 167.661 167.51C167.969 167.079 168.436 166.787 168.959 166.7L186.872 163.721C187.396 163.635 187.932 163.759 188.363 164.068C188.795 164.376 189.086 164.843 189.174 165.366L193.258 189.926C193.344 190.449 193.22 190.985 192.911 191.417C192.603 191.848 192.136 192.14 191.613 192.227L180.516 194.073C178.185 194.457 175.797 193.902 173.875 192.528C171.953 191.155 170.655 189.074 170.264 186.745Z" fill="white"/>
<path d="M171.037 173.47C170.953 172.958 171.075 172.434 171.376 172.013C171.678 171.591 172.134 171.306 172.645 171.221L185.072 169.154C185.325 169.112 185.584 169.12 185.834 169.178C186.084 169.236 186.32 169.343 186.529 169.492C186.738 169.642 186.915 169.831 187.051 170.048C187.187 170.266 187.278 170.509 187.32 170.762C187.363 171.015 187.354 171.274 187.296 171.524C187.238 171.774 187.132 172.01 186.982 172.219C186.833 172.428 186.644 172.605 186.426 172.741C186.208 172.877 185.966 172.969 185.713 173.011L173.286 175.077C172.775 175.162 172.251 175.04 171.829 174.738C171.408 174.437 171.123 173.981 171.037 173.47Z" fill="#FC5185"/>
<path d="M172.035 179.469C171.951 178.957 172.073 178.433 172.374 178.012C172.676 177.59 173.132 177.305 173.643 177.22L186.07 175.153C186.323 175.111 186.582 175.119 186.832 175.177C187.082 175.235 187.318 175.342 187.527 175.491C187.736 175.641 187.913 175.83 188.049 176.047C188.185 176.265 188.276 176.508 188.318 176.761C188.361 177.014 188.352 177.273 188.294 177.523C188.236 177.773 188.13 178.009 187.98 178.218C187.831 178.427 187.642 178.604 187.424 178.74C187.207 178.876 186.964 178.968 186.711 179.01L174.284 181.076C173.773 181.161 173.249 181.039 172.827 180.737C172.406 180.436 172.121 179.98 172.035 179.469Z" fill="#FC5185"/>
<path d="M173.033 185.468C172.948 184.956 173.07 184.432 173.371 184.011C173.673 183.589 174.129 183.304 174.64 183.219L187.067 181.152C187.578 181.067 188.102 181.189 188.524 181.49C188.946 181.792 189.231 182.249 189.316 182.76C189.401 183.271 189.279 183.796 188.978 184.217C188.676 184.639 188.219 184.924 187.708 185.009L175.281 187.075C174.77 187.16 174.246 187.038 173.825 186.736C173.403 186.435 173.118 185.979 173.033 185.468Z" fill="#FC5185"/>
<path d="M160.641 169.333C160.098 168.722 159.696 168 159.462 167.216C159.229 166.433 159.17 165.608 159.29 164.8C159.41 163.991 159.706 163.219 160.156 162.537C160.607 161.855 161.202 161.28 161.898 160.853L154.628 126.234L164.264 129.939L169.843 163.013C170.483 164.231 170.654 165.641 170.323 166.977C169.993 168.313 169.184 169.481 168.049 170.26C166.915 171.039 165.535 171.375 164.169 171.204C162.804 171.034 161.548 170.368 160.641 169.333Z" fill="#FFB8B8"/>
<path d="M157.433 278.826L165.364 278.826L169.138 248.232L157.431 248.232L157.433 278.826Z" fill="#FFB6B6"/>
<path d="M155.409 276.236L157.642 276.236L166.358 272.692L171.03 276.236H171.03C173.671 276.236 176.202 277.285 178.069 279.152C179.936 281.018 180.985 283.55 180.985 286.19V286.514L155.41 286.515L155.409 276.236Z" fill="#2F2E41"/>
<path d="M85.7632 268.514L92.8621 272.052L109.887 246.354L99.4098 241.132L85.7632 268.514Z" fill="#FFB6B6"/>
<path d="M85.1081 265.293L87.1063 266.289L96.4886 267.005L99.0887 272.261L99.0892 272.261C101.452 273.439 103.25 275.507 104.088 278.011C104.926 280.515 104.735 283.248 103.558 285.611L103.414 285.901L80.5234 274.493L85.1081 265.293Z" fill="#2F2E41"/>
<path d="M160.947 139.878L110.514 141.194L111.391 165.752C111.391 165.752 110.514 172.33 112.269 174.085C114.023 175.839 114.9 175.839 114.023 178.909C113.146 181.978 110.878 211.31 110.878 211.31C110.878 211.31 90.1791 247.909 91.0562 248.786C91.9333 249.663 92.8104 248.786 91.9333 250.979C91.0562 253.172 90.1791 252.294 91.0562 253.172C91.8331 254.009 92.5651 254.888 93.2489 255.803H107.544C107.544 255.803 108.343 251.417 108.343 250.979C108.343 250.54 109.22 247.909 109.22 247.47C109.22 247.032 134.196 220.57 134.196 220.57L139.458 176.716L152.176 219.693C152.176 219.693 152.176 257.408 153.053 258.285C153.93 259.162 153.93 258.724 153.492 260.478C153.053 262.232 151.299 261.794 152.615 263.109C153.93 264.425 154.369 262.232 153.93 264.425L153.492 266.618L170.34 266.806C170.34 266.806 172.095 263.109 171.217 261.794C170.34 260.478 170.393 260.837 171.463 258.684C172.533 256.531 172.972 256.093 172.533 255.654C172.095 255.216 172.095 252.883 172.095 252.883C172.095 252.883 165.771 166.629 165.771 165.314C165.738 164.637 165.863 163.961 166.135 163.341V161.555L164.455 155.227L160.947 139.878Z" fill="#2F2E41"/>
<path d="M206.41 262.344L206.845 252.56C211.381 250.135 216.441 248.854 221.584 248.829C214.505 254.616 215.39 265.773 210.59 273.556C209.075 275.972 207.035 278.017 204.622 279.537C202.209 281.058 199.485 282.016 196.652 282.34L190.727 285.967C189.915 281.436 190.094 276.782 191.253 272.326C192.412 267.87 194.523 263.718 197.441 260.157C199.098 258.175 200.997 256.41 203.095 254.903C204.514 258.645 206.41 262.344 206.41 262.344Z" fill="#F2F2F2"/>
<path d="M134.832 53.7511L160.094 104.839L155.152 166.841L122.871 163.892L117.083 61.2122L134.832 53.7511Z" fill="#2F2E41"/>
<path d="M170.304 159.996L155.543 158.647L155.52 158.459L145.614 76.4398L147.831 70.2936C148.362 68.8344 149.26 67.5372 150.44 66.5281C151.62 65.519 153.041 64.8323 154.565 64.5347C155.726 64.3111 156.92 64.3192 158.077 64.559C159.235 64.7987 160.334 65.2652 161.31 65.9315C162.287 66.5977 163.122 67.4507 163.768 68.4411C164.413 69.4316 164.856 70.54 165.072 71.7025L167.723 86.0213L171.483 134.423L170.304 159.996Z" fill="#2F2E41"/>
<path d="M131.873 61.3274L134.85 54.2048L144.063 54.3666L153.671 67.9569L163.755 110.365C163.755 110.365 167.377 141.344 163.755 142.98C160.133 144.615 147.857 142.595 147.857 142.595L131.873 61.3274Z" fill="#FC5185"/>
<path d="M144.063 54.3666C144.063 54.3666 163.911 65.8397 164.687 71.8287C165.463 77.8177 168.062 151.12 168.062 151.12L161.044 146.584L159.125 119.868L150.559 65.1703L144.063 54.3666Z" fill="#2F2E41"/>
<path d="M139.378 51.0295C146.849 51.0295 152.905 44.9733 152.905 37.5026C152.905 30.0319 146.849 23.9758 139.378 23.9758C131.907 23.9758 125.851 30.0319 125.851 37.5026C125.851 44.9733 131.907 51.0295 139.378 51.0295Z" fill="#FFB8B8"/>
<path d="M124.035 28.6146C125.554 26.2647 128.404 24.6986 131.167 25.1387C131.425 23.3753 132.161 21.7162 133.295 20.3421C134.43 18.968 135.92 17.9316 137.603 17.3458C139.286 16.7599 141.098 16.647 142.841 17.0193C144.583 17.3917 146.191 18.2351 147.487 19.4576C147.914 19.1574 148.41 18.9724 148.929 18.9204C149.448 18.8685 149.972 18.9514 150.449 19.1612C151.4 19.5936 152.227 20.2577 152.855 21.0927C154.441 23.07 155.461 25.4403 155.806 27.9511C156.151 30.462 155.809 33.0195 154.817 35.3515C155.154 34.1238 153.924 32.9689 152.681 32.6934C151.438 32.4179 150.134 32.6785 148.873 32.4991C147.258 32.2692 145.805 31.332 144.187 31.121C142.827 30.9438 141.46 31.2924 140.133 31.642C138.807 31.9914 137.443 32.3478 136.081 32.1861C134.719 32.0244 132.965 37.1858 132.988 40.8212C132.993 41.5101 132.851 42.3946 132.178 42.5408C131.349 42.7208 130.868 41.5765 130.079 41.2647C129.715 41.1604 129.325 41.2015 128.991 41.3791C128.657 41.5567 128.405 41.8571 128.288 42.2169C128.189 42.5828 128.178 42.967 128.257 43.3378C128.336 43.7086 128.503 44.0551 128.743 44.3485C129.228 44.9302 129.804 45.4298 130.448 45.8279L130.123 46.0982C129.582 46.8124 128.461 46.8433 127.682 46.4015C126.936 45.8968 126.333 45.2097 125.929 44.4056C124.487 42.0077 123.222 39.4528 122.714 36.7015C122.205 33.9502 122.516 30.9644 124.035 28.6146Z" fill="#2F2E41"/>
<path d="M94.5713 128.794L121.596 99.7998C122.144 99.2135 122.901 98.8685 123.703 98.8403C124.505 98.8121 125.285 99.1031 125.873 99.6494L147.769 120.059C148.356 120.607 148.701 121.365 148.729 122.166C148.757 122.968 148.466 123.748 147.92 124.336L120.895 153.329C120.347 153.916 119.589 154.261 118.788 154.289C117.986 154.317 117.206 154.026 116.618 153.48L94.7216 133.07C94.1354 132.522 93.7903 131.765 93.7621 130.963C93.7339 130.161 94.025 129.381 94.5713 128.794Z" fill="#E6E6E6"/>
<path d="M104.413 121.602L121.787 102.962C122.3 102.413 123.01 102.09 123.761 102.063C124.512 102.037 125.242 102.31 125.793 102.821L144.611 120.362C145.16 120.874 145.483 121.584 145.51 122.335C145.536 123.086 145.263 123.817 144.752 124.367L120.703 150.167C120.191 150.716 119.481 151.039 118.73 151.066C117.979 151.092 117.248 150.82 116.698 150.308L105.041 139.442C102.595 137.157 101.156 133.996 101.038 130.652C100.921 127.307 102.134 124.052 104.413 121.602Z" fill="white"/>
<path d="M119.987 111.003C120.488 110.466 121.182 110.15 121.915 110.125C122.649 110.099 123.363 110.365 123.901 110.865L136.955 123.033C137.492 123.534 137.808 124.227 137.834 124.961C137.86 125.695 137.593 126.409 137.092 126.947C136.592 127.484 135.898 127.8 135.164 127.826C134.43 127.852 133.716 127.585 133.179 127.084L120.124 114.917C119.588 114.415 119.272 113.722 119.246 112.988C119.221 112.254 119.487 111.54 119.987 111.003Z" fill="#E6E6E6"/>
<path d="M114.112 117.305C114.614 116.768 115.307 116.453 116.041 116.427C116.775 116.401 117.489 116.667 118.026 117.167L131.08 129.335C131.346 129.583 131.561 129.881 131.712 130.212C131.863 130.543 131.947 130.9 131.96 131.263C131.973 131.627 131.914 131.989 131.786 132.33C131.659 132.671 131.466 132.983 131.218 133.249C130.97 133.515 130.672 133.729 130.341 133.88C130.01 134.031 129.653 134.115 129.29 134.128C128.926 134.141 128.564 134.082 128.223 133.955C127.882 133.827 127.57 133.634 127.304 133.386L114.25 121.219C113.713 120.717 113.398 120.024 113.372 119.29C113.346 118.556 113.612 117.842 114.112 117.305Z" fill="#E6E6E6"/>
<path d="M108.239 123.607C108.74 123.07 109.434 122.755 110.167 122.729C110.901 122.703 111.615 122.969 112.153 123.469L125.207 135.637C125.744 136.138 126.06 136.832 126.086 137.565C126.112 138.299 125.845 139.014 125.344 139.551C124.844 140.088 124.15 140.404 123.416 140.43C122.682 140.456 121.968 140.189 121.431 139.688L108.376 127.521C107.84 127.019 107.524 126.326 107.498 125.592C107.473 124.858 107.739 124.144 108.239 123.607Z" fill="#E6E6E6"/>
<path d="M140.001 158.165L130.658 171.543L130.223 172.068C129.466 172.978 128.421 173.602 127.26 173.836C127.096 173.869 126.931 173.894 126.765 173.911C126.561 173.931 126.355 173.94 126.149 173.936C126.032 173.934 125.914 173.927 125.797 173.917C125.115 173.858 124.452 173.665 123.845 173.348L119.859 170.564C119.542 170.343 119.315 170.014 119.222 169.639C119.175 169.453 119.162 169.261 119.183 169.071C119.212 168.804 119.308 168.549 119.462 168.329L130.967 151.856C131.211 151.507 131.584 151.269 132.003 151.195C132.422 151.12 132.853 151.215 133.203 151.459L139.604 155.929C139.62 155.94 139.634 155.951 139.649 155.962C139.659 155.969 139.668 155.976 139.677 155.984C139.69 155.993 139.703 156.003 139.714 156.014C139.73 156.026 139.745 156.039 139.76 156.053C139.773 156.065 139.787 156.077 139.8 156.09L139.808 156.097C139.825 156.114 139.841 156.13 139.857 156.147C139.873 156.164 139.888 156.181 139.903 156.199C139.914 156.211 139.925 156.224 139.936 156.237L139.937 156.239C139.967 156.277 139.997 156.317 140.024 156.359C140.033 156.371 140.041 156.384 140.049 156.397L140.052 156.403C140.059 156.414 140.065 156.424 140.071 156.435C140.09 156.466 140.107 156.499 140.124 156.532C140.151 156.587 140.174 156.643 140.195 156.7C140.202 156.718 140.208 156.737 140.214 156.756C140.219 156.771 140.223 156.786 140.227 156.802L140.229 156.805L140.23 156.811C140.234 156.825 140.238 156.838 140.241 156.852C140.248 156.877 140.254 156.903 140.259 156.93C140.26 156.937 140.262 156.944 140.263 156.951C140.265 156.958 140.266 156.966 140.267 156.973C140.269 156.98 140.27 156.987 140.271 156.994L140.273 157.006C140.276 157.027 140.279 157.048 140.281 157.069C140.284 157.096 140.286 157.123 140.288 157.149C140.289 157.171 140.29 157.193 140.29 157.215C140.291 157.235 140.291 157.254 140.291 157.274C140.291 157.279 140.29 157.284 140.29 157.289C140.29 157.309 140.289 157.33 140.288 157.35C140.284 157.401 140.278 157.452 140.271 157.502C140.267 157.521 140.264 157.539 140.26 157.557C140.256 157.58 140.251 157.602 140.246 157.624C140.244 157.632 140.242 157.641 140.24 157.649C140.237 157.661 140.233 157.673 140.23 157.685C140.226 157.699 140.222 157.712 140.218 157.725L140.207 157.757C140.201 157.777 140.194 157.795 140.187 157.813C140.183 157.825 140.179 157.836 140.174 157.847C140.142 157.927 140.103 158.004 140.059 158.077C140.053 158.086 140.048 158.095 140.042 158.104C140.029 158.125 140.015 158.145 140.001 158.165Z" fill="white"/>
<path d="M133.674 158.673C134.432 158.673 135.046 158.059 135.046 157.302C135.046 156.544 134.432 155.93 133.674 155.93C132.917 155.93 132.303 156.544 132.303 157.302C132.303 158.059 132.917 158.673 133.674 158.673Z" fill="#FC5185"/>
<path d="M118.181 171.795C117.638 171.184 117.235 170.461 117.002 169.678C116.769 168.895 116.71 168.07 116.83 167.261C116.949 166.453 117.245 165.68 117.696 164.999C118.146 164.317 118.741 163.742 119.438 163.315L112.167 128.696L121.804 132.401L127.383 165.474C128.023 166.692 128.193 168.103 127.863 169.439C127.532 170.774 126.723 171.943 125.589 172.722C124.455 173.501 123.074 173.837 121.709 173.666C120.343 173.495 119.088 172.829 118.181 171.795Z" fill="#FFB8B8"/>
<path d="M112.842 157.747L108.92 132.478L107.446 83.9482L108.541 69.4026C108.63 68.2237 108.952 67.0741 109.487 66.0199C110.022 64.9658 110.76 64.0279 111.659 63.2604C112.559 62.4929 113.601 61.9109 114.726 61.548C115.851 61.1851 117.037 61.0484 118.215 61.1458C119.762 61.2776 121.249 61.8074 122.531 62.6836C123.812 63.5599 124.846 64.7528 125.53 66.1464L128.395 72.0184L127.372 154.816L112.842 157.747Z" fill="#2F2E41"/>
<path d="M236.197 286.433C236.197 286.528 236.178 286.623 236.142 286.711C236.106 286.799 236.052 286.879 235.985 286.947C235.917 287.014 235.837 287.068 235.749 287.104C235.661 287.14 235.566 287.159 235.471 287.159H40.1622C39.9697 287.159 39.7852 287.082 39.6491 286.946C39.513 286.81 39.4365 286.625 39.4365 286.433C39.4365 286.24 39.513 286.056 39.6491 285.92C39.7852 285.784 39.9697 285.707 40.1622 285.707H235.471C235.566 285.707 235.661 285.726 235.749 285.762C235.837 285.798 235.917 285.852 235.985 285.919C236.052 285.987 236.106 286.067 236.142 286.155C236.178 286.243 236.197 286.338 236.197 286.433Z" fill="#CCCCCC"/>
<path d="M128.785 42.9855C128.794 42.8323 128.84 42.6836 128.919 42.5524C128.999 42.4213 129.11 42.3118 129.241 42.2335C129.373 42.1553 129.523 42.1107 129.676 42.1038C129.829 42.0969 129.982 42.1278 130.12 42.1939C130.259 42.2599 130.379 42.359 130.47 42.4824C130.561 42.6059 130.62 42.7498 130.642 42.9016C130.665 43.0534 130.649 43.2084 130.598 43.3528C130.546 43.4972 130.459 43.6266 130.345 43.7296L131.916 46.3103C131.98 46.4162 132 46.5433 131.971 46.6637C131.941 46.7841 131.866 46.8879 131.76 46.9523C131.654 47.0167 131.527 47.0364 131.406 47.0071C131.286 46.9778 131.182 46.9019 131.118 46.7961L129.352 43.8943C129.175 43.8196 129.026 43.6922 128.925 43.5295C128.823 43.3669 128.775 43.1769 128.785 42.9855Z" fill="white"/>
<path d="M129.888 44.7399C129.946 44.8551 130.086 44.9014 130.202 44.8433C130.317 44.7852 130.363 44.6447 130.305 44.5295L129.884 43.6953C129.826 43.5801 129.686 43.5338 129.57 43.5919C129.455 43.65 129.409 43.7904 129.467 43.9056L129.888 44.7399Z" fill="#2F2E41"/>
</svg>
