<svg width="315" height="280" viewBox="0 0 315 280" fill="none" xmlns="http://www.w3.org/2000/svg">
<g clip-path="url(#clip0_1_38)">
<path d="M101.517 268.439C101.218 268.453 100.922 268.375 100.669 268.214C100.416 268.054 100.218 267.82 100.102 267.544C99.9869 267.268 99.9591 266.962 100.023 266.67C100.086 266.377 100.239 266.111 100.458 265.908C100.495 265.762 100.522 265.657 100.558 265.51C100.545 265.478 100.532 265.446 100.519 265.415C100.217 264.703 99.7124 264.096 99.0672 263.67C98.422 263.244 97.6655 263.019 96.8925 263.022C96.1195 263.025 95.3646 263.256 94.7226 263.686C94.0807 264.117 93.5802 264.728 93.2841 265.442C92.1009 268.291 90.5944 271.146 90.2235 274.159C90.0601 275.491 90.129 276.841 90.4271 278.15C87.648 272.087 86.2049 265.498 86.1956 258.829C86.195 257.156 86.288 255.484 86.4741 253.82C86.6279 252.457 86.8413 251.103 87.1142 249.759C88.6038 242.467 91.8019 235.632 96.446 229.815C98.6938 228.589 100.512 226.703 101.654 224.412C102.068 223.588 102.361 222.709 102.523 221.801C102.27 221.835 102.012 221.855 101.758 221.872C101.679 221.876 101.596 221.88 101.517 221.884L101.487 221.886C101.209 221.898 100.932 221.83 100.692 221.689C100.451 221.548 100.256 221.341 100.13 221.092C100.005 220.843 99.954 220.562 99.9839 220.285C100.014 220.008 100.123 219.745 100.299 219.528C100.409 219.394 100.518 219.259 100.628 219.124C100.794 218.917 100.964 218.713 101.131 218.505C101.15 218.485 101.168 218.464 101.185 218.443C101.376 218.206 101.567 217.973 101.758 217.736C101.409 217.194 100.94 216.741 100.387 216.41C98.4704 215.288 95.8267 216.065 94.4425 217.798C93.0542 219.532 92.7923 221.963 93.2744 224.129C93.7486 225.972 94.533 227.72 95.5939 229.3C95.49 229.433 95.3819 229.562 95.278 229.695C93.3784 232.138 91.7227 234.761 90.3347 237.526C90.6722 234.428 90.2694 231.294 89.1593 228.381C88.0342 225.667 85.9254 223.381 84.0684 221.035C81.8378 218.217 77.2637 219.447 76.8707 223.019C76.8669 223.054 76.8632 223.089 76.8596 223.123C77.1354 223.279 77.4054 223.444 77.6696 223.619C78.0015 223.84 78.2586 224.157 78.4074 224.528C78.5561 224.898 78.5895 225.305 78.5032 225.694C78.4169 226.084 78.2148 226.439 77.9236 226.711C77.6323 226.984 77.2654 227.163 76.8709 227.224L76.8305 227.23C76.9288 228.224 77.1025 229.209 77.3501 230.177C78.0676 232.879 79.3355 235.403 81.0744 237.592C82.8133 239.781 84.9855 241.587 87.455 242.897C87.6172 242.98 87.7751 243.063 87.9373 243.142C86.5428 247.094 85.6681 251.21 85.3351 255.388C85.1467 257.852 85.1578 260.328 85.3684 262.791L85.3559 262.703C84.8238 259.965 83.3629 257.494 81.22 255.708C78.0371 253.093 73.5404 252.13 70.1067 250.029C69.7418 249.794 69.3174 249.669 68.8838 249.668C68.4501 249.667 68.0252 249.79 67.6591 250.023C67.2931 250.255 67.0012 250.587 66.8178 250.98C66.6344 251.373 66.5672 251.811 66.6242 252.241C66.6288 252.271 66.6335 252.302 66.6382 252.332C67.1501 252.541 67.6485 252.781 68.1305 253.051C68.4063 253.207 68.6763 253.372 68.9405 253.547C69.2724 253.769 69.5295 254.085 69.6783 254.456C69.827 254.826 69.8604 255.233 69.7741 255.623C69.6878 256.012 69.4857 256.367 69.1945 256.64C68.9032 256.913 68.5363 257.091 68.1418 257.152L68.1014 257.158C68.0723 257.162 68.0474 257.167 68.0183 257.171C68.8929 259.259 70.1204 261.181 71.6471 262.853C73.533 264.877 75.8125 266.494 78.3456 267.605C80.8788 268.717 83.6123 269.299 86.3785 269.317H86.3827C87.1336 272.58 88.2215 275.756 89.6291 278.794H101.226C101.268 278.665 101.305 278.532 101.343 278.403C100.269 278.471 99.1915 278.407 98.1336 278.212C98.9941 277.156 99.8545 276.092 100.715 275.036C100.734 275.017 100.752 274.996 100.769 274.974C101.205 274.434 101.646 273.897 102.083 273.357V273.356C102.106 271.7 101.916 270.047 101.517 268.439Z" fill="#F2F2F2"/>
<path d="M140.383 45.4334C140.383 53.2466 136.475 61.1973 128.661 61.1973C120.848 61.1973 110.068 55.5385 112.493 43.4124C114.026 35.751 118.423 31.2864 126.236 31.2864C129.988 31.2864 133.587 32.7769 136.24 35.43C138.893 38.083 140.383 41.6814 140.383 45.4334Z" fill="#2F2E41"/>
<path d="M107.608 157.064C108.034 156.591 108.351 156.031 108.537 155.423C108.723 154.815 108.773 154.174 108.684 153.544C108.596 152.914 108.37 152.312 108.023 151.779C107.676 151.246 107.217 150.795 106.677 150.459L110.097 135.385L102.58 138.214L100.484 152.095C99.9796 153.039 99.8387 154.135 100.088 155.176C100.338 156.218 100.961 157.131 101.839 157.743C102.717 158.356 103.789 158.625 104.853 158.5C105.916 158.374 106.896 157.863 107.608 157.064Z" fill="#FFB8B8"/>
<path d="M123.565 103.635L118.318 104.169C118.318 104.169 119.691 111.942 117.544 113.693C115.398 115.444 116.264 115.435 116.276 116.733C116.288 118.03 115.444 120.201 113.726 121.516C112.009 122.83 108.436 146.235 108.436 146.235L100.651 146.309C100.883 144.296 100.864 142.262 100.593 140.254C100.131 137.23 97.798 129.614 98.6506 128.308C99.5032 127.003 99.0543 124.601 99.0294 122.006C99.0045 119.411 102.717 122.278 102.676 117.953C102.634 113.628 107.396 86.4872 106.926 82.5986C106.456 78.71 111.181 75.2041 111.181 75.2041L115.506 75.1626L123.565 103.635Z" fill="#3FC1C9"/>
<path d="M179.269 67.1331C179.4 67.7212 179.4 68.3308 179.27 68.9191C179.14 69.5073 178.882 70.0599 178.515 70.5378C178.148 71.0157 177.681 71.4074 177.147 71.6852C176.612 71.9631 176.023 72.1203 175.421 72.1459L171.212 86.1733L166.331 80.3342L171.076 67.9088C171.1 66.8947 171.495 65.9247 172.187 65.1825C172.878 64.4404 173.818 63.9776 174.828 63.882C175.838 63.7864 176.848 64.0645 177.666 64.6637C178.485 65.2629 179.055 66.1415 179.269 67.1331Z" fill="#FFB8B8"/>
<path d="M134.829 71.7019C134.829 71.7019 145.005 67.8865 150.522 88.7812L157.845 96.3662L163.998 85.2482L163.185 82.6107L167.94 71.8303L176.093 76.5093L174.086 83.9107L174.425 87.5695L172.477 89.8452L169.288 101.607L167.293 105.449C167.293 105.449 164.777 110.369 160.385 111.18C159.214 111.399 158.016 111.433 156.834 111.28C154.521 110.978 151.987 109.913 149.382 107.56C139.718 98.8315 134.003 92.0984 134.003 92.0984L134.829 71.7019Z" fill="#3FC1C9"/>
<path d="M183.887 76.1459L165.772 58.6633C165.673 58.568 165.615 58.4384 165.609 58.3013C165.603 58.1642 165.65 58.03 165.74 57.9264C165.83 57.8227 165.956 57.7575 166.092 57.7442C166.229 57.7309 166.366 57.7705 166.474 57.8548L185.681 72.819L183.887 76.1459Z" fill="#3F3D56"/>
<path d="M191.348 78.0838C190.439 78.4029 189.496 78.6136 188.538 78.7115C188.051 78.7594 187.562 78.7766 187.077 78.7824C186.906 78.7883 186.734 78.789 186.565 78.7912C186.162 78.7971 185.759 78.8031 185.352 78.8076C185.009 78.8143 184.662 78.8195 184.321 78.8223C183.818 78.8301 183.266 78.8197 182.905 78.4664C182.753 78.2882 182.642 78.0784 182.58 77.8521C182.518 77.6259 182.508 77.3887 182.549 77.1579C182.629 76.6751 182.775 76.2057 182.984 75.7628C183.418 74.7169 183.857 73.6724 184.291 72.6265L184.224 72.0411C185.022 71.9256 185.834 71.9505 186.623 72.1147C186.946 72.1971 187.248 72.3438 187.512 72.5461C187.777 72.7484 187.997 73.0021 188.161 73.292C188.23 73.4223 188.285 73.5596 188.324 73.7014C188.494 74.3247 188.372 75.0164 188.445 75.6685C188.462 75.8042 188.487 75.9387 188.52 76.0713C188.613 76.4634 188.792 76.8301 189.044 77.1452C189.295 77.4603 189.613 77.716 189.974 77.8941C190.406 78.084 190.881 78.1497 191.348 78.0838Z" fill="#CCCCCC"/>
<path d="M192.622 77.577C192.244 77.8451 191.807 78.0189 191.348 78.0838C191.781 77.9363 192.206 77.7671 192.622 77.577Z" fill="#E6E6E6"/>
<path d="M191.348 78.0838C190.44 78.4029 189.496 78.6136 188.538 78.7115C188.051 78.7594 187.562 78.7766 187.077 78.7824C186.907 78.7884 186.734 78.7891 186.565 78.7912C186.162 78.7971 185.759 78.8031 185.352 78.8077C185.372 78.6034 185.403 78.4004 185.444 78.1993C185.824 76.3229 186.927 74.7273 188.161 73.292C188.23 73.4223 188.285 73.5596 188.324 73.7015C188.494 74.3247 188.372 75.0164 188.445 75.6685C188.462 75.8042 188.487 75.9387 188.52 76.0713C188.614 76.4634 188.792 76.8301 189.044 77.1452C189.295 77.4603 189.613 77.716 189.975 77.8941C190.406 78.084 190.882 78.1497 191.348 78.0838Z" fill="#3FC1C9"/>
<path d="M121.179 106.689L120.46 110.12L119.848 122.773L144.438 119.443L146.326 104.792L143.716 100.503L121.179 106.689Z" fill="#FFB6B6"/>
<path d="M139.367 54.9372C142.45 49.2974 140.378 42.2262 134.738 39.1433C129.098 36.0603 122.027 38.133 118.944 43.7727C115.861 49.4125 117.934 56.4836 123.573 59.5666C129.213 62.6496 136.284 60.5769 139.367 54.9372Z" fill="#FFB7B7"/>
<path d="M111.623 90.9212L108.423 82.6067C108.421 79.1259 109.599 75.7473 111.764 73.022C113.93 70.2967 116.955 68.3856 120.346 67.6004L120.39 67.5901L122.691 64.4894L132.04 65.4247L133.754 68.927L140.529 72.9611L148.234 81.9833C150.661 83.7257 152.102 85.9598 152.519 88.6244C153.405 94.2811 149.444 99.9409 148.973 100.59L147.759 107.426L119.693 111.448L119.478 111.475L111.623 90.9212Z" fill="#3FC1C9"/>
<path d="M116.976 52.4058C117.082 52.3892 117.187 52.3669 117.293 52.3503C119.108 52.0283 120.923 51.7119 122.733 51.3843L122.9 47.2819L125.092 50.9569C130.094 52.6167 134.774 51.6786 139.176 49.6079C140.629 48.9185 142.038 48.1418 143.396 47.2818C144.343 41.5031 141.954 36.949 135.818 36.3677C135.627 36.3496 135.49 36.19 135.324 36.1067L135.322 36.1063L135.32 36.1051L135.319 36.1033L135.318 36.1011C135.035 35.9679 134.746 35.8402 134.458 35.7237C132.198 34.8404 129.733 34.6168 127.351 35.0786C124.969 35.5405 122.767 36.669 121.001 38.3328C117.448 41.7248 115.849 47.3262 116.976 52.4058Z" fill="#2F2E41"/>
<path d="M138.321 249.962L144.998 253.03L160.008 228.737L150.154 224.209L138.321 249.962Z" fill="#FFB6B6"/>
<path d="M138.179 245.908L149.023 250.128L146.945 254.65L153.794 266.191C154.133 266.761 154.28 267.424 154.215 268.084C154.15 268.744 153.875 269.365 153.432 269.858C152.988 270.35 152.399 270.688 151.75 270.822C151.101 270.956 150.426 270.879 149.823 270.602L137.258 264.828L137.148 259.36L134.246 263.444L129.509 261.267L138.179 245.908Z" fill="#2F2E41"/>
<path d="M109.135 265.035H116.483L119.979 236.693L109.134 236.694L109.135 265.035Z" fill="#FFB6B6"/>
<path d="M105.139 206.879L105.138 206.803L107.898 202.047L105.08 195.856L104.88 158.228C103.77 131.037 119.545 117.966 119.669 117.838L120.011 117.482L145.31 116.863C145.31 116.863 158.607 155.898 169.171 191.07C169.795 193.149 171.561 195.2 171.012 197.257C166.656 213.581 161.486 232.057 158.168 232.579L147.658 226.92L149.612 198.629L148.411 195.55C146.26 195.154 140.667 173.451 140.667 173.451C139.73 172.338 139.778 169.312 139.778 169.312L132.453 161.621L125.702 197.07L127.371 207.644L125.99 211.279L120.073 241.293L120.01 241.776L108.855 240.663L105.139 206.879Z" fill="#2F2E41"/>
<path d="M106.647 261.411L118.262 260.717V265.694L129.305 273.321C129.851 273.697 130.262 274.238 130.478 274.865C130.694 275.492 130.704 276.171 130.507 276.804C130.309 277.436 129.915 277.99 129.381 278.383C128.847 278.775 128.202 278.987 127.539 278.987H113.71L111.327 274.065L110.396 278.987H105.182L106.647 261.411Z" fill="#2F2E41"/>
<path d="M121.435 35.8122V35.822C121.436 36.4311 121.359 37.0379 121.204 37.627C121.179 37.7303 121.15 37.8385 121.115 37.9418V37.9467C120.785 38.9988 120.216 39.9601 119.452 40.7554C118.689 41.5507 117.751 42.1583 116.713 42.5305C116.561 42.5896 116.404 42.6387 116.246 42.683C115.915 42.7792 115.576 42.8482 115.233 42.8896C114.925 42.9332 114.614 42.9546 114.303 42.9535C114.06 42.9545 113.817 42.943 113.576 42.9191C113.009 42.8618 112.453 42.7346 111.918 42.5403C111.834 42.516 111.752 42.4865 111.672 42.4518C111.632 42.4375 111.593 42.4211 111.554 42.4027C110.662 42.0292 109.855 41.4783 109.182 40.7834C108.509 40.0885 107.985 39.2641 107.64 38.3603C107.296 37.4564 107.138 36.492 107.178 35.5256C107.217 34.5591 107.453 33.6108 107.87 32.7382L107.875 32.7333C108.225 32.0012 108.699 31.3355 109.277 30.766C110.566 29.4823 111.133 26.2653 113.091 26.2653C113.184 26.2636 113.278 26.2669 113.371 26.2751C114.684 26.3194 117.112 29.1528 118.145 29.8217C118.912 30.3063 119.577 30.9361 120.102 31.6759C120.651 32.4368 121.042 33.2996 121.253 34.2137C121.374 34.738 121.435 35.2742 121.435 35.8122Z" fill="#2F2E41"/>
<path d="M112.722 33.3289C111.614 34.6183 109.88 35.1195 108.316 35.7905C105.555 37.0016 103.132 38.8678 101.255 41.2274C99.3789 43.587 98.1064 46.3686 97.5481 49.3312C97.1157 51.7443 97.1722 54.2422 96.4891 56.5947C95.8101 58.9471 94.1286 61.2551 91.7155 61.6634C90.0825 61.9423 88.4455 61.3117 86.9096 60.6892C86.0648 60.3497 85.22 60.0088 84.3752 59.6666C85.2564 57.4556 86.1362 55.2447 87.0147 53.0337C85.6028 55.1203 83.9609 57.0415 82.1198 58.7612C79.0923 57.5405 76.0622 56.3198 73.0293 55.0991C80.4909 55.1274 79.2176 47.8841 80.887 40.6166C81.8045 36.6231 89.6177 33.919 91.1496 30.1195C91.9774 28.0587 93.3783 26.2781 95.1864 24.9886C96.9945 23.6991 99.1343 22.9546 101.352 22.8431C103.57 22.7317 105.774 23.2581 107.702 24.3599C109.63 25.4618 111.203 27.093 112.233 29.0605C113.765 29.6708 113.809 32.0556 112.722 33.3289Z" fill="#2F2E41"/>
<path d="M144.414 118.644C146.13 119.092 147.714 119.948 149.029 121.139C150.344 122.33 151.352 123.821 151.966 125.486C152.298 126.443 152.506 127.578 151.935 128.488C151.76 128.814 151.474 129.066 151.128 129.198C150.782 129.329 150.4 129.33 150.053 129.202C149.308 128.895 148.795 128.133 148.415 127.458C147.913 126.503 147.482 125.513 147.124 124.496C146.539 122.961 145.29 120.398 147.073 119.198C148.573 118.189 150.558 118.581 152.246 118.512C154.069 118.437 156.096 117.739 156.744 115.849C157.374 114.011 155.897 112.282 154.304 111.583C153.347 111.186 152.307 111.03 151.275 111.128C150.244 111.226 149.252 111.576 148.387 112.147C146.677 113.332 145.456 115.098 144.951 117.116C144.915 117.269 144.939 117.431 145.019 117.566C145.099 117.701 145.228 117.801 145.38 117.842C145.532 117.884 145.694 117.865 145.832 117.79C145.97 117.715 146.073 117.589 146.12 117.439C146.621 115.611 147.704 113.891 149.394 112.954C150.976 112.077 153.146 112.023 154.622 113.159C155.352 113.72 155.926 114.655 155.552 115.583C155.208 116.434 154.315 116.941 153.464 117.146C151.54 117.611 149.528 117.009 147.61 117.624C145.782 118.21 144.728 119.706 144.992 121.646C145.191 122.737 145.514 123.801 145.955 124.819C146.329 125.864 146.767 126.887 147.265 127.88C148.027 129.318 149.399 130.876 151.211 130.454C153.276 129.973 153.766 127.563 153.323 125.79C152.314 121.747 148.693 118.508 144.736 117.475C144.583 117.439 144.422 117.463 144.286 117.543C144.151 117.623 144.052 117.752 144.01 117.904C143.968 118.056 143.987 118.218 144.062 118.356C144.138 118.494 144.263 118.597 144.414 118.644Z" fill="#2F2E41"/>
<path d="M162.56 229.079C161.702 228.066 160.48 227.447 159.291 226.855L149.322 221.889L149.038 223.659C148.661 222.495 146.811 222.409 146.061 223.376C145.311 224.342 145.551 225.803 146.283 226.783C147.014 227.763 148.125 228.375 149.201 228.958C151.586 230.248 153.971 231.539 156.356 232.83C157.468 233.432 158.615 234.045 159.871 234.182C161.127 234.32 162.534 233.867 163.16 232.769C163.818 231.616 163.417 230.093 162.56 229.079Z" fill="#2F2E41"/>
<path d="M123.778 238.326C122.558 237.802 121.188 237.795 119.86 237.796C116.148 237.799 112.435 237.802 108.723 237.805L109.259 239.515C108.402 238.642 106.708 239.391 106.469 240.591C106.229 241.79 107.096 242.99 108.189 243.541C109.281 244.091 110.548 244.142 111.771 244.183C114.481 244.273 117.192 244.363 119.903 244.453C121.166 244.494 122.466 244.531 123.651 244.093C124.836 243.654 125.893 242.621 125.963 241.359C126.036 240.034 124.997 238.85 123.778 238.326Z" fill="#2F2E41"/>
<path d="M186.377 155.127C170.042 155.127 152.291 151.872 134.659 145.612C112.856 137.872 92.864 126.189 76.8457 111.825L77.32 110.874C93.2612 125.168 113.164 136.798 134.878 144.506C154.5 151.472 174.269 154.7 192.041 153.848L192.072 154.991C190.195 155.082 188.297 155.127 186.377 155.127Z" fill="#F0F0F0"/>
<path d="M40.0375 95.5146C26.9493 78.2373 32.1397 58.5183 24.4718 44.7618C-4.91626 -7.96195 31.2711 -3.10442 72.1845 7.14863L72.2821 8.28606C46.2422 12.3046 29.1169 25.7064 25.2971 45.0547C22.3284 60.0915 27.776 77.7223 40.6364 94.6991L40.0375 95.5146Z" fill="#F0F0F0"/>
<path d="M166.316 156.844C149.982 156.844 131.209 138.717 114.599 147.329C64.3107 173.406 71.2332 129.771 56.7856 113.543L57.26 112.591C73.2012 126.885 93.1043 138.515 114.818 146.223C134.44 153.189 154.209 156.417 171.981 155.565L172.012 156.708C170.135 156.799 168.237 156.844 166.316 156.844Z" fill="#F0F0F0"/>
<path d="M203.791 149.645L203.517 148.561C218.126 141.938 216.871 122.209 229.942 117.704C329.51 83.386 231.225 79.5158 209.118 61.3631C189.349 45.1299 167.803 26.2566 140.421 16.5364L140.64 15.4297C168.141 25.1928 192.657 41.1951 209.669 60.4892C226.768 79.88 234.26 100.303 230.767 117.997C228.013 131.95 218.684 142.893 203.791 149.645Z" fill="#F0F0F0"/>
<path d="M69.6431 162.322C52.0601 133.574 28.6992 107.895 0 92.587L0.711028 91.9538C13.4354 117.655 38.0387 142.274 69.9891 161.276L69.6431 162.322Z" fill="#F0F0F0"/>
<path d="M182.494 195.392C179.184 195.392 175.816 195.293 172.393 195.095L172.429 193.951C197.682 208.319 220.21 204.902 237.627 182.092L237.946 183.154C223.026 191.215 204.009 195.392 182.494 195.392Z" fill="#F0F0F0"/>
<path d="M187.669 184.448C189.555 184.448 191.084 182.399 191.084 179.87C191.084 177.341 189.555 175.291 187.669 175.291C185.784 175.291 184.255 177.341 184.255 179.87C184.255 182.399 185.784 184.448 187.669 184.448Z" fill="#FD6584"/>
<path d="M72.3203 100.687C72.6033 98.8227 70.8061 97.0036 68.3061 96.6241C65.8061 96.2445 63.5499 97.4482 63.2669 99.3126C62.9838 101.177 64.7811 102.996 67.2811 103.376C69.7811 103.755 72.0373 102.551 72.3203 100.687Z" fill="#E6E6E6"/>
<path d="M56.6014 51.0077C58.4872 51.0077 60.0159 48.9578 60.0159 46.4292C60.0159 43.9005 58.4872 41.8506 56.6014 41.8506C54.7157 41.8506 53.187 43.9005 53.187 46.4292C53.187 48.9578 54.7157 51.0077 56.6014 51.0077Z" fill="#E6E6E6"/>
<path d="M64.3608 77.2304C59.9079 71.0243 51.5033 67.8172 45.5887 70.0671C39.6741 72.3171 38.4893 79.1721 42.9422 85.3782C47.3952 91.5843 60.5031 101.346 66.4177 99.0965C72.3323 96.8465 68.8138 83.4365 64.3608 77.2304ZM64.3882 96.3188C63.6602 97.3862 61.874 97.4357 60.3986 96.4294C58.9233 95.4231 58.3175 93.742 59.0455 92.6746C59.7736 91.6072 61.5598 91.5577 63.0351 92.564C64.5105 93.5703 65.1163 95.2514 64.3882 96.3188Z" fill="#3F3D56"/>
<path d="M59.3337 83.301C58.7792 83.7493 58.2246 84.1975 57.6701 84.6458C56.9895 85.2734 56.1836 85.7498 55.3056 86.0434C54.1001 86.322 52.8399 86.247 51.676 85.8273C49.9792 85.2792 48.4921 84.2224 47.4164 82.8004L48.6151 83.0677C47.9791 82.3315 47.462 81.5005 47.0825 80.6047C46.8014 79.7734 46.9582 78.9297 47.717 78.702C48.5856 78.4413 49.984 79.0273 50.7133 78.6061C51.9744 77.8777 49.9012 75.1653 51.0504 74.3285C51.72 73.841 53.0598 74.3233 54.1766 74.8016C55.5658 75.3309 56.8823 76.0339 58.0948 76.8939C60.0787 78.426 61.177 80.8408 60.367 82.2385C60.0899 82.6525 59.7398 83.0125 59.3337 83.301Z" fill="#3FC1C9"/>
<path d="M58.9252 87.9547C57.9554 88.0875 56.8334 87.342 55.8976 86.6542L55.6593 86.3424C55.4644 85.7455 55.3825 85.1175 55.4176 84.4905C55.4397 84.2001 55.5599 83.9257 55.7583 83.7125C55.9568 83.4992 56.2218 83.3597 56.51 83.3168C57.0789 83.2419 57.838 83.4873 58.2138 83.1582C58.9403 82.5218 57.2555 80.7677 58.0258 80.1722C58.4582 79.838 59.3768 80.2665 59.7729 80.841C60.0964 81.3765 60.2457 81.9993 60.2002 82.6233C60.2131 83.5397 60.2259 84.4561 60.2388 85.3724C60.2797 85.9135 60.2249 86.4575 60.077 86.9795C59.9957 87.2337 59.8446 87.4599 59.6409 87.6323C59.4373 87.8047 59.1893 87.9164 58.9252 87.9547Z" fill="#2F2E41"/>
<path d="M59.168 91.0083C57.8238 90.6113 55.7738 89.226 54.0278 88.0027L53.508 87.5504C52.9637 86.933 52.5023 86.2471 52.1357 85.5102C51.9342 84.9584 52.1935 84.6361 53.0861 84.9026C53.8762 85.1385 55.1206 85.809 55.4886 85.6769C56.2001 85.4213 52.7727 82.6876 53.5707 82.4983C54.0185 82.392 55.5968 83.3389 56.4918 84.1485C57.1508 84.7331 57.6952 85.4353 58.0971 86.2192C58.6202 87.1701 59.1433 88.1209 59.6663 89.0717C59.9823 89.5465 60.2024 90.0785 60.3144 90.6378C60.3252 91.0425 59.9837 91.2492 59.168 91.0083Z" fill="#FF6584"/>
<path d="M249.447 16.8146C249.974 10.1384 254.392 18.0162 261.069 18.5436C262.656 18.6684 264.204 19.1048 265.624 19.8279C267.043 20.551 268.306 21.5467 269.34 22.758C270.374 23.9693 271.16 25.3725 271.652 26.8874C272.144 28.4024 272.332 29.9994 272.207 31.5873C272.082 33.1752 271.644 34.7228 270.921 36.1418C270.197 37.5607 269.201 38.8232 267.989 39.857C266.777 40.8909 265.374 41.6759 263.859 42.1672C262.344 42.6585 260.746 42.8465 259.159 42.7204C252.482 42.193 248.919 23.4908 249.447 16.8146Z" fill="#3FC1C9"/>
<path d="M291.01 80.9171C291.136 79.3297 291.573 77.7824 292.296 76.3638C293.019 74.9452 294.015 73.6829 295.226 72.649C296.437 71.6152 297.84 70.8301 299.355 70.3384C300.87 69.8468 302.466 69.6583 304.054 69.7837C310.73 70.3111 315.196 57.0532 314.668 63.7294C314.141 70.4056 308.82 94.4879 302.144 93.9604C300.556 93.835 299.009 93.3982 297.59 92.6748C296.172 91.9515 294.91 90.9558 293.876 89.7446C292.842 88.5334 292.057 87.1305 291.565 85.6158C291.073 84.1012 290.885 82.5046 291.01 80.9171Z" fill="#3FC1C9"/>
<path d="M306.229 95.5297C304.404 96.4096 302.295 95.8909 300.72 94.7289C298.927 93.4073 298.044 91.3051 297.752 89.1486C297.471 86.8339 297.664 84.4862 298.32 82.2486C298.943 80.0901 300.278 77.85 302.663 77.4048C304.253 77.1081 305.95 77.7864 306.391 79.4374C306.558 80.0996 306.552 80.7938 306.373 81.453C306.195 82.1123 305.849 82.7143 305.37 83.2011C303.943 84.572 301.653 84.4677 299.995 83.5964C298.046 82.5716 296.971 80.5212 296.616 78.4131C296.194 75.9067 296.783 73.3882 297.622 71.0303C298.533 68.4676 299.669 65.9816 300.711 63.4706C302.745 58.5738 304.655 53.5716 305.465 48.3058C306.702 40.2616 304.776 30.7148 297.723 25.7905C293.916 23.1322 289.142 22.3792 284.599 22.9513C279.809 23.5547 275.408 25.6565 271.51 28.4396C269.482 29.9132 267.557 31.5223 265.746 33.2559C265.198 33.8202 264.493 34.2086 263.723 34.3717C262.953 34.5349 262.152 34.4654 261.422 34.1722C257.673 32.6466 258.868 26.5472 262.732 26.0927C264.487 25.8862 266.296 26.8657 267.486 28.0896C268.785 29.4786 269.633 31.2286 269.918 33.109C270.579 37.0668 269.112 41.2504 266.563 44.2758C263.683 47.6936 259.307 49.6177 255.047 50.6312C250.197 51.7851 245.208 51.8439 240.251 51.9536C235.177 52.0658 230.044 52.2586 225.147 53.7142C221.205 54.8978 217.487 56.7251 214.142 59.1221C207.402 63.9094 202.359 70.7149 199.74 78.5558C199.125 80.4525 198.669 82.3974 198.378 84.37C198.264 85.1423 199.473 85.2346 199.587 84.4655C200.862 75.8665 205.518 67.9588 212.062 62.2979C215.327 59.4609 219.064 57.2188 223.104 55.6736C227.97 53.8275 233.139 53.3594 238.303 53.2087C243.577 53.0548 248.899 53.1386 254.094 52.0827C258.688 51.1492 263.339 49.3181 266.685 45.927C269.636 42.937 271.462 38.6593 271.266 34.4318C271.083 30.4981 268.917 26.2919 264.903 25.123C263.02 24.5745 260.998 24.9234 259.6 26.3612C258.822 27.1809 258.287 28.1999 258.053 29.3053C257.82 30.4107 257.897 31.5592 258.276 32.6234C258.776 33.7797 259.689 34.7085 260.836 35.2292C261.983 35.7498 263.283 35.825 264.482 35.4401C265.363 35.1166 266.159 34.5965 266.808 33.9195C270.598 30.3709 274.839 27.1143 279.774 25.3472C284.377 23.699 289.671 23.3609 294.251 25.2618C302.922 28.8604 305.527 39.3044 304.315 47.8117C303.522 53.3792 301.414 58.6509 299.258 63.8082C298.157 66.4417 296.933 69.0583 296.09 71.7895C295.336 74.2349 294.957 76.859 295.576 79.3784C296.116 81.5773 297.395 83.5983 299.44 84.6635C301.298 85.6311 303.655 85.7981 305.475 84.6474C308.107 82.9838 308.699 78.3901 305.743 76.7162C303.782 75.6054 301.271 76.1511 299.644 77.6099C297.821 79.2453 297.076 81.6945 296.7 84.0382C295.989 88.4671 296.548 93.9208 300.922 96.2902C302.724 97.2663 304.873 97.5299 306.757 96.6217C306.896 96.5485 307.002 96.424 307.051 96.2746C307.1 96.1251 307.089 95.9624 307.021 95.8208C306.952 95.6791 306.831 95.5696 306.684 95.5153C306.536 95.461 306.373 95.4662 306.229 95.5297Z" fill="#3F3D56"/>
<path d="M198.132 81.2837C198.691 74.2039 189.004 55.274 193.171 50.1498C193.688 49.5095 194.23 48.8901 194.798 48.2916C196.636 46.3323 198.703 44.6019 200.955 43.138C201.336 42.8842 201.72 42.6429 202.107 42.41C203.483 41.5889 204.915 40.8661 206.393 40.2469C206.661 40.1383 206.933 40.0301 207.206 39.9218C214.658 37.0381 222.892 36.892 230.442 39.5096C237.992 42.1271 244.369 47.3385 248.437 54.2164C252.506 61.0942 254.002 69.1925 252.66 77.07C251.317 84.9474 247.224 92.0932 241.107 97.2358C240.786 97.5104 240.457 97.7763 240.12 98.0376C236.776 100.648 232.97 102.602 228.9 103.797C228.896 103.796 228.895 103.801 228.891 103.8C222.788 105.582 216.307 105.611 210.189 103.884L210.181 103.883C210.046 103.844 209.911 103.805 209.777 103.762C194.812 99.3401 196.854 97.462 198.132 81.2837Z" fill="#3FC1C9"/>
<path d="M206.377 40.3996C206.376 40.3483 206.381 40.297 206.393 40.2469C206.661 40.1383 206.933 40.03 207.205 39.9218C207.319 39.9675 207.416 40.0469 207.484 40.1493C207.552 40.2517 207.588 40.3723 207.585 40.4952C207.587 41.1079 207.658 41.7186 207.794 42.316C208.966 47.5011 214.274 50.5235 219.013 51.8182C224.811 53.4075 231.041 53.4293 236.45 56.3016C238.673 57.4175 240.591 59.058 242.037 61.0813C243.543 63.303 244.174 66.0026 243.81 68.6616C242.983 74.9174 238.167 79.4835 236.183 85.2912C235.366 87.6837 235.165 90.2303 236.095 92.623C236.883 94.6558 238.44 96.51 240.677 96.9301C240.767 96.9439 240.853 96.9788 240.928 97.0319C241.003 97.0849 241.064 97.1547 241.107 97.2357C240.785 97.5103 240.456 97.7762 240.119 98.0375C239.715 97.9442 239.322 97.8085 238.947 97.6327C236.806 96.6121 235.422 94.5768 234.729 92.361C233.93 89.7962 234.234 87.1279 235.129 84.632C237.214 78.8122 242.369 74.0255 242.69 67.5999C242.968 62.0306 238.39 58.182 233.614 56.3288C227.705 54.0375 221.081 54.3779 215.259 51.8055C210.679 49.7813 206.398 45.725 206.377 40.3996Z" fill="#3F3D56"/>
<path d="M200.954 43.1379C201.335 42.8842 201.719 42.6429 202.107 42.41C202.151 42.4663 202.184 42.5317 202.201 42.6016C202.219 42.6715 202.221 42.7444 202.208 42.8153C201.595 48.0119 202.99 53.2464 206.108 57.4484C207.457 59.292 209.107 60.8947 210.989 62.1885C212.959 63.5321 215.173 64.3437 217.36 65.2543C219.511 66.15 221.686 67.2017 223.244 68.9832C224.832 70.7994 225.498 73.1429 225.57 75.5164C225.738 81.1413 222.541 86.0461 221.882 91.5205C221.587 93.9624 221.939 96.3865 223.303 98.4769C224.482 100.281 226.328 101.595 228.545 101.51C229.277 101.479 229.229 102.546 228.584 102.701C228.54 102.712 228.495 102.718 228.449 102.719C225.871 102.816 223.665 101.23 222.301 99.1438C220.713 96.7194 220.32 93.8866 220.722 91.0518C221.504 85.5669 224.824 80.4973 224.324 74.8219C224.255 73.631 223.937 72.4677 223.39 71.4075C222.843 70.3473 222.079 69.4139 221.149 68.6676C219.231 67.1741 216.889 66.3849 214.667 65.4633C212.446 64.5888 210.379 63.3662 208.543 61.8413C206.75 60.2981 205.216 58.4782 203.998 56.4504C201.563 52.4617 200.495 47.7883 200.954 43.1379Z" fill="#3F3D56"/>
<path d="M193.171 50.1498C193.688 49.5094 194.23 48.89 194.797 48.2915C194.011 51.3795 193.877 54.5974 194.404 57.7401C195.038 61.6942 196.66 65.4244 199.118 68.5856C200.351 70.1597 201.803 71.5485 203.431 72.7092C205.293 74.0322 207.35 75.1881 208.583 77.1831C211.258 81.5138 208.813 86.6971 207.498 91.0208C206.809 93.2775 206.342 95.7018 207.105 98.0002C207.698 99.7824 209.013 101.512 210.956 101.864C211.72 102.002 211.628 103.215 210.86 103.073C210.717 103.046 210.573 103.014 210.43 102.978C208.321 102.423 206.799 100.697 206.06 98.6596C205.102 96.0012 205.551 93.247 206.355 90.6062C207.68 86.2629 210.403 80.5867 206.646 76.657C205.062 74.9992 202.917 73.9823 201.186 72.4873C199.634 71.1538 198.272 69.6152 197.136 67.9141C193.656 62.6897 192.243 56.3581 193.171 50.1498Z" fill="#3F3D56"/>
<path d="M216.338 136.703V135.925H203.285V117.761H202.508V135.925H187.549V121.897C187.287 122.103 187.029 122.315 186.774 122.532V135.925H176.893C176.784 136.182 176.678 136.442 176.578 136.703H186.774V151.967H174.114C174.126 152.228 174.144 152.486 174.166 152.745H186.774V164.922H177.329C177.444 165.183 177.566 165.441 177.694 165.696H186.774V175.932H187.549V165.696H202.508V175.932H203.285V165.696H216.338V164.922H203.285C203.285 163.323 203.599 161.739 204.211 160.262C204.823 158.784 205.72 157.442 206.851 156.311C207.981 155.18 209.324 154.283 210.801 153.671C212.279 153.06 213.862 152.745 215.462 152.745H216.338V151.967H203.285V136.703H216.338ZM202.508 164.922H187.549V152.745H202.508V164.922ZM202.508 151.967H187.549V151.661C187.549 149.697 187.936 147.752 188.688 145.937C189.44 144.122 190.542 142.473 191.931 141.084C193.32 139.695 194.969 138.593 196.784 137.842C198.599 137.09 200.544 136.703 202.508 136.703V151.967Z" fill="#3F3D56"/>
<path d="M179.412 279.606L67.9539 279.73C67.8263 279.73 67.7039 279.679 67.6136 279.589C67.5234 279.499 67.4727 279.376 67.4727 279.249C67.4727 279.121 67.5234 278.999 67.6136 278.908C67.7039 278.818 67.8263 278.767 67.9539 278.767L179.412 278.643C179.476 278.643 179.538 278.655 179.597 278.679C179.656 278.704 179.709 278.739 179.754 278.784C179.798 278.828 179.834 278.881 179.858 278.94C179.883 278.998 179.895 279.061 179.895 279.124C179.895 279.188 179.883 279.25 179.858 279.309C179.834 279.367 179.798 279.421 179.754 279.465C179.709 279.51 179.656 279.545 179.597 279.57C179.538 279.594 179.476 279.606 179.412 279.606Z" fill="#CACACA"/>
</g>
<defs>
<clipPath id="clip0_1_38">
<rect width="315" height="280" fill="white"/>
</clipPath>
</defs>
</svg>
