<svg width="315" height="275" viewBox="0 0 315 275" fill="none" xmlns="http://www.w3.org/2000/svg">
<path d="M101.517 263.439C101.218 263.453 100.922 263.375 100.669 263.214C100.416 263.054 100.218 262.82 100.102 262.544C99.9869 262.268 99.9591 261.962 100.023 261.67C100.086 261.377 100.239 261.111 100.458 260.908C100.495 260.762 100.522 260.657 100.558 260.51C100.545 260.478 100.532 260.446 100.519 260.415C100.217 259.703 99.7124 259.096 99.0672 258.67C98.422 258.244 97.6655 258.019 96.8925 258.022C96.1195 258.025 95.3646 258.256 94.7226 258.686C94.0807 259.117 93.5802 259.728 93.2841 260.442C92.1009 263.291 90.5944 266.146 90.2235 269.159C90.0601 270.491 90.129 271.841 90.4271 273.15C87.648 267.087 86.2049 260.498 86.1956 253.829C86.195 252.156 86.288 250.484 86.4741 248.82C86.6279 247.457 86.8413 246.103 87.1142 244.759C88.6038 237.467 91.8019 230.632 96.446 224.815C98.6938 223.589 100.512 221.703 101.654 219.412C102.068 218.588 102.361 217.709 102.523 216.801C102.27 216.835 102.012 216.855 101.758 216.872C101.679 216.876 101.596 216.88 101.517 216.884L101.487 216.886C101.209 216.898 100.932 216.83 100.692 216.689C100.451 216.548 100.256 216.341 100.13 216.092C100.005 215.843 99.954 215.562 99.9839 215.285C100.014 215.008 100.123 214.745 100.299 214.528C100.409 214.394 100.518 214.259 100.628 214.124C100.794 213.917 100.964 213.713 101.131 213.505C101.15 213.485 101.168 213.464 101.185 213.443C101.376 213.206 101.567 212.973 101.758 212.736C101.409 212.194 100.94 211.741 100.387 211.41C98.4704 210.288 95.8267 211.065 94.4425 212.798C93.0542 214.532 92.7923 216.963 93.2744 219.129C93.7486 220.972 94.533 222.72 95.5939 224.3C95.49 224.433 95.3819 224.562 95.278 224.695C93.3784 227.138 91.7227 229.761 90.3347 232.526C90.6722 229.428 90.2694 226.294 89.1593 223.381C88.0342 220.667 85.9254 218.381 84.0684 216.035C81.8378 213.217 77.2637 214.447 76.8707 218.019C76.8669 218.054 76.8632 218.089 76.8596 218.123C77.1354 218.279 77.4054 218.444 77.6696 218.619C78.0015 218.84 78.2586 219.157 78.4074 219.528C78.5561 219.898 78.5895 220.305 78.5032 220.694C78.4169 221.084 78.2148 221.439 77.9236 221.711C77.6323 221.984 77.2654 222.163 76.8709 222.224L76.8305 222.23C76.9288 223.224 77.1025 224.209 77.3501 225.177C78.0676 227.879 79.3355 230.403 81.0744 232.592C82.8133 234.781 84.9855 236.587 87.455 237.897C87.6172 237.98 87.7751 238.063 87.9373 238.142C86.5428 242.094 85.6681 246.21 85.3351 250.388C85.1467 252.852 85.1578 255.328 85.3684 257.791L85.3559 257.703C84.8238 254.965 83.3629 252.494 81.22 250.708C78.0371 248.093 73.5404 247.13 70.1067 245.029C69.7418 244.794 69.3174 244.669 68.8838 244.668C68.4501 244.667 68.0252 244.79 67.6591 245.023C67.2931 245.255 67.0012 245.587 66.8178 245.98C66.6344 246.373 66.5672 246.811 66.6242 247.241C66.6288 247.271 66.6335 247.302 66.6382 247.332C67.1501 247.541 67.6485 247.781 68.1305 248.051C68.4063 248.207 68.6763 248.372 68.9405 248.547C69.2724 248.769 69.5295 249.085 69.6783 249.456C69.827 249.826 69.8604 250.233 69.7741 250.623C69.6878 251.012 69.4857 251.367 69.1945 251.64C68.9032 251.913 68.5363 252.091 68.1418 252.152L68.1014 252.158C68.0723 252.162 68.0474 252.167 68.0183 252.171C68.8929 254.259 70.1204 256.181 71.6471 257.853C73.533 259.877 75.8125 261.494 78.3456 262.605C80.8788 263.717 83.6123 264.299 86.3785 264.317H86.3827C87.1336 267.58 88.2215 270.756 89.6291 273.794H101.226C101.268 273.665 101.305 273.532 101.343 273.403C100.269 273.471 99.1915 273.407 98.1336 273.212C98.9941 272.156 99.8545 271.092 100.715 270.036C100.734 270.017 100.752 269.996 100.769 269.974C101.205 269.434 101.646 268.897 102.083 268.357L102.083 268.356C102.106 266.7 101.916 265.047 101.517 263.439Z" fill="#F2F2F2"/>
<path d="M140.383 40.4334C140.383 48.2466 136.475 56.1973 128.661 56.1973C120.848 56.1973 110.068 50.5385 112.493 38.4124C114.026 30.751 118.423 26.2864 126.236 26.2864C129.988 26.2864 133.587 27.7769 136.24 30.43C138.893 33.083 140.383 36.6814 140.383 40.4334Z" fill="#2F2E41"/>
<path d="M107.608 152.064C108.034 151.591 108.351 151.031 108.537 150.423C108.723 149.815 108.773 149.174 108.684 148.544C108.596 147.914 108.37 147.312 108.023 146.779C107.676 146.246 107.217 145.795 106.677 145.459L110.097 130.385L102.58 133.214L100.484 147.095C99.9796 148.039 99.8387 149.135 100.088 150.176C100.338 151.218 100.961 152.131 101.839 152.743C102.717 153.356 103.789 153.625 104.853 153.5C105.916 153.374 106.896 152.863 107.608 152.064Z" fill="#FFB8B8"/>
<path d="M123.565 98.6347L118.318 99.1688C118.318 99.1688 119.691 106.942 117.544 108.693C115.398 110.444 116.264 110.435 116.276 111.733C116.288 113.03 115.444 115.201 113.726 116.516C112.009 117.83 108.436 141.235 108.436 141.235L100.651 141.309C100.883 139.296 100.864 137.262 100.593 135.254C100.131 132.23 97.798 124.614 98.6506 123.308C99.5032 122.003 99.0543 119.601 99.0294 117.006C99.0045 114.411 102.717 117.278 102.676 112.953C102.634 108.628 107.396 81.4872 106.926 77.5986C106.456 73.71 111.181 70.2041 111.181 70.2041L115.506 70.1626L123.565 98.6347Z" fill="#3FC1C9"/>
<path d="M179.269 62.1331C179.4 62.7212 179.4 63.3308 179.27 63.9191C179.14 64.5073 178.882 65.0599 178.515 65.5378C178.148 66.0157 177.681 66.4074 177.147 66.6852C176.612 66.9631 176.023 67.1203 175.421 67.1459L171.212 81.1733L166.331 75.3342L171.076 62.9088C171.1 61.8947 171.495 60.9247 172.187 60.1825C172.878 59.4404 173.818 58.9776 174.828 58.882C175.838 58.7864 176.848 59.0645 177.666 59.6637C178.485 60.2629 179.055 61.1415 179.269 62.1331Z" fill="#FFB8B8"/>
<path d="M134.829 66.7019C134.829 66.7019 145.005 62.8865 150.522 83.7812L157.845 91.3662L163.998 80.2482L163.185 77.6107L167.94 66.8303L176.093 71.5093L174.086 78.9107L174.425 82.5695L172.477 84.8452L169.288 96.6066L167.293 100.449C167.293 100.449 164.777 105.369 160.385 106.18C159.214 106.399 158.016 106.433 156.834 106.28C154.521 105.978 151.987 104.913 149.382 102.56C139.718 93.8315 134.003 87.0984 134.003 87.0984L134.829 66.7019Z" fill="#3FC1C9"/>
<path d="M183.887 71.1459L165.772 53.6633C165.673 53.568 165.615 53.4384 165.609 53.3013C165.603 53.1642 165.65 53.03 165.74 52.9264C165.83 52.8227 165.956 52.7575 166.092 52.7442C166.229 52.7309 166.366 52.7705 166.474 52.8548L185.681 67.819L183.887 71.1459Z" fill="#3F3D56"/>
<path d="M191.348 73.0838C190.439 73.4029 189.496 73.6136 188.538 73.7115C188.051 73.7594 187.562 73.7766 187.077 73.7824C186.906 73.7883 186.734 73.789 186.565 73.7912C186.162 73.7971 185.759 73.8031 185.352 73.8076C185.009 73.8143 184.662 73.8195 184.321 73.8223C183.818 73.8301 183.266 73.8197 182.905 73.4664C182.753 73.2882 182.642 73.0784 182.58 72.8521C182.518 72.6259 182.508 72.3887 182.549 72.1579C182.629 71.6751 182.775 71.2057 182.984 70.7628C183.418 69.7169 183.857 68.6724 184.291 67.6265L184.224 67.0411C185.022 66.9256 185.834 66.9505 186.623 67.1147C186.946 67.1971 187.248 67.3438 187.512 67.5461C187.777 67.7484 187.997 68.0021 188.161 68.292C188.23 68.4223 188.285 68.5596 188.324 68.7014C188.494 69.3247 188.372 70.0164 188.445 70.6685C188.462 70.8042 188.487 70.9387 188.52 71.0713C188.613 71.4634 188.792 71.8301 189.044 72.1452C189.295 72.4603 189.613 72.716 189.974 72.8941C190.406 73.084 190.881 73.1497 191.348 73.0838Z" fill="#CCCCCC"/>
<path d="M192.622 72.577C192.244 72.8451 191.807 73.0189 191.348 73.0838C191.781 72.9363 192.206 72.7671 192.622 72.577Z" fill="#E6E6E6"/>
<path d="M191.348 73.0838C190.44 73.4029 189.496 73.6136 188.538 73.7115C188.051 73.7594 187.562 73.7766 187.077 73.7824C186.907 73.7884 186.734 73.7891 186.565 73.7912C186.162 73.7971 185.759 73.8031 185.352 73.8077C185.372 73.6034 185.403 73.4004 185.444 73.1993C185.824 71.3229 186.927 69.7273 188.161 68.292C188.23 68.4223 188.285 68.5596 188.324 68.7015C188.494 69.3247 188.372 70.0164 188.445 70.6685C188.462 70.8042 188.487 70.9387 188.52 71.0713C188.614 71.4634 188.792 71.8301 189.044 72.1452C189.295 72.4603 189.613 72.716 189.975 72.8941C190.406 73.084 190.882 73.1497 191.348 73.0838Z" fill="#3FC1C9"/>
<path d="M121.179 101.689L120.46 105.12L119.848 117.773L144.438 114.443L146.326 99.792L143.716 95.5034L121.179 101.689Z" fill="#FFB6B6"/>
<path d="M139.367 49.9372C142.45 44.2974 140.378 37.2262 134.738 34.1433C129.098 31.0603 122.027 33.133 118.944 38.7727C115.861 44.4125 117.934 51.4836 123.573 54.5666C129.213 57.6496 136.284 55.5769 139.367 49.9372Z" fill="#FFB7B7"/>
<path d="M111.623 85.9212L108.423 77.6067C108.421 74.1259 109.599 70.7473 111.764 68.022C113.93 65.2967 116.955 63.3856 120.346 62.6004L120.39 62.5901L122.691 59.4894L132.04 60.4247L133.754 63.927L140.529 67.9611L148.234 76.9833C150.661 78.7257 152.102 80.9598 152.519 83.6244C153.405 89.2811 149.444 94.9409 148.973 95.5899L147.759 102.426L119.693 106.448L119.478 106.475L111.623 85.9212Z" fill="#3FC1C9"/>
<path d="M116.976 47.4058C117.082 47.3892 117.187 47.3669 117.293 47.3503C119.108 47.0283 120.923 46.7119 122.733 46.3843L122.9 42.2819L125.092 45.9569C130.094 47.6167 134.774 46.6786 139.176 44.6079C140.629 43.9185 142.038 43.1418 143.396 42.2818C144.343 36.5031 141.954 31.949 135.818 31.3677C135.627 31.3496 135.49 31.19 135.324 31.1067L135.322 31.1063L135.32 31.1051L135.319 31.1033L135.318 31.1011C135.035 30.9679 134.746 30.8402 134.458 30.7237C132.198 29.8404 129.733 29.6168 127.351 30.0786C124.969 30.5405 122.767 31.669 121.001 33.3328C117.448 36.7248 115.849 42.3262 116.976 47.4058Z" fill="#2F2E41"/>
<path d="M138.321 244.962L144.998 248.03L160.008 223.737L150.154 219.209L138.321 244.962Z" fill="#FFB6B6"/>
<path d="M138.179 240.908L149.023 245.128L146.945 249.65L153.794 261.191C154.133 261.761 154.28 262.424 154.215 263.084C154.15 263.744 153.875 264.365 153.432 264.858C152.988 265.35 152.399 265.688 151.75 265.822C151.101 265.956 150.426 265.879 149.823 265.602L137.258 259.828L137.148 254.36L134.246 258.444L129.509 256.267L138.179 240.908Z" fill="#2F2E41"/>
<path d="M109.135 260.035H116.483L119.979 231.693L109.134 231.694L109.135 260.035Z" fill="#FFB6B6"/>
<path d="M105.139 201.879L105.138 201.803L107.898 197.047L105.08 190.856L104.88 153.228C103.77 126.037 119.545 112.966 119.669 112.838L120.011 112.482L145.31 111.863C145.31 111.863 158.607 150.898 169.171 186.07C169.795 188.149 171.561 190.2 171.012 192.257C166.656 208.581 161.486 227.057 158.168 227.579L147.658 221.92L149.612 193.629L148.411 190.55C146.26 190.154 140.667 168.451 140.667 168.451C139.73 167.338 139.778 164.312 139.778 164.312L132.453 156.621L125.702 192.07L127.371 202.644L125.99 206.279L120.073 236.293L120.01 236.776L108.855 235.663L105.139 201.879Z" fill="#2F2E41"/>
<path d="M106.647 256.411L118.262 255.717V260.694L129.305 268.321C129.851 268.697 130.262 269.238 130.478 269.865C130.694 270.492 130.704 271.171 130.507 271.804C130.309 272.436 129.915 272.99 129.381 273.383C128.847 273.775 128.202 273.987 127.539 273.987H113.71L111.327 269.065L110.396 273.987H105.182L106.647 256.411Z" fill="#2F2E41"/>
<path d="M121.435 30.8122V30.822C121.436 31.4311 121.359 32.0379 121.204 32.627C121.179 32.7303 121.15 32.8385 121.115 32.9418V32.9467C120.785 33.9988 120.216 34.9601 119.452 35.7554C118.689 36.5507 117.751 37.1583 116.713 37.5305C116.561 37.5896 116.404 37.6387 116.246 37.683C115.915 37.7792 115.576 37.8482 115.233 37.8896C114.925 37.9332 114.614 37.9546 114.303 37.9535C114.06 37.9545 113.817 37.943 113.576 37.9191C113.009 37.8618 112.453 37.7346 111.918 37.5403C111.834 37.516 111.752 37.4865 111.672 37.4518C111.632 37.4375 111.593 37.4211 111.554 37.4027C110.662 37.0292 109.855 36.4783 109.182 35.7834C108.509 35.0885 107.985 34.2641 107.64 33.3603C107.296 32.4564 107.138 31.492 107.178 30.5256C107.217 29.5591 107.453 28.6108 107.87 27.7382L107.875 27.7333C108.225 27.0012 108.699 26.3355 109.277 25.766C110.566 24.4823 111.133 21.2653 113.091 21.2653C113.184 21.2636 113.278 21.2669 113.371 21.2751C114.684 21.3194 117.112 24.1528 118.145 24.8217C118.912 25.3063 119.577 25.9361 120.102 26.6759C120.651 27.4368 121.042 28.2996 121.253 29.2137C121.374 29.738 121.435 30.2742 121.435 30.8122Z" fill="#2F2E41"/>
<path d="M112.722 28.3289C111.614 29.6183 109.88 30.1195 108.316 30.7905C105.555 32.0016 103.132 33.8678 101.255 36.2274C99.3789 38.587 98.1064 41.3686 97.5481 44.3312C97.1157 46.7443 97.1722 49.2422 96.4891 51.5947C95.8101 53.9471 94.1286 56.2551 91.7155 56.6634C90.0825 56.9423 88.4455 56.3117 86.9096 55.6892C86.0648 55.3497 85.22 55.0088 84.3752 54.6666C85.2564 52.4556 86.1362 50.2447 87.0147 48.0337C85.6028 50.1203 83.9609 52.0415 82.1198 53.7612C79.0923 52.5405 76.0622 51.3198 73.0293 50.0991C80.4909 50.1274 79.2176 42.8841 80.887 35.6166C81.8045 31.6231 89.6177 28.919 91.1496 25.1195C91.9774 23.0587 93.3783 21.2781 95.1864 19.9886C96.9945 18.6991 99.1343 17.9546 101.352 17.8431C103.57 17.7317 105.774 18.2581 107.702 19.3599C109.63 20.4618 111.203 22.093 112.233 24.0605C113.765 24.6708 113.809 27.0556 112.722 28.3289Z" fill="#2F2E41"/>
<path d="M144.414 113.644C146.13 114.092 147.714 114.948 149.029 116.139C150.344 117.33 151.352 118.821 151.966 120.486C152.298 121.443 152.506 122.578 151.935 123.488C151.76 123.814 151.474 124.066 151.128 124.198C150.782 124.329 150.4 124.33 150.053 124.202C149.308 123.895 148.795 123.133 148.415 122.458C147.913 121.503 147.482 120.513 147.124 119.496C146.539 117.961 145.29 115.398 147.073 114.198C148.573 113.189 150.558 113.581 152.246 113.512C154.069 113.437 156.096 112.739 156.744 110.849C157.374 109.011 155.897 107.282 154.304 106.583C153.347 106.186 152.307 106.03 151.275 106.128C150.244 106.226 149.252 106.576 148.387 107.147C146.677 108.332 145.456 110.098 144.951 112.116C144.915 112.269 144.939 112.431 145.019 112.566C145.099 112.701 145.228 112.801 145.38 112.842C145.532 112.884 145.694 112.865 145.832 112.79C145.97 112.715 146.073 112.589 146.12 112.439C146.621 110.611 147.704 108.891 149.394 107.954C150.976 107.077 153.146 107.023 154.622 108.159C155.352 108.72 155.926 109.655 155.552 110.583C155.208 111.434 154.315 111.941 153.464 112.146C151.54 112.611 149.528 112.009 147.61 112.624C145.782 113.21 144.728 114.706 144.992 116.646C145.191 117.737 145.514 118.801 145.955 119.819C146.329 120.864 146.767 121.887 147.265 122.88C148.027 124.318 149.399 125.876 151.211 125.454C153.276 124.973 153.766 122.563 153.323 120.79C152.314 116.747 148.693 113.508 144.736 112.475C144.583 112.439 144.422 112.463 144.286 112.543C144.151 112.623 144.052 112.752 144.01 112.904C143.968 113.056 143.987 113.218 144.062 113.356C144.138 113.494 144.263 113.597 144.414 113.644Z" fill="#2F2E41"/>
<path d="M162.56 224.079C161.702 223.066 160.48 222.447 159.291 221.855L149.322 216.889L149.038 218.659C148.661 217.495 146.811 217.409 146.061 218.376C145.311 219.342 145.551 220.803 146.283 221.783C147.014 222.763 148.125 223.375 149.201 223.958C151.586 225.248 153.971 226.539 156.356 227.83C157.468 228.432 158.615 229.045 159.871 229.182C161.127 229.32 162.534 228.867 163.16 227.769C163.818 226.616 163.417 225.093 162.56 224.079Z" fill="#2F2E41"/>
<path d="M123.778 233.326C122.558 232.802 121.188 232.795 119.86 232.796C116.148 232.799 112.435 232.802 108.723 232.805L109.259 234.515C108.402 233.642 106.708 234.391 106.469 235.591C106.229 236.79 107.096 237.99 108.189 238.541C109.281 239.091 110.548 239.142 111.771 239.183C114.481 239.273 117.192 239.363 119.903 239.453C121.166 239.494 122.466 239.531 123.651 239.093C124.836 238.654 125.893 237.621 125.963 236.359C126.036 235.034 124.997 233.85 123.778 233.326Z" fill="#2F2E41"/>
<path d="M186.377 155.127C170.042 155.127 152.291 151.872 134.659 145.612C112.856 137.872 92.864 126.189 76.8457 111.825L77.32 110.874C93.2612 125.168 113.164 136.798 134.878 144.506C154.5 151.472 174.269 154.7 192.041 153.848L192.072 154.991C190.195 155.082 188.297 155.127 186.377 155.127Z" fill="#F0F0F0"/>
<path d="M40.0375 95.5146C26.9493 78.2373 32.1397 58.5183 24.4718 44.7618C-4.91627 -7.96195 31.2711 -3.10442 72.1845 7.14863L72.2821 8.28606C46.2422 12.3046 29.1169 25.7064 25.2971 45.0547C22.3284 60.0915 27.776 77.7223 40.6364 94.6991L40.0375 95.5146Z" fill="#F0F0F0"/>
<path d="M166.316 156.844C149.982 156.844 131.209 138.717 114.599 147.329C64.3107 173.406 71.2332 129.771 56.7856 113.543L57.26 112.591C73.2012 126.885 93.1043 138.515 114.818 146.223C134.44 153.189 154.209 156.417 171.981 155.565L172.012 156.708C170.135 156.799 168.237 156.844 166.316 156.844Z" fill="#F0F0F0"/>
<path d="M203.791 149.645L203.517 148.561C218.126 141.938 216.871 122.209 229.942 117.704C329.51 83.386 231.225 79.5158 209.118 61.3631C189.349 45.1299 167.803 26.2566 140.421 16.5364L140.64 15.4297C168.141 25.1928 192.657 41.1951 209.669 60.4892C226.768 79.88 234.26 100.303 230.767 117.997C228.013 131.95 218.684 142.893 203.791 149.645Z" fill="#F0F0F0"/>
<path d="M69.6431 157.322C52.0601 128.574 28.6992 102.895 0 87.587L0.711028 86.9538C13.4354 112.655 38.0387 137.274 69.9891 156.276L69.6431 157.322Z" fill="#F0F0F0"/>
<path d="M182.494 190.392C179.184 190.392 175.816 190.293 172.393 190.095L172.429 188.951C197.682 203.319 220.21 199.902 237.627 177.092L237.946 178.154C223.026 186.215 204.009 190.392 182.494 190.392Z" fill="#F0F0F0"/>
<path d="M187.669 179.448C189.555 179.448 191.084 177.399 191.084 174.87C191.084 172.341 189.555 170.291 187.669 170.291C185.784 170.291 184.255 172.341 184.255 174.87C184.255 177.399 185.784 179.448 187.669 179.448Z" fill="#FD6584"/>
<path d="M72.3203 95.687C72.6033 93.8227 70.8061 92.0036 68.3061 91.6241C65.8061 91.2445 63.5499 92.4482 63.2669 94.3126C62.9838 96.177 64.7811 97.996 67.2811 98.3756C69.7811 98.7551 72.0373 97.5514 72.3203 95.687Z" fill="#E6E6E6"/>
<path d="M56.6014 46.0077C58.4872 46.0077 60.0159 43.9578 60.0159 41.4292C60.0159 38.9005 58.4872 36.8506 56.6014 36.8506C54.7157 36.8506 53.187 38.9005 53.187 41.4292C53.187 43.9578 54.7157 46.0077 56.6014 46.0077Z" fill="#E6E6E6"/>
<path d="M64.3608 72.2304C59.9079 66.0243 51.5033 62.8172 45.5887 65.0671C39.6741 67.3171 38.4893 74.1721 42.9422 80.3782C47.3952 86.5843 60.5031 96.3464 66.4177 94.0965C72.3323 91.8465 68.8138 78.4365 64.3608 72.2304ZM64.3882 91.3188C63.6602 92.3862 61.874 92.4357 60.3986 91.4294C58.9233 90.4231 58.3175 88.742 59.0455 87.6746C59.7736 86.6072 61.5598 86.5577 63.0351 87.564C64.5105 88.5703 65.1163 90.2514 64.3882 91.3188Z" fill="#3F3D56"/>
<path d="M59.3337 78.301C58.7792 78.7493 58.2246 79.1975 57.6701 79.6458C56.9895 80.2734 56.1836 80.7498 55.3056 81.0434C54.1001 81.322 52.8399 81.247 51.676 80.8273C49.9792 80.2792 48.4921 79.2224 47.4164 77.8004L48.6151 78.0677C47.9791 77.3315 47.462 76.5005 47.0825 75.6047C46.8014 74.7734 46.9582 73.9297 47.717 73.702C48.5856 73.4413 49.984 74.0273 50.7133 73.6061C51.9744 72.8777 49.9012 70.1653 51.0504 69.3285C51.72 68.841 53.0598 69.3233 54.1766 69.8016C55.5658 70.3309 56.8823 71.0339 58.0948 71.8939C60.0787 73.426 61.177 75.8408 60.367 77.2385C60.0899 77.6525 59.7398 78.0125 59.3337 78.301Z" fill="#3FC1C9"/>
<path d="M58.9252 82.9547C57.9554 83.0875 56.8334 82.342 55.8976 81.6542L55.6593 81.3424C55.4644 80.7455 55.3825 80.1175 55.4176 79.4905C55.4397 79.2001 55.5599 78.9257 55.7583 78.7125C55.9568 78.4992 56.2218 78.3597 56.51 78.3168C57.0789 78.2419 57.838 78.4873 58.2138 78.1582C58.9403 77.5218 57.2555 75.7677 58.0258 75.1722C58.4582 74.838 59.3768 75.2665 59.7729 75.841C60.0964 76.3765 60.2457 76.9993 60.2002 77.6233C60.2131 78.5397 60.2259 79.4561 60.2388 80.3724C60.2797 80.9135 60.2249 81.4575 60.077 81.9795C59.9957 82.2337 59.8446 82.4599 59.6409 82.6323C59.4373 82.8047 59.1893 82.9164 58.9252 82.9547Z" fill="#2F2E41"/>
<path d="M59.168 86.0083C57.8238 85.6113 55.7738 84.226 54.0278 83.0027L53.508 82.5504C52.9637 81.933 52.5023 81.2471 52.1357 80.5102C51.9342 79.9584 52.1935 79.6361 53.0861 79.9026C53.8762 80.1385 55.1206 80.809 55.4886 80.6769C56.2001 80.4213 52.7727 77.6876 53.5707 77.4983C54.0185 77.392 55.5968 78.3389 56.4918 79.1485C57.1508 79.7331 57.6952 80.4353 58.0971 81.2192C58.6202 82.1701 59.1433 83.1209 59.6663 84.0717C59.9823 84.5465 60.2024 85.0785 60.3144 85.6378C60.3252 86.0425 59.9837 86.2492 59.168 86.0083Z" fill="#FF6584"/>
<path d="M249.447 11.8146C249.974 5.13838 254.392 13.0162 261.069 13.5436C262.656 13.6684 264.204 14.1048 265.624 14.8279C267.043 15.551 268.306 16.5467 269.34 17.758C270.374 18.9693 271.16 20.3725 271.652 21.8874C272.144 23.4024 272.332 24.9994 272.207 26.5873C272.082 28.1752 271.644 29.7228 270.921 31.1418C270.197 32.5607 269.201 33.8232 267.989 34.857C266.777 35.8909 265.374 36.6759 263.859 37.1672C262.344 37.6585 260.746 37.8465 259.159 37.7204C252.482 37.193 248.919 18.4908 249.447 11.8146Z" fill="#3FC1C9"/>
<path d="M291.01 75.9171C291.136 74.3297 291.573 72.7824 292.296 71.3638C293.019 69.9452 294.015 68.6829 295.226 67.649C296.437 66.6152 297.84 65.8301 299.355 65.3384C300.87 64.8468 302.466 64.6583 304.054 64.7837C310.73 65.3111 315.196 52.0532 314.668 58.7294C314.141 65.4056 308.82 89.4879 302.144 88.9604C300.556 88.835 299.009 88.3982 297.59 87.6748C296.172 86.9515 294.91 85.9558 293.876 84.7446C292.842 83.5334 292.057 82.1305 291.565 80.6158C291.073 79.1012 290.885 77.5046 291.01 75.9171Z" fill="#3FC1C9"/>
<path d="M306.229 90.5297C304.404 91.4096 302.295 90.8909 300.72 89.7289C298.927 88.4073 298.044 86.3051 297.752 84.1486C297.471 81.8339 297.664 79.4862 298.32 77.2486C298.943 75.0901 300.278 72.85 302.663 72.4048C304.253 72.1081 305.95 72.7864 306.391 74.4374C306.558 75.0996 306.552 75.7938 306.373 76.453C306.195 77.1123 305.849 77.7143 305.37 78.2011C303.943 79.572 301.653 79.4677 299.995 78.5964C298.046 77.5716 296.971 75.5212 296.616 73.4131C296.194 70.9067 296.783 68.3882 297.622 66.0303C298.533 63.4676 299.669 60.9816 300.711 58.4706C302.745 53.5738 304.655 48.5716 305.465 43.3058C306.702 35.2616 304.776 25.7148 297.723 20.7905C293.916 18.1322 289.142 17.3792 284.599 17.9513C279.809 18.5547 275.408 20.6565 271.51 23.4396C269.482 24.9132 267.557 26.5223 265.746 28.2559C265.198 28.8202 264.493 29.2086 263.723 29.3717C262.953 29.5349 262.152 29.4654 261.422 29.1722C257.673 27.6466 258.868 21.5472 262.732 21.0927C264.487 20.8862 266.296 21.8657 267.486 23.0896C268.785 24.4786 269.633 26.2286 269.918 28.109C270.579 32.0668 269.112 36.2504 266.563 39.2758C263.683 42.6936 259.307 44.6177 255.047 45.6312C250.197 46.7851 245.208 46.8439 240.251 46.9536C235.177 47.0658 230.044 47.2586 225.147 48.7142C221.205 49.8978 217.487 51.7251 214.142 54.1221C207.402 58.9094 202.359 65.7149 199.74 73.5558C199.125 75.4525 198.669 77.3974 198.378 79.37C198.264 80.1423 199.473 80.2346 199.587 79.4655C200.862 70.8665 205.518 62.9588 212.062 57.2979C215.327 54.4609 219.064 52.2188 223.104 50.6736C227.97 48.8275 233.139 48.3594 238.303 48.2087C243.577 48.0548 248.899 48.1386 254.094 47.0827C258.688 46.1492 263.339 44.3181 266.685 40.927C269.636 37.937 271.462 33.6593 271.266 29.4318C271.083 25.4981 268.917 21.2919 264.903 20.123C263.02 19.5745 260.998 19.9234 259.6 21.3612C258.822 22.1809 258.287 23.1999 258.053 24.3053C257.82 25.4107 257.897 26.5592 258.276 27.6234C258.776 28.7797 259.689 29.7085 260.836 30.2292C261.983 30.7498 263.283 30.825 264.482 30.4401C265.363 30.1166 266.159 29.5965 266.808 28.9195C270.598 25.3709 274.839 22.1143 279.774 20.3472C284.377 18.699 289.671 18.3609 294.251 20.2618C302.922 23.8604 305.527 34.3044 304.315 42.8117C303.522 48.3792 301.414 53.6509 299.258 58.8082C298.157 61.4417 296.933 64.0583 296.09 66.7895C295.336 69.2349 294.957 71.859 295.576 74.3784C296.116 76.5773 297.395 78.5983 299.44 79.6635C301.298 80.6311 303.655 80.7981 305.475 79.6474C308.107 77.9838 308.699 73.3901 305.743 71.7162C303.782 70.6054 301.271 71.1511 299.644 72.6099C297.821 74.2453 297.076 76.6945 296.7 79.0382C295.989 83.4671 296.548 88.9208 300.922 91.2902C302.724 92.2663 304.873 92.5299 306.757 91.6217C306.896 91.5485 307.002 91.424 307.051 91.2746C307.1 91.1251 307.089 90.9624 307.021 90.8208C306.952 90.6791 306.831 90.5696 306.684 90.5153C306.536 90.461 306.373 90.4662 306.229 90.5297Z" fill="#3F3D56"/>
<path d="M198.132 76.2837C198.691 69.2039 189.004 50.274 193.171 45.1498C193.688 44.5095 194.23 43.8901 194.798 43.2916C196.636 41.3323 198.703 39.6019 200.955 38.138C201.336 37.8842 201.72 37.6429 202.107 37.41C203.483 36.5889 204.915 35.8661 206.393 35.2469C206.661 35.1383 206.933 35.0301 207.206 34.9218C214.658 32.0381 222.892 31.892 230.442 34.5096C237.992 37.1271 244.369 42.3385 248.437 49.2164C252.506 56.0942 254.002 64.1925 252.66 72.07C251.317 79.9474 247.224 87.0932 241.107 92.2358C240.786 92.5104 240.457 92.7763 240.12 93.0376C236.776 95.648 232.97 97.6021 228.9 98.7967C228.896 98.7964 228.895 98.8005 228.891 98.8001C222.788 100.582 216.307 100.611 210.189 98.8837L210.181 98.8831C210.046 98.8441 209.911 98.805 209.777 98.762C194.812 94.3401 196.854 92.462 198.132 76.2837Z" fill="#3FC1C9"/>
<path d="M206.377 35.3996C206.376 35.3483 206.381 35.297 206.393 35.2469C206.661 35.1383 206.933 35.03 207.205 34.9218C207.319 34.9675 207.416 35.0469 207.484 35.1493C207.552 35.2517 207.588 35.3723 207.585 35.4952C207.587 36.1079 207.658 36.7186 207.794 37.316C208.966 42.5011 214.274 45.5235 219.013 46.8182C224.811 48.4075 231.041 48.4293 236.45 51.3016C238.673 52.4175 240.591 54.058 242.037 56.0813C243.543 58.303 244.174 61.0026 243.81 63.6616C242.983 69.9174 238.167 74.4835 236.183 80.2912C235.366 82.6837 235.165 85.2303 236.095 87.623C236.883 89.6558 238.44 91.51 240.677 91.9301C240.767 91.9439 240.853 91.9788 240.928 92.0319C241.003 92.0849 241.064 92.1547 241.107 92.2357C240.785 92.5103 240.456 92.7762 240.119 93.0375C239.715 92.9442 239.322 92.8085 238.947 92.6327C236.806 91.6121 235.422 89.5768 234.729 87.361C233.93 84.7962 234.234 82.1279 235.129 79.632C237.214 73.8122 242.369 69.0255 242.69 62.5999C242.968 57.0306 238.39 53.182 233.614 51.3288C227.705 49.0375 221.081 49.3779 215.259 46.8055C210.679 44.7813 206.398 40.725 206.377 35.3996Z" fill="#3F3D56"/>
<path d="M200.954 38.1379C201.335 37.8842 201.719 37.6429 202.107 37.41C202.151 37.4663 202.184 37.5317 202.201 37.6016C202.219 37.6715 202.221 37.7444 202.208 37.8153C201.595 43.0119 202.99 48.2464 206.108 52.4484C207.457 54.292 209.107 55.8947 210.989 57.1885C212.959 58.5321 215.173 59.3437 217.36 60.2543C219.511 61.15 221.686 62.2017 223.244 63.9832C224.832 65.7994 225.498 68.1429 225.57 70.5164C225.738 76.1413 222.541 81.0461 221.882 86.5205C221.587 88.9624 221.939 91.3865 223.303 93.4769C224.482 95.2811 226.328 96.5947 228.545 96.5103C229.277 96.4789 229.229 97.5456 228.584 97.7014C228.54 97.7121 228.495 97.718 228.449 97.7191C225.871 97.8155 223.665 96.2302 222.301 94.1438C220.713 91.7194 220.32 88.8866 220.722 86.0518C221.504 80.5669 224.824 75.4973 224.324 69.8219C224.255 68.631 223.937 67.4677 223.39 66.4075C222.843 65.3473 222.079 64.4139 221.149 63.6676C219.231 62.1741 216.889 61.3849 214.667 60.4633C212.446 59.5888 210.379 58.3662 208.543 56.8413C206.75 55.2981 205.216 53.4782 203.998 51.4504C201.563 47.4617 200.495 42.7883 200.954 38.1379Z" fill="#3F3D56"/>
<path d="M193.171 45.1498C193.688 44.5094 194.23 43.89 194.797 43.2915C194.011 46.3795 193.877 49.5974 194.404 52.7401C195.038 56.6942 196.66 60.4244 199.118 63.5856C200.351 65.1597 201.803 66.5485 203.431 67.7092C205.293 69.0322 207.35 70.1881 208.583 72.1831C211.258 76.5138 208.813 81.6971 207.498 86.0208C206.809 88.2775 206.342 90.7018 207.105 93.0002C207.698 94.7824 209.013 96.5122 210.956 96.8643C211.72 97.0017 211.628 98.2149 210.86 98.0732C210.717 98.0456 210.573 98.014 210.43 97.9783C208.321 97.4225 206.799 95.6966 206.06 93.6596C205.102 91.0012 205.551 88.247 206.355 85.6062C207.68 81.2629 210.403 75.5867 206.646 71.657C205.062 69.9992 202.917 68.9823 201.186 67.4873C199.634 66.1538 198.272 64.6152 197.136 62.9141C193.656 57.6897 192.243 51.3581 193.171 45.1498Z" fill="#3F3D56"/>
<path d="M216.338 131.703V130.925H203.285V112.761H202.508V130.925H187.549V116.897C187.287 117.103 187.029 117.315 186.774 117.532V130.925H176.893C176.784 131.182 176.678 131.442 176.578 131.703H186.774V146.967H174.114C174.126 147.228 174.144 147.486 174.166 147.745H186.774V159.922H177.329C177.444 160.183 177.566 160.441 177.694 160.696H186.774V170.932H187.549V160.696H202.508V170.932H203.285V160.696H216.338V159.922H203.285C203.285 158.323 203.599 156.739 204.211 155.262C204.823 153.784 205.72 152.442 206.851 151.311C207.981 150.18 209.324 149.283 210.801 148.671C212.279 148.06 213.862 147.745 215.462 147.745H216.338V146.967H203.285V131.703H216.338ZM202.508 159.922H187.549V147.745H202.508V159.922ZM202.508 146.967H187.549V146.661C187.549 144.697 187.936 142.752 188.688 140.937C189.44 139.122 190.542 137.473 191.931 136.084C193.32 134.695 194.969 133.593 196.784 132.842C198.599 132.09 200.544 131.703 202.508 131.703V146.967Z" fill="#3F3D56"/>
<path d="M179.412 274.606L67.9539 274.73C67.8263 274.73 67.7039 274.679 67.6136 274.589C67.5234 274.499 67.4727 274.376 67.4727 274.249C67.4727 274.121 67.5234 273.999 67.6136 273.908C67.7039 273.818 67.8263 273.767 67.9539 273.767L179.412 273.643C179.476 273.643 179.538 273.655 179.597 273.679C179.656 273.704 179.709 273.739 179.754 273.784C179.798 273.828 179.834 273.881 179.858 273.94C179.883 273.998 179.895 274.061 179.895 274.124C179.895 274.188 179.883 274.25 179.858 274.309C179.834 274.367 179.798 274.421 179.754 274.465C179.709 274.51 179.656 274.545 179.597 274.57C179.538 274.594 179.476 274.606 179.412 274.606Z" fill="#CACACA"/>
</svg>
