<svg width="343" height="290" viewBox="0 0 343 290" fill="none" xmlns="http://www.w3.org/2000/svg">
<g clip-path="url(#clip0_73_208)">
<path d="M338.382 99.225C338.785 100.799 339.162 102.382 339.514 103.972H219.763V99.225H338.382Z" fill="#E6E6E6"/>
<path d="M334.565 86.7115C332.637 81.2618 330.389 75.9309 327.833 70.7468C327.046 69.1484 326.23 67.566 325.382 65.9996C325.243 65.7308 325.095 65.462 324.946 65.1932V100.521H335.294V88.8139L334.565 86.7115Z" fill="#E6E6E6"/>
<path d="M327.833 70.7468H324.946V65.9996H325.382C326.231 67.5644 327.048 69.1468 327.833 70.7468Z" fill="#CCCCCC"/>
<path d="M334.565 86.7115H324.946V91.4587H335.294V88.8139L334.565 86.7115Z" fill="#CCCCCC"/>
<path d="M319.343 59.5278H308.996V100.522H319.343V59.5278Z" fill="#E6E6E6"/>
<path d="M319.343 66.0005H308.996V70.7472H319.343V66.0005Z" fill="#CCCCCC"/>
<path d="M319.343 86.7131H308.996V91.4598H319.343V86.7131Z" fill="#CCCCCC"/>
<path d="M272.16 59.2892H235.045C234.473 59.2901 233.925 59.518 233.52 59.9228C233.116 60.3277 232.888 60.8766 232.887 61.4492V98.601C232.888 98.8123 232.919 99.0224 232.979 99.225C233.113 99.6689 233.387 100.058 233.759 100.334C234.131 100.611 234.582 100.76 235.045 100.761H272.16C272.624 100.76 273.075 100.611 273.447 100.334C273.819 100.058 274.092 99.669 274.227 99.225C274.287 99.0224 274.317 98.8123 274.318 98.601V61.4492C274.317 60.8766 274.09 60.3277 273.685 59.9228C273.281 59.518 272.732 59.2901 272.16 59.2892Z" fill="#E6E6E6"/>
<path d="M269.523 61.9293H237.683C237.111 61.9301 236.562 62.158 236.158 62.5629C235.753 62.9677 235.526 63.5166 235.525 64.0892V95.9611C235.526 96.5337 235.753 97.0826 236.158 97.4875C236.562 97.8923 237.111 98.1202 237.683 98.1211H269.523C270.095 98.1202 270.643 97.8923 271.048 97.4875C271.452 97.0826 271.68 96.5337 271.681 95.9611V64.0892C271.68 63.5166 271.452 62.9677 271.048 62.5629C270.643 62.158 270.095 61.9301 269.523 61.9293Z" fill="white"/>
<path d="M263.97 67.4876H243.236C242.664 67.4885 242.115 67.7163 241.711 68.1212C241.306 68.5261 241.079 69.075 241.078 69.6476V90.4027C241.079 90.9753 241.306 91.5242 241.711 91.9291C242.115 92.334 242.664 92.5618 243.236 92.5627H263.97C264.542 92.5597 265.089 92.3312 265.493 91.9268C265.897 91.5223 266.125 90.9746 266.128 90.4027V69.6476C266.127 69.075 265.9 68.5261 265.495 68.1212C265.091 67.7163 264.542 67.4885 263.97 67.4876Z" fill="#CCCCCC"/>
<path d="M262.692 86.7419L258.312 79.1488C258.228 79.0029 258.107 78.8817 257.961 78.7974C257.816 78.7132 257.65 78.6688 257.482 78.6688C257.313 78.6688 257.148 78.7132 257.002 78.7974C256.856 78.8817 256.735 79.0029 256.651 79.1488L253.453 84.6933L249.259 77.4227C249.175 77.2767 249.054 77.1556 248.908 77.0713C248.762 76.987 248.597 76.9427 248.429 76.9427C248.26 76.9427 248.095 76.9871 247.949 77.0713C247.803 77.1556 247.682 77.2768 247.598 77.4227L243.219 85.0158L238.009 94.0489H248.057L247.062 95.775H267.902L262.692 86.7419Z" fill="white"/>
<path d="M261.146 75.0623C262.813 75.0623 264.164 73.7099 264.164 72.0417C264.164 70.3735 262.813 69.0211 261.146 69.0211C259.479 69.0211 258.128 70.3735 258.128 72.0417C258.128 73.7099 259.479 75.0623 261.146 75.0623Z" fill="white"/>
<path d="M342.962 132.767C342.928 130.905 342.855 129.052 342.741 127.209C342.693 126.326 342.636 125.447 342.564 124.569H322.318C321.746 124.57 321.198 124.798 320.793 125.203C320.389 125.607 320.161 126.156 320.16 126.729V163.881C320.159 164.051 320.18 164.22 320.223 164.385C320.336 164.856 320.604 165.275 320.984 165.576C321.364 165.876 321.834 166.04 322.318 166.041H340.981C341.077 165.493 341.168 164.937 341.25 164.385C341.302 164.058 341.355 163.727 341.403 163.401C341.518 162.618 341.629 161.836 341.729 161.054C341.873 159.988 342.003 158.918 342.118 157.842C342.54 153.988 342.811 150.092 342.933 146.154V146.15C342.976 144.666 342.998 143.177 343 141.681V135.921C343 134.865 342.991 133.814 342.962 132.767Z" fill="#E6E6E6"/>
<path d="M342.962 132.767C342.928 130.905 342.855 129.052 342.741 127.209H324.956C324.384 127.21 323.835 127.438 323.431 127.842C323.026 128.247 322.799 128.796 322.798 129.369V161.241C322.799 161.813 323.026 162.362 323.431 162.767C323.835 163.172 324.384 163.4 324.956 163.401H341.403C341.518 162.618 341.629 161.836 341.729 161.053C341.873 159.988 342.003 158.917 342.118 157.842C342.54 153.988 342.811 150.092 342.933 146.154V146.15C342.976 144.666 342.998 143.177 343 141.681V135.921C343 134.865 342.991 133.814 342.962 132.767Z" fill="white"/>
<path d="M342.962 132.767H330.509C329.937 132.768 329.388 132.996 328.984 133.401C328.579 133.806 328.352 134.355 328.351 134.927V155.682C328.352 156.255 328.579 156.804 328.984 157.209C329.388 157.614 329.937 157.841 330.509 157.842H342.118C342.54 153.988 342.811 150.092 342.933 146.154V146.15C342.976 144.666 342.998 143.177 343 141.681V135.921C343 134.865 342.991 133.814 342.962 132.767Z" fill="#CCCCCC"/>
<path d="M342.933 146.154C342.813 150.09 342.541 153.986 342.118 157.842C342.003 158.918 341.873 159.988 341.729 161.053H334.335L335.333 159.33H325.282L328.351 154.007L330.489 150.297L334.872 142.703C334.956 142.557 335.076 142.435 335.222 142.35C335.368 142.265 335.533 142.221 335.702 142.221C335.87 142.221 336.036 142.265 336.181 142.35C336.327 142.435 336.448 142.557 336.531 142.703L340.727 149.975L342.933 146.154Z" fill="white"/>
<path d="M306.6 38.8174H219.763V34.0702H302.294C303.761 35.6206 305.196 37.203 306.6 38.8174Z" fill="#E6E6E6"/>
<path d="M265.888 5.89435C269.427 7.84314 272.876 9.93112 276.236 12.1583V35.3614H265.888V5.89435Z" fill="#E6E6E6"/>
<path d="M276.234 21.5547H265.888V26.3013H276.234V21.5547Z" fill="#CCCCCC"/>
<path d="M292.185 24.3503V35.3614H281.837V16.0607C284.249 17.8223 286.607 19.6543 288.91 21.5567C290.013 22.4687 291.105 23.3999 292.185 24.3503Z" fill="#E6E6E6"/>
<path d="M292.185 24.3503V26.2991H281.837V21.5567H288.91C290.013 22.4687 291.105 23.3999 292.185 24.3503Z" fill="#CCCCCC"/>
<path d="M255.324 0.604801C258.062 1.83837 260.754 3.15356 263.399 4.55038L261.27 8.85115L254.197 23.1599L252.092 27.4126L248.798 34.0702L248.074 35.5342L245.125 34.0702L238.805 30.9358L242.818 22.8143H242.823L244.924 18.5615L252.001 4.25278L254.082 0.0480027L254.106 0L255.324 0.604801Z" fill="#E6E6E6"/>
<path d="M263.375 4.59357L261.27 8.85115L252.001 4.25278L254.082 0.0479997L254.106 0L255.324 0.604797L263.375 4.59357Z" fill="#CCCCCC"/>
<path d="M244.924 18.5628L242.82 22.8167L252.092 27.4116L254.196 23.1578L244.924 18.5628Z" fill="#CCCCCC"/>
<path d="M341.25 164.385C341.168 164.937 341.077 165.493 340.981 166.041C340.814 167.077 340.631 168.105 340.435 169.132H219.763V164.385H341.25Z" fill="#E6E6E6"/>
<path d="M276.234 124.686H265.888V165.68H276.234V124.686Z" fill="#E6E6E6"/>
<path d="M276.234 131.159H265.888V135.906H276.234V131.159Z" fill="#CCCCCC"/>
<path d="M276.234 151.872H265.888V156.618H276.234V151.872Z" fill="#CCCCCC"/>
<path d="M292.184 124.686H281.838V165.68H292.184V124.686Z" fill="#E6E6E6"/>
<path d="M292.184 131.159H281.838V135.906H292.184V131.159Z" fill="#CCCCCC"/>
<path d="M292.184 151.872H281.838V156.618H292.184V151.872Z" fill="#CCCCCC"/>
<path d="M256.974 124.517L238.803 161.255L248.075 165.85L266.246 129.112L256.974 124.517Z" fill="#E6E6E6"/>
<path d="M254.105 130.318L252.001 134.571L261.273 139.166L263.376 134.913L254.105 130.318Z" fill="#CCCCCC"/>
<path d="M244.924 148.88L242.82 153.134L252.092 157.729L254.196 153.475L244.924 148.88Z" fill="#CCCCCC"/>
<path d="M140.403 182.678C140.835 182.927 141.248 183.21 141.636 183.524L184.327 170.225L186.734 159.623L203.194 161.168L200.754 180.352C200.557 181.902 199.863 183.346 198.776 184.467C197.69 185.589 196.269 186.327 194.727 186.571L144.486 194.533C143.753 196.312 142.497 197.825 140.884 198.871C139.271 199.917 137.379 200.446 135.458 200.389C133.537 200.332 131.679 199.691 130.131 198.551C128.582 197.411 127.418 195.827 126.791 194.008C126.165 192.19 126.107 190.223 126.624 188.37C127.141 186.518 128.21 184.867 129.687 183.637C131.165 182.407 132.982 181.656 134.896 181.485C136.81 181.314 138.731 181.73 140.403 182.678Z" fill="#FFB8B8"/>
<path d="M210.801 167.529L210.518 162.69V162.686L210.441 161.361L209.607 147.114C209.856 144.144 208.92 141.196 207.003 138.916C205.086 136.635 202.345 135.208 199.379 134.946C198.525 134.87 197.666 134.892 196.818 135.014C194.298 135.37 191.973 136.568 190.219 138.414C188.465 140.259 187.386 142.643 187.155 145.18L185.424 152.39L182.399 164.999C182.184 165.881 182.273 166.81 182.651 167.636C183.028 168.461 183.673 169.135 184.48 169.55C184.946 169.795 185.456 169.945 185.981 169.991L191.025 170.442L195.883 170.874L201.488 171.374L201.891 171.407L202.927 171.503L206.394 171.81H206.403C206.983 171.857 207.565 171.78 208.112 171.585C208.659 171.39 209.159 171.08 209.578 170.677C209.883 170.38 210.14 170.037 210.34 169.66C210.69 169.007 210.85 168.268 210.801 167.529Z" fill="#3FC1C9"/>
<path d="M257.648 108.86C257.648 125.288 242.473 122.803 223.753 122.803C205.033 122.803 189.858 125.288 189.858 108.86C189.858 92.4317 197.271 63.3118 223.753 63.3118C251.147 63.3118 257.648 92.4317 257.648 108.86Z" fill="#2F2E41"/>
<path d="M239.767 116.089C248.674 107.173 248.674 92.7171 239.767 83.8011C230.86 74.8852 216.419 74.8852 207.512 83.8011C198.605 92.7171 198.605 107.173 207.512 116.089C216.419 125.005 230.86 125.005 239.767 116.089Z" fill="#FFB8B8"/>
<path d="M255.746 132.374C255.307 131.95 254.841 131.556 254.351 131.193C251.25 128.848 247.353 127.815 243.499 128.318L201.469 133.641C197.619 134.119 194.107 136.08 191.676 139.107C189.246 142.133 188.089 145.989 188.45 149.855C188.57 151.199 188.704 152.615 188.853 154.089C189.045 155.937 189.26 157.876 189.51 159.882C189.922 163.257 190.426 166.818 191.025 170.442C191.548 173.562 192.143 176.725 192.823 179.85C193.02 180.753 193.225 181.652 193.437 182.548C193.437 182.55 193.437 182.553 193.438 182.556C193.439 182.558 193.44 182.56 193.442 182.562C193.466 182.673 193.49 182.783 193.519 182.889C193.517 182.897 193.519 182.905 193.524 182.913C193.821 184.161 194.133 185.394 194.459 186.613C194.583 187.065 194.703 187.511 194.828 187.953C195.163 189.153 195.518 190.328 195.883 191.485C198.621 200.092 202.241 207.421 207.022 211.319C207.084 211.376 207.147 211.424 207.214 211.477L207.406 211.626L207.684 211.54L208.863 211.189L209.87 210.882L222.99 206.932L226.256 205.948L236.748 202.784H236.752L246.348 199.895L247.518 199.54L255.761 197.058L256.024 193.976L256.379 189.887L256.59 187.429L258.259 168.047L259.232 156.738L260.287 144.46C260.483 142.233 260.177 139.991 259.391 137.899C258.605 135.807 257.359 133.919 255.746 132.374Z" fill="#2F2E41"/>
<path d="M279.248 226.16C279.137 225.839 279.032 225.517 278.922 225.2C273.992 210.8 266.723 199.909 256.024 193.976C256.02 193.976 256.02 193.972 256.015 193.972L255.833 193.871L246.511 197.101L245.36 197.5L244.161 197.917L244.147 197.922L235.419 200.946L235.405 200.951L228.558 203.322H228.553L222.218 205.516H222.213L220.741 206.029L209.669 209.864L208.384 210.311L207.233 210.709L207.056 210.772L207.022 211.319L206.231 225.2L206.178 226.16L205.19 243.483L172.386 290H194.828C202.347 290.002 209.856 289.429 217.289 288.286L238.344 265.573C238.521 265.39 238.744 265.259 238.989 265.194C239.235 265.128 239.493 265.131 239.737 265.203C239.981 265.274 240.201 265.41 240.373 265.597C240.545 265.784 240.663 266.015 240.713 266.264L243.806 281.624C259.044 276.231 273.297 268.38 286.004 258.383C284.527 246.455 282.369 235.583 279.248 226.16Z" fill="#2F2E41"/>
<path d="M197.287 97.7052H206.308L210.288 86.5506L211.083 97.7052H215.395L217.717 91.1983L218.181 97.7052H250.219C250.219 94.5313 249.594 91.3886 248.381 88.4564C247.168 85.5241 245.389 82.8598 243.147 80.6156C240.905 78.3714 238.243 76.5911 235.314 75.3766C232.385 74.162 229.245 73.5369 226.074 73.5369H221.431C215.028 73.5369 208.887 76.0832 204.359 80.6156C199.831 85.148 197.287 91.2953 197.287 97.7052Z" fill="#2F2E41"/>
<path d="M141.799 218.666C140.326 219.286 138.736 219.574 137.14 219.512C135.543 219.45 133.98 219.037 132.56 218.305C131.14 217.572 129.898 216.537 128.921 215.272C127.944 214.007 127.256 212.542 126.905 210.982L88.3204 206.608L101.255 191.104L135.913 197.635C138.57 197.219 141.287 197.794 143.55 199.249C145.812 200.705 147.463 202.941 148.188 205.533C148.914 208.126 148.664 210.895 147.487 213.315C146.309 215.736 144.285 217.64 141.799 218.666Z" fill="#A0616A"/>
<path d="M120.996 189.969L104.687 187.05L103.503 186.839C102.556 186.67 101.656 186.302 100.862 185.76C100.068 185.218 99.3969 184.513 98.8938 183.693C98.3906 182.873 98.0665 181.956 97.9427 181.002C97.8189 180.047 97.8982 179.077 98.1755 178.156L106.183 151.521L106.423 150.729C107.423 147.343 107.245 143.718 105.918 140.448C104.591 137.177 102.195 134.454 99.12 132.724C97.0388 131.567 94.7192 130.907 92.3414 130.793C89.9636 130.68 87.5917 131.118 85.4103 132.071C83.2289 133.025 81.2967 134.47 79.7639 136.293C78.2311 138.116 77.1391 140.269 76.5729 142.583L66.3592 184.309L65.9803 185.855C65.2669 188.767 65.1891 191.798 65.7522 194.742C66.3154 197.686 67.5061 200.475 69.2433 202.917C70.9806 205.358 73.2234 207.397 75.8189 208.892C78.4145 210.388 81.3016 211.306 84.2836 211.583C84.3171 211.588 84.3459 211.588 84.3796 211.592L90.4935 212.135L98.4246 212.84L108.399 213.728L117.706 214.559C118.926 214.669 120.142 214.317 121.113 213.572C122.085 212.827 122.742 211.743 122.952 210.536C122.967 210.469 122.976 210.402 122.986 210.335L124.962 195.57L124.981 195.436C125.151 194.186 124.831 192.918 124.088 191.899C123.345 190.88 122.237 190.188 120.996 189.969Z" fill="#CCCCCC"/>
<path d="M95.8698 78.0963C89.3594 90.9088 84.2284 104.124 69.8681 104.124C62.972 104.124 56.3584 101.382 51.4822 96.5005C46.6059 91.6194 43.8665 84.9992 43.8665 78.0963C43.8665 63.7218 55.5088 52.2488 69.8681 52.0689C84.4623 51.886 107.987 54.2483 95.8698 78.0963Z" fill="#2F2E41"/>
<path d="M112.202 245.711L111.611 239.816L111.17 239.84L33.6365 243.579L33.8378 249.546L34.1785 259.765C46.1757 268.913 59.4986 276.173 73.6861 281.293L74.1898 277.386C74.2338 277.067 74.3864 276.774 74.6217 276.555C74.857 276.337 75.1606 276.206 75.481 276.186C75.8015 276.165 76.1191 276.256 76.3801 276.444C76.6412 276.631 76.8295 276.903 76.9133 277.213L78.443 282.92C90.802 286.91 103.636 289.236 116.608 289.837L112.202 245.711Z" fill="#2F2E41"/>
<path d="M87.2755 97.9436C96.1827 89.0277 96.1827 74.5721 87.2755 65.6561C78.3684 56.7401 63.9271 56.7401 55.02 65.6561C46.1129 74.5721 46.1129 89.0277 55.02 97.9436C63.9271 106.86 78.3684 106.86 87.2755 97.9436Z" fill="#A0616A"/>
<path d="M116.656 240.215L112.134 226.16L112.058 225.92L111.827 225.2L110.537 221.197C110.12 219.896 109.722 218.591 109.353 217.28C109.013 216.1 108.694 214.916 108.399 213.728C107.977 212.077 107.593 210.42 107.248 208.756C106.078 203.164 105.297 197.497 104.913 191.797C104.807 190.218 104.732 188.636 104.687 187.05C104.406 177.331 105.28 167.614 107.291 158.102C109.041 149.876 108.107 141.305 104.624 133.651C101.142 125.998 95.2956 119.666 87.9473 115.588C83.1253 112.921 77.7883 111.318 72.2956 110.889C71.9168 110.86 71.5379 110.836 71.1544 110.812C65.3522 110.445 59.5418 111.387 54.152 113.569C48.7622 115.751 43.9308 119.116 40.0143 123.417C37.9166 125.704 36.0946 128.23 34.5859 130.943C30.3999 138.493 28.8285 147.217 30.1169 155.754L35.5066 191.98L34.2792 207.229L32.8311 225.2L32.7543 226.16L31.2101 245.322C31.137 246.215 31.353 247.108 31.8263 247.869C32.2995 248.63 33.0048 249.218 33.8379 249.546C34.3258 249.741 34.8469 249.841 35.3724 249.839C35.4492 249.839 35.5211 249.839 35.5979 249.834L112.202 245.711L112.902 245.672C113.541 245.639 114.163 245.459 114.722 245.147C115.28 244.834 115.76 244.397 116.122 243.87C116.485 243.342 116.722 242.738 116.815 242.104C116.907 241.471 116.853 240.824 116.656 240.215Z" fill="#CCCCCC"/>
<path d="M95.3508 68.8971C90.1388 72.493 83.9525 74.4067 77.6226 74.3814C79.8806 75.9486 82.4511 77.0071 85.1571 77.4842C76.741 79.2913 68.0428 79.3402 59.6068 77.6279C57.7317 77.3269 55.9223 76.7049 54.2581 75.789C52.6384 74.8048 51.2834 73.2376 50.9566 71.3693C50.3961 68.1637 52.8914 65.2514 55.4846 63.2886C59.455 60.3294 64.0329 58.2905 68.8871 57.3196C73.7413 56.3486 78.7504 56.4698 83.552 57.6744C86.6873 58.4857 89.8282 59.8563 91.8647 62.3767C93.9011 64.8971 94.5044 68.7827 92.5641 71.3781L95.3508 68.8971Z" fill="#2F2E41"/>
<path d="M96.5169 213.917C95.0578 214.568 93.4739 214.891 91.8767 214.863C90.2794 214.835 88.7077 214.457 87.2722 213.756C85.8367 213.054 84.5724 212.046 83.5683 210.802C82.5642 209.558 81.8447 208.109 81.4605 206.557L42.7899 203.02L55.3857 187.24L90.1769 193.018C92.8246 192.545 95.5537 193.06 97.8471 194.466C100.141 195.873 101.839 198.072 102.62 200.648C103.402 203.225 103.212 205.998 102.087 208.444C100.962 210.889 98.9804 212.836 96.5169 213.917Z" fill="#A0616A"/>
<path d="M75.1009 185.677L66.3592 184.309L57.5407 182.927C56.591 182.778 55.6834 182.43 54.8775 181.906C54.0717 181.381 53.3858 180.692 52.865 179.883C52.3442 179.075 52.0002 178.165 51.8557 177.213C51.7111 176.262 51.7692 175.291 52.0262 174.364L59.6794 146.764C60.6055 143.358 60.3489 139.738 58.9516 136.496C57.5543 133.255 55.099 130.585 51.9878 128.922C49.8861 127.8 47.5521 127.183 45.1708 127.121C42.7895 127.058 40.4264 127.552 38.2688 128.562C36.1046 129.557 34.2006 131.041 32.707 132.898C31.2133 134.755 30.1707 136.933 29.6613 139.262L20.0086 182.754C19.3583 185.688 19.3489 188.728 19.981 191.665C20.6131 194.603 21.8717 197.37 23.6709 199.775C25.47 202.181 27.7671 204.169 30.4049 205.604C33.0428 207.039 35.9592 207.886 38.9546 208.088L72.3436 210.33C73.5645 210.413 74.7722 210.035 75.7276 209.27C76.6831 208.504 77.3167 207.408 77.5031 206.197C77.5177 206.13 77.5223 206.063 77.5319 205.996L79.1864 191.193L79.2007 191.058C79.3433 189.805 78.9962 188.545 78.232 187.542C77.4679 186.539 76.3459 185.871 75.1009 185.677Z" fill="#CCCCCC"/>
<path d="M223.022 162.733L221.021 163.826L196.368 177.291L194.367 178.384C193.396 178.915 192.676 179.811 192.364 180.874C192.051 181.937 192.173 183.08 192.702 184.053L211.061 217.734C211.592 218.705 212.487 219.427 213.548 219.739C214.61 220.052 215.753 219.93 216.725 219.4L216.73 219.397L245.375 203.753L245.38 203.75C246.351 203.218 247.071 202.323 247.383 201.26C247.696 200.197 247.574 199.054 247.045 198.08L228.686 164.4C228.155 163.428 227.26 162.707 226.199 162.394C225.137 162.082 223.994 162.204 223.022 162.733Z" fill="#E6E6E6"/>
<path d="M223.598 163.789L221.228 165.084L197.313 178.145L194.943 179.44C194.251 179.818 193.738 180.456 193.516 181.213C193.294 181.97 193.38 182.784 193.757 183.477L212.116 217.157C212.494 217.85 213.131 218.363 213.887 218.586C214.643 218.808 215.457 218.721 216.149 218.344L216.154 218.341L244.799 202.697L244.804 202.694C245.495 202.315 246.009 201.678 246.231 200.921C246.453 200.164 246.366 199.35 245.99 198.657L227.631 164.976C227.253 164.284 226.616 163.77 225.86 163.548C225.104 163.325 224.29 163.412 223.598 163.789Z" fill="white"/>
<path d="M224.271 173.298C224.181 173.137 224.032 173.017 223.855 172.965C223.678 172.912 223.488 172.932 223.326 173.02L222.372 173.543L212.642 178.857C212.481 178.946 212.362 179.095 212.31 179.272C212.259 179.449 212.279 179.638 212.367 179.8C212.456 179.962 212.604 180.082 212.78 180.135C212.957 180.187 213.146 180.168 213.309 180.081L223.992 174.244C224.154 174.155 224.274 174.005 224.326 173.828C224.378 173.651 224.358 173.461 224.271 173.298Z" fill="#E6E6E6"/>
<path d="M227.91 173.985C227.867 173.905 227.808 173.834 227.737 173.777C227.666 173.719 227.585 173.677 227.497 173.651C227.41 173.626 227.318 173.618 227.228 173.628C227.137 173.639 227.05 173.667 226.97 173.711L213.769 180.921C213.689 180.964 213.618 181.024 213.561 181.095C213.504 181.166 213.461 181.247 213.436 181.335C213.41 181.423 213.402 181.514 213.412 181.605C213.422 181.696 213.449 181.784 213.493 181.864C213.537 181.944 213.596 182.015 213.667 182.072C213.738 182.129 213.82 182.172 213.907 182.197C213.995 182.223 214.086 182.231 214.177 182.221C214.268 182.211 214.356 182.184 214.436 182.14L215.049 181.804L218.89 179.706H218.895L227.632 174.93C227.713 174.887 227.784 174.828 227.842 174.757C227.9 174.686 227.943 174.604 227.969 174.516C227.995 174.428 228.003 174.335 227.993 174.244C227.983 174.153 227.955 174.065 227.91 173.985Z" fill="#E6E6E6"/>
<path d="M213.563 185.476L209.372 177.781C209.328 177.704 209.256 177.647 209.171 177.623C209.085 177.599 208.994 177.609 208.916 177.652L206.883 178.761L205.828 179.337L200.165 182.428L199.067 183.028C198.99 183.071 198.933 183.144 198.909 183.229C198.884 183.315 198.895 183.406 198.937 183.484L199.206 183.978L203.128 191.178C203.171 191.255 203.242 191.312 203.327 191.336C203.411 191.36 203.502 191.35 203.579 191.308L210.34 187.617L211.395 187.041L213.428 185.932C213.467 185.911 213.502 185.882 213.53 185.848C213.557 185.814 213.578 185.774 213.591 185.732C213.603 185.689 213.607 185.645 213.602 185.601C213.598 185.557 213.584 185.515 213.563 185.476Z" fill="#E6E6E6"/>
<path d="M229.569 183.061C229.481 182.9 229.333 182.78 229.157 182.728C228.98 182.676 228.791 182.695 228.629 182.783L214.138 190.698C214.01 190.768 213.907 190.877 213.845 191.009C213.782 191.141 213.762 191.289 213.788 191.433C213.798 191.507 213.823 191.579 213.86 191.644C213.897 191.71 213.944 191.77 213.999 191.821L214.004 191.826C214.111 191.923 214.246 191.984 214.389 192.001C214.532 192.018 214.678 191.991 214.805 191.922L229.296 184.007C229.376 183.963 229.447 183.904 229.504 183.832C229.561 183.761 229.603 183.679 229.629 183.591C229.654 183.503 229.662 183.411 229.652 183.32C229.641 183.229 229.613 183.141 229.569 183.061Z" fill="#E6E6E6"/>
<path d="M233.214 183.748C233.17 183.668 233.11 183.597 233.039 183.54C232.967 183.483 232.886 183.44 232.798 183.415C232.71 183.39 232.618 183.382 232.527 183.392C232.437 183.402 232.349 183.43 232.269 183.474L215.26 192.762C215.132 192.83 215.029 192.937 214.966 193.067C214.903 193.197 214.884 193.345 214.91 193.487V193.492C214.92 193.566 214.945 193.638 214.982 193.703C215.019 193.772 215.068 193.833 215.126 193.885C215.232 193.984 215.367 194.046 215.511 194.064C215.655 194.081 215.8 194.052 215.927 193.981L232.935 184.693C233.097 184.605 233.217 184.455 233.269 184.278C233.321 184.101 233.301 183.91 233.214 183.748Z" fill="#E6E6E6"/>
<path d="M209.284 198.403C210.913 198.403 212.234 197.081 212.234 195.45C212.234 193.82 210.913 192.498 209.284 192.498C207.656 192.498 206.335 193.82 206.335 195.45C206.335 197.081 207.656 198.403 209.284 198.403Z" fill="#E6E6E6"/>
<path d="M231.654 149.773L229.653 150.866L205 164.331L202.999 165.424C202.028 165.955 201.307 166.851 200.995 167.914C200.683 168.977 200.805 170.12 201.334 171.093L219.692 204.774C220.223 205.746 221.118 206.467 222.18 206.779C223.242 207.092 224.384 206.97 225.356 206.44L225.361 206.438L254.006 190.793L254.011 190.79C254.982 190.258 255.703 189.363 256.015 188.3C256.327 187.237 256.205 186.094 255.676 185.12L237.318 151.44C236.786 150.468 235.892 149.747 234.83 149.434C233.768 149.122 232.626 149.244 231.654 149.773Z" fill="#CCCCCC"/>
<path d="M232.229 150.829L229.859 152.124L205.944 165.185L203.574 166.48C202.883 166.858 202.37 167.496 202.147 168.253C201.925 169.01 202.012 169.824 202.388 170.517L220.747 204.197C221.125 204.89 221.762 205.403 222.519 205.626C223.275 205.848 224.088 205.761 224.78 205.384L224.786 205.382L253.43 189.737L253.436 189.734C254.127 189.355 254.64 188.718 254.862 187.961C255.085 187.204 254.998 186.39 254.621 185.697L236.263 152.016C235.884 151.324 235.247 150.81 234.491 150.588C233.735 150.365 232.922 150.452 232.229 150.829Z" fill="white"/>
<path d="M232.902 160.338C232.813 160.177 232.664 160.057 232.487 160.005C232.31 159.952 232.12 159.972 231.957 160.06L227.037 162.748L225.666 163.497L221.274 165.897C221.113 165.986 220.993 166.135 220.942 166.312C220.89 166.489 220.911 166.679 220.999 166.84C221.087 167.002 221.235 167.122 221.412 167.175C221.588 167.227 221.778 167.208 221.94 167.121L227.119 164.293L228.203 163.698L232.624 161.284C232.785 161.195 232.905 161.045 232.957 160.868C233.009 160.691 232.989 160.501 232.902 160.338Z" fill="#CCCCCC"/>
<path d="M236.541 161.025C236.498 160.945 236.439 160.874 236.368 160.817C236.297 160.76 236.216 160.717 236.129 160.692C236.041 160.666 235.95 160.658 235.859 160.669C235.769 160.679 235.681 160.707 235.602 160.751L228.74 164.5L227.685 165.076L222.4 167.961C222.32 168.005 222.25 168.064 222.193 168.135C222.135 168.206 222.093 168.288 222.067 168.375C222.042 168.463 222.034 168.555 222.043 168.645C222.053 168.736 222.081 168.824 222.125 168.904C222.168 168.984 222.227 169.055 222.298 169.112C222.369 169.169 222.451 169.212 222.539 169.237C222.626 169.263 222.718 169.271 222.808 169.261C222.899 169.251 222.987 169.224 223.067 169.18L228.351 166.295L229.406 165.719L236.263 161.97C236.344 161.927 236.416 161.868 236.474 161.797C236.531 161.726 236.575 161.644 236.6 161.556C236.626 161.468 236.634 161.376 236.624 161.284C236.614 161.193 236.586 161.105 236.541 161.025Z" fill="#CCCCCC"/>
<path d="M222.194 172.516L218.852 166.381L218.277 165.325L218.003 164.821C217.96 164.744 217.887 164.687 217.802 164.663C217.717 164.639 217.625 164.649 217.548 164.692L210.763 168.397L207.698 170.068C207.621 170.112 207.564 170.184 207.54 170.269C207.516 170.355 207.526 170.446 207.569 170.524L207.842 171.023L208.139 171.575L208.418 172.079V172.084L211.76 178.218C211.802 178.295 211.874 178.352 211.958 178.376C212.043 178.4 212.133 178.39 212.21 178.348L222.06 172.972C222.099 172.951 222.133 172.922 222.161 172.888C222.189 172.854 222.21 172.814 222.222 172.772C222.235 172.73 222.239 172.685 222.234 172.641C222.229 172.597 222.216 172.555 222.194 172.516Z" fill="#3FC1C9"/>
<path d="M238.201 170.101C238.113 169.94 237.964 169.82 237.788 169.768C237.612 169.716 237.422 169.735 237.261 169.823L232.93 172.189L231.876 172.765L227.694 175.045L222.769 177.738C222.689 177.782 222.618 177.841 222.561 177.912C222.503 177.984 222.461 178.066 222.435 178.153C222.409 178.241 222.401 178.333 222.41 178.424C222.42 178.515 222.448 178.603 222.491 178.684C222.535 178.764 222.594 178.835 222.665 178.893C222.737 178.95 222.818 178.993 222.906 179.019C222.994 179.045 223.086 179.053 223.177 179.043C223.268 179.034 223.356 179.006 223.436 178.962L232.542 173.989L233.597 173.413L237.927 171.047C238.007 171.003 238.078 170.944 238.135 170.872C238.192 170.801 238.235 170.719 238.26 170.631C238.285 170.543 238.293 170.451 238.283 170.36C238.273 170.269 238.245 170.181 238.201 170.101Z" fill="#CCCCCC"/>
<path d="M241.845 170.788C241.801 170.708 241.742 170.637 241.67 170.58C241.599 170.523 241.517 170.48 241.429 170.455C241.342 170.43 241.25 170.422 241.159 170.432C241.068 170.442 240.98 170.47 240.9 170.514L234.057 174.253L233.003 174.829L223.892 179.802C223.811 179.846 223.74 179.905 223.683 179.976C223.625 180.047 223.582 180.129 223.556 180.217C223.53 180.304 223.522 180.396 223.532 180.487C223.542 180.578 223.569 180.667 223.613 180.747C223.657 180.827 223.716 180.898 223.788 180.955C223.859 181.013 223.941 181.055 224.029 181.081C224.116 181.106 224.208 181.114 224.299 181.104C224.39 181.094 224.478 181.066 224.558 181.021L233.664 176.049L234.719 175.473L241.567 171.733C241.729 171.645 241.849 171.495 241.901 171.318C241.953 171.141 241.933 170.95 241.845 170.788Z" fill="#CCCCCC"/>
<path d="M217.916 185.443C219.545 185.443 220.865 184.121 220.865 182.49C220.865 180.86 219.545 179.538 217.916 179.538C216.287 179.538 214.967 180.86 214.967 182.49C214.967 184.121 216.287 185.443 217.916 185.443Z" fill="#CCCCCC"/>
<path d="M219.897 199.088C220.393 199.137 220.885 199.225 221.368 199.351L254.815 169.651L252.652 158.996L268.289 153.627L273.95 172.117C274.407 173.611 274.368 175.212 273.838 176.682C273.308 178.152 272.317 179.41 271.012 180.267L228.491 208.212C228.554 210.135 228.03 212.031 226.99 213.648C225.95 215.266 224.442 216.528 222.668 217.267C220.894 218.006 218.936 218.187 217.057 217.786C215.178 217.384 213.465 216.419 212.146 215.02C210.828 213.62 209.967 211.852 209.677 209.95C209.387 208.048 209.682 206.103 210.524 204.374C211.365 202.644 212.713 201.212 214.387 200.268C216.061 199.324 217.983 198.912 219.897 199.088Z" fill="#FFB8B8"/>
<path d="M277.838 156.287L268.362 138.172C267.387 135.417 265.381 133.149 262.766 131.847C260.152 130.544 257.135 130.31 254.351 131.193C254.245 131.222 254.145 131.255 254.039 131.294C251.218 132.281 248.904 134.348 247.604 137.041C246.304 139.735 246.124 142.834 247.105 145.66L250.908 165.681C251.017 166.254 251.248 166.797 251.586 167.272C251.923 167.748 252.359 168.145 252.864 168.436C253.416 168.759 254.038 168.943 254.677 168.973C255.202 169.007 255.729 168.933 256.226 168.757L258.259 168.047L271.311 163.497L275.579 162.009C276.13 161.816 276.632 161.507 277.053 161.102C277.473 160.698 277.802 160.208 278.016 159.665C278.23 159.122 278.325 158.539 278.294 157.957C278.264 157.374 278.108 156.804 277.838 156.287Z" fill="#3FC1C9"/>
<path d="M313.607 226.16H0.479522C0.352345 226.16 0.230376 226.11 0.140448 226.02C0.0505205 225.93 0 225.808 0 225.68C0 225.553 0.0505205 225.431 0.140448 225.341C0.230376 225.251 0.352345 225.2 0.479522 225.2H313.607C313.734 225.2 313.856 225.251 313.946 225.341C314.036 225.431 314.087 225.553 314.087 225.68C314.087 225.808 314.036 225.93 313.946 226.02C313.856 226.11 313.734 226.16 313.607 226.16Z" fill="#3F3D56"/>
<path d="M54.4238 217.28V217.52C54.4255 219.148 54.8989 220.74 55.7868 222.103C56.6746 223.466 57.9385 224.542 59.4253 225.2C60.4918 225.678 61.6473 225.923 62.8155 225.92H140.258V217.28H54.4238Z" fill="#3F3D56"/>
<path d="M194.329 160.338C193.1 157.799 191.208 155.639 188.853 154.089C187.785 153.381 186.634 152.81 185.424 152.39C183.777 151.814 182.044 151.52 180.298 151.521H105.972C101.841 151.526 97.8794 153.171 94.9578 156.095C92.0362 159.02 90.3927 162.985 90.388 167.121V210.32C90.3866 210.927 90.4219 211.533 90.4936 212.135C90.5989 213.035 90.7817 213.925 91.04 214.794C91.2963 215.65 91.6268 216.482 92.0279 217.28C93.3188 219.877 95.3079 222.061 97.7714 223.587C100.235 225.114 103.075 225.922 105.972 225.92H180.298C182.345 225.921 184.372 225.518 186.263 224.734C188.154 223.951 189.873 222.802 191.32 221.353C192.767 219.904 193.915 218.184 194.698 216.291C195.481 214.398 195.884 212.369 195.883 210.32V167.121C195.886 164.771 195.355 162.452 194.329 160.338Z" fill="#3F3D56"/>
<path d="M147.211 192.561C149.33 192.561 151.047 190.841 151.047 188.721C151.047 186.6 149.33 184.881 147.211 184.881C145.093 184.881 143.375 186.6 143.375 188.721C143.375 190.841 145.093 192.561 147.211 192.561Z" fill="white"/>
</g>
<defs>
<clipPath id="clip0_73_208">
<rect width="343" height="290" fill="white"/>
</clipPath>
</defs>
</svg>
